<?xml version="1.0" encoding="UTF-8" standalone="no"?>
<!DOCTYPE svg PUBLIC "-//W3C//DTD SVG 1.1//EN"
 "http://www.w3.org/Graphics/SVG/1.1/DTD/svg11.dtd">
<!-- Generated by graphviz version 2.40.1 (20161225.0304)
 -->
<!-- Title: BST Pages: 1 -->
<svg width="2330pt" height="476pt"
 viewBox="0.00 0.00 2330.00 476.00" xmlns="http://www.w3.org/2000/svg" xmlns:xlink="http://www.w3.org/1999/xlink">
<g id="graph0" class="graph" transform="scale(1 1) rotate(0) translate(4 472)">
<title>BST</title>
<polygon fill="#ffffff" stroke="transparent" points="-4,4 -4,-472 2326,-472 2326,4 -4,4"/>
<!-- 48 -->
<g id="node1" class="node">
<title>48</title>
<ellipse fill="none" stroke="#000000" cx="1197" cy="-450" rx="27" ry="18"/>
<text text-anchor="middle" x="1197" y="-446.3" font-family="Arial" font-size="14.00" fill="#000000">48</text>
</g>
<!-- 32 -->
<g id="node2" class="node">
<title>32</title>
<ellipse fill="none" stroke="#000000" cx="837" cy="-378" rx="27" ry="18"/>
<text text-anchor="middle" x="837" y="-374.3" font-family="Arial" font-size="14.00" fill="#000000">32</text>
</g>
<!-- 48&#45;&gt;32 -->
<g id="edge1" class="edge">
<title>48&#45;&gt;32</title>
<path fill="none" stroke="#000000" d="M1171.1097,-444.8219C1107.9542,-432.1908 945.8564,-399.7713 873.1895,-385.2379"/>
<polygon fill="#000000" stroke="#000000" points="873.6317,-381.7571 863.1394,-383.2279 872.2588,-388.6212 873.6317,-381.7571"/>
</g>
<!-- 64 -->
<g id="node33" class="node">
<title>64</title>
<ellipse fill="none" stroke="#000000" cx="1431" cy="-378" rx="27" ry="18"/>
<text text-anchor="middle" x="1431" y="-374.3" font-family="Arial" font-size="14.00" fill="#000000">64</text>
</g>
<!-- 48&#45;&gt;64 -->
<g id="edge32" class="edge">
<title>48&#45;&gt;64</title>
<path fill="none" stroke="#000000" d="M1221.5998,-442.4308C1263.557,-429.5209 1349.0401,-403.2184 1396.7911,-388.5258"/>
<polygon fill="#000000" stroke="#000000" points="1397.8502,-391.862 1406.3787,-385.5758 1395.7915,-385.1715 1397.8502,-391.862"/>
</g>
<!-- 24 -->
<g id="node3" class="node">
<title>24</title>
<ellipse fill="none" stroke="#000000" cx="423" cy="-306" rx="27" ry="18"/>
<text text-anchor="middle" x="423" y="-302.3" font-family="Arial" font-size="14.00" fill="#000000">24</text>
</g>
<!-- 32&#45;&gt;24 -->
<g id="edge2" class="edge">
<title>32&#45;&gt;24</title>
<path fill="none" stroke="#000000" d="M810.7884,-373.4415C739.3677,-361.0205 541.2086,-326.558 459.2263,-312.3002"/>
<polygon fill="#000000" stroke="#000000" points="459.8156,-308.8503 449.3637,-310.585 458.6161,-315.7467 459.8156,-308.8503"/>
</g>
<!-- 40 -->
<g id="node18" class="node">
<title>40</title>
<ellipse fill="none" stroke="#000000" cx="837" cy="-306" rx="27" ry="18"/>
<text text-anchor="middle" x="837" y="-302.3" font-family="Arial" font-size="14.00" fill="#000000">40</text>
</g>
<!-- 32&#45;&gt;40 -->
<g id="edge17" class="edge">
<title>32&#45;&gt;40</title>
<path fill="none" stroke="#000000" d="M837,-359.8314C837,-352.131 837,-342.9743 837,-334.4166"/>
<polygon fill="#000000" stroke="#000000" points="840.5001,-334.4132 837,-324.4133 833.5001,-334.4133 840.5001,-334.4132"/>
</g>
<!-- 20 -->
<g id="node4" class="node">
<title>20</title>
<ellipse fill="none" stroke="#000000" cx="207" cy="-234" rx="27" ry="18"/>
<text text-anchor="middle" x="207" y="-230.3" font-family="Arial" font-size="14.00" fill="#000000">20</text>
</g>
<!-- 24&#45;&gt;20 -->
<g id="edge3" class="edge">
<title>24&#45;&gt;20</title>
<path fill="none" stroke="#000000" d="M398.6419,-297.8806C360.053,-285.0177 284.7561,-259.9187 240.9104,-245.3035"/>
<polygon fill="#000000" stroke="#000000" points="241.8627,-241.9316 231.2691,-242.0897 239.6491,-248.5724 241.8627,-241.9316"/>
</g>
<!-- 28 -->
<g id="node11" class="node">
<title>28</title>
<ellipse fill="none" stroke="#000000" cx="423" cy="-234" rx="27" ry="18"/>
<text text-anchor="middle" x="423" y="-230.3" font-family="Arial" font-size="14.00" fill="#000000">28</text>
</g>
<!-- 24&#45;&gt;28 -->
<g id="edge10" class="edge">
<title>24&#45;&gt;28</title>
<path fill="none" stroke="#000000" d="M423,-287.8314C423,-280.131 423,-270.9743 423,-262.4166"/>
<polygon fill="#000000" stroke="#000000" points="426.5001,-262.4132 423,-252.4133 419.5001,-262.4133 426.5001,-262.4132"/>
</g>
<!-- 16 -->
<g id="node5" class="node">
<title>16</title>
<ellipse fill="none" stroke="#000000" cx="99" cy="-162" rx="27" ry="18"/>
<text text-anchor="middle" x="99" y="-158.3" font-family="Arial" font-size="14.00" fill="#000000">16</text>
</g>
<!-- 20&#45;&gt;16 -->
<g id="edge4" class="edge">
<title>20&#45;&gt;16</title>
<path fill="none" stroke="#000000" d="M187.6918,-221.1278C170.6445,-209.763 145.5981,-193.0654 126.4656,-180.3104"/>
<polygon fill="#000000" stroke="#000000" points="128.4031,-177.3956 118.1411,-174.7607 124.5201,-183.2199 128.4031,-177.3956"/>
</g>
<!-- 22 -->
<g id="node8" class="node">
<title>22</title>
<ellipse fill="none" stroke="#000000" cx="207" cy="-162" rx="27" ry="18"/>
<text text-anchor="middle" x="207" y="-158.3" font-family="Arial" font-size="14.00" fill="#000000">22</text>
</g>
<!-- 20&#45;&gt;22 -->
<g id="edge7" class="edge">
<title>20&#45;&gt;22</title>
<path fill="none" stroke="#000000" d="M207,-215.8314C207,-208.131 207,-198.9743 207,-190.4166"/>
<polygon fill="#000000" stroke="#000000" points="210.5001,-190.4132 207,-180.4133 203.5001,-190.4133 210.5001,-190.4132"/>
</g>
<!-- 0 -->
<g id="node6" class="node">
<title>0</title>
<ellipse fill="none" stroke="#000000" cx="27" cy="-90" rx="27" ry="18"/>
<text text-anchor="middle" x="27" y="-86.3" font-family="Arial" font-size="14.00" fill="#000000">0</text>
</g>
<!-- 16&#45;&gt;0 -->
<g id="edge5" class="edge">
<title>16&#45;&gt;0</title>
<path fill="none" stroke="#000000" d="M83.7307,-146.7307C73.803,-136.803 60.6847,-123.6847 49.5637,-112.5637"/>
<polygon fill="#000000" stroke="#000000" points="51.7933,-109.8436 42.2473,-105.2473 46.8436,-114.7933 51.7933,-109.8436"/>
</g>
<!-- 19 -->
<g id="node7" class="node">
<title>19</title>
<ellipse fill="none" stroke="#000000" cx="99" cy="-90" rx="27" ry="18"/>
<text text-anchor="middle" x="99" y="-86.3" font-family="Arial" font-size="14.00" fill="#000000">19</text>
</g>
<!-- 16&#45;&gt;19 -->
<g id="edge6" class="edge">
<title>16&#45;&gt;19</title>
<path fill="none" stroke="#000000" d="M99,-143.8314C99,-136.131 99,-126.9743 99,-118.4166"/>
<polygon fill="#000000" stroke="#000000" points="102.5001,-118.4132 99,-108.4133 95.5001,-118.4133 102.5001,-118.4132"/>
</g>
<!-- 21 -->
<g id="node9" class="node">
<title>21</title>
<ellipse fill="none" stroke="#000000" cx="171" cy="-90" rx="27" ry="18"/>
<text text-anchor="middle" x="171" y="-86.3" font-family="Arial" font-size="14.00" fill="#000000">21</text>
</g>
<!-- 22&#45;&gt;21 -->
<g id="edge8" class="edge">
<title>22&#45;&gt;21</title>
<path fill="none" stroke="#000000" d="M198.2854,-144.5708C194.0403,-136.0807 188.8464,-125.6929 184.1337,-116.2674"/>
<polygon fill="#000000" stroke="#000000" points="187.237,-114.6477 179.6343,-107.2687 180.976,-117.7782 187.237,-114.6477"/>
</g>
<!-- 23 -->
<g id="node10" class="node">
<title>23</title>
<ellipse fill="none" stroke="#000000" cx="243" cy="-90" rx="27" ry="18"/>
<text text-anchor="middle" x="243" y="-86.3" font-family="Arial" font-size="14.00" fill="#000000">23</text>
</g>
<!-- 22&#45;&gt;23 -->
<g id="edge9" class="edge">
<title>22&#45;&gt;23</title>
<path fill="none" stroke="#000000" d="M215.7146,-144.5708C219.9597,-136.0807 225.1536,-125.6929 229.8663,-116.2674"/>
<polygon fill="#000000" stroke="#000000" points="233.024,-117.7782 234.3657,-107.2687 226.763,-114.6477 233.024,-117.7782"/>
</g>
<!-- 26 -->
<g id="node12" class="node">
<title>26</title>
<ellipse fill="none" stroke="#000000" cx="387" cy="-162" rx="27" ry="18"/>
<text text-anchor="middle" x="387" y="-158.3" font-family="Arial" font-size="14.00" fill="#000000">26</text>
</g>
<!-- 28&#45;&gt;26 -->
<g id="edge11" class="edge">
<title>28&#45;&gt;26</title>
<path fill="none" stroke="#000000" d="M414.2854,-216.5708C410.0403,-208.0807 404.8464,-197.6929 400.1337,-188.2674"/>
<polygon fill="#000000" stroke="#000000" points="403.237,-186.6477 395.6343,-179.2687 396.976,-189.7782 403.237,-186.6477"/>
</g>
<!-- 30 -->
<g id="node15" class="node">
<title>30</title>
<ellipse fill="none" stroke="#000000" cx="459" cy="-162" rx="27" ry="18"/>
<text text-anchor="middle" x="459" y="-158.3" font-family="Arial" font-size="14.00" fill="#000000">30</text>
</g>
<!-- 28&#45;&gt;30 -->
<g id="edge14" class="edge">
<title>28&#45;&gt;30</title>
<path fill="none" stroke="#000000" d="M431.7146,-216.5708C435.9597,-208.0807 441.1536,-197.6929 445.8663,-188.2674"/>
<polygon fill="#000000" stroke="#000000" points="449.024,-189.7782 450.3657,-179.2687 442.763,-186.6477 449.024,-189.7782"/>
</g>
<!-- 25 -->
<g id="node13" class="node">
<title>25</title>
<ellipse fill="none" stroke="#000000" cx="315" cy="-90" rx="27" ry="18"/>
<text text-anchor="middle" x="315" y="-86.3" font-family="Arial" font-size="14.00" fill="#000000">25</text>
</g>
<!-- 26&#45;&gt;25 -->
<g id="edge12" class="edge">
<title>26&#45;&gt;25</title>
<path fill="none" stroke="#000000" d="M371.7307,-146.7307C361.803,-136.803 348.6847,-123.6847 337.5637,-112.5637"/>
<polygon fill="#000000" stroke="#000000" points="339.7933,-109.8436 330.2473,-105.2473 334.8436,-114.7933 339.7933,-109.8436"/>
</g>
<!-- 27 -->
<g id="node14" class="node">
<title>27</title>
<ellipse fill="none" stroke="#000000" cx="387" cy="-90" rx="27" ry="18"/>
<text text-anchor="middle" x="387" y="-86.3" font-family="Arial" font-size="14.00" fill="#000000">27</text>
</g>
<!-- 26&#45;&gt;27 -->
<g id="edge13" class="edge">
<title>26&#45;&gt;27</title>
<path fill="none" stroke="#000000" d="M387,-143.8314C387,-136.131 387,-126.9743 387,-118.4166"/>
<polygon fill="#000000" stroke="#000000" points="390.5001,-118.4132 387,-108.4133 383.5001,-118.4133 390.5001,-118.4132"/>
</g>
<!-- 29 -->
<g id="node16" class="node">
<title>29</title>
<ellipse fill="none" stroke="#000000" cx="459" cy="-90" rx="27" ry="18"/>
<text text-anchor="middle" x="459" y="-86.3" font-family="Arial" font-size="14.00" fill="#000000">29</text>
</g>
<!-- 30&#45;&gt;29 -->
<g id="edge15" class="edge">
<title>30&#45;&gt;29</title>
<path fill="none" stroke="#000000" d="M459,-143.8314C459,-136.131 459,-126.9743 459,-118.4166"/>
<polygon fill="#000000" stroke="#000000" points="462.5001,-118.4132 459,-108.4133 455.5001,-118.4133 462.5001,-118.4132"/>
</g>
<!-- 31 -->
<g id="node17" class="node">
<title>31</title>
<ellipse fill="none" stroke="#000000" cx="531" cy="-90" rx="27" ry="18"/>
<text text-anchor="middle" x="531" y="-86.3" font-family="Arial" font-size="14.00" fill="#000000">31</text>
</g>
<!-- 30&#45;&gt;31 -->
<g id="edge16" class="edge">
<title>30&#45;&gt;31</title>
<path fill="none" stroke="#000000" d="M474.2693,-146.7307C484.197,-136.803 497.3153,-123.6847 508.4363,-112.5637"/>
<polygon fill="#000000" stroke="#000000" points="511.1564,-114.7933 515.7527,-105.2473 506.2067,-109.8436 511.1564,-114.7933"/>
</g>
<!-- 36 -->
<g id="node19" class="node">
<title>36</title>
<ellipse fill="none" stroke="#000000" cx="801" cy="-234" rx="27" ry="18"/>
<text text-anchor="middle" x="801" y="-230.3" font-family="Arial" font-size="14.00" fill="#000000">36</text>
</g>
<!-- 40&#45;&gt;36 -->
<g id="edge18" class="edge">
<title>40&#45;&gt;36</title>
<path fill="none" stroke="#000000" d="M828.2854,-288.5708C824.0403,-280.0807 818.8464,-269.6929 814.1337,-260.2674"/>
<polygon fill="#000000" stroke="#000000" points="817.237,-258.6477 809.6343,-251.2687 810.976,-261.7782 817.237,-258.6477"/>
</g>
<!-- 44 -->
<g id="node26" class="node">
<title>44</title>
<ellipse fill="none" stroke="#000000" cx="909" cy="-234" rx="27" ry="18"/>
<text text-anchor="middle" x="909" y="-230.3" font-family="Arial" font-size="14.00" fill="#000000">44</text>
</g>
<!-- 40&#45;&gt;44 -->
<g id="edge25" class="edge">
<title>40&#45;&gt;44</title>
<path fill="none" stroke="#000000" d="M852.2693,-290.7307C862.197,-280.803 875.3153,-267.6847 886.4363,-256.5637"/>
<polygon fill="#000000" stroke="#000000" points="889.1564,-258.7933 893.7527,-249.2473 884.2067,-253.8436 889.1564,-258.7933"/>
</g>
<!-- 34 -->
<g id="node20" class="node">
<title>34</title>
<ellipse fill="none" stroke="#000000" cx="675" cy="-162" rx="27" ry="18"/>
<text text-anchor="middle" x="675" y="-158.3" font-family="Arial" font-size="14.00" fill="#000000">34</text>
</g>
<!-- 36&#45;&gt;34 -->
<g id="edge19" class="edge">
<title>36&#45;&gt;34</title>
<path fill="none" stroke="#000000" d="M780.4755,-222.2717C759.7908,-210.4519 727.6713,-192.0979 704.3091,-178.7481"/>
<polygon fill="#000000" stroke="#000000" points="705.9347,-175.6459 695.5157,-173.7233 702.4617,-181.7236 705.9347,-175.6459"/>
</g>
<!-- 38 -->
<g id="node23" class="node">
<title>38</title>
<ellipse fill="none" stroke="#000000" cx="801" cy="-162" rx="27" ry="18"/>
<text text-anchor="middle" x="801" y="-158.3" font-family="Arial" font-size="14.00" fill="#000000">38</text>
</g>
<!-- 36&#45;&gt;38 -->
<g id="edge22" class="edge">
<title>36&#45;&gt;38</title>
<path fill="none" stroke="#000000" d="M801,-215.8314C801,-208.131 801,-198.9743 801,-190.4166"/>
<polygon fill="#000000" stroke="#000000" points="804.5001,-190.4132 801,-180.4133 797.5001,-190.4133 804.5001,-190.4132"/>
</g>
<!-- 33 -->
<g id="node21" class="node">
<title>33</title>
<ellipse fill="none" stroke="#000000" cx="603" cy="-90" rx="27" ry="18"/>
<text text-anchor="middle" x="603" y="-86.3" font-family="Arial" font-size="14.00" fill="#000000">33</text>
</g>
<!-- 34&#45;&gt;33 -->
<g id="edge20" class="edge">
<title>34&#45;&gt;33</title>
<path fill="none" stroke="#000000" d="M659.7307,-146.7307C649.803,-136.803 636.6847,-123.6847 625.5637,-112.5637"/>
<polygon fill="#000000" stroke="#000000" points="627.7933,-109.8436 618.2473,-105.2473 622.8436,-114.7933 627.7933,-109.8436"/>
</g>
<!-- 35 -->
<g id="node22" class="node">
<title>35</title>
<ellipse fill="none" stroke="#000000" cx="675" cy="-90" rx="27" ry="18"/>
<text text-anchor="middle" x="675" y="-86.3" font-family="Arial" font-size="14.00" fill="#000000">35</text>
</g>
<!-- 34&#45;&gt;35 -->
<g id="edge21" class="edge">
<title>34&#45;&gt;35</title>
<path fill="none" stroke="#000000" d="M675,-143.8314C675,-136.131 675,-126.9743 675,-118.4166"/>
<polygon fill="#000000" stroke="#000000" points="678.5001,-118.4132 675,-108.4133 671.5001,-118.4133 678.5001,-118.4132"/>
</g>
<!-- 37 -->
<g id="node24" class="node">
<title>37</title>
<ellipse fill="none" stroke="#000000" cx="747" cy="-90" rx="27" ry="18"/>
<text text-anchor="middle" x="747" y="-86.3" font-family="Arial" font-size="14.00" fill="#000000">37</text>
</g>
<!-- 38&#45;&gt;37 -->
<g id="edge23" class="edge">
<title>38&#45;&gt;37</title>
<path fill="none" stroke="#000000" d="M788.7466,-145.6621C781.8423,-136.4564 773.0823,-124.7764 765.3715,-114.4953"/>
<polygon fill="#000000" stroke="#000000" points="768.005,-112.1733 759.2049,-106.2733 762.405,-116.3733 768.005,-112.1733"/>
</g>
<!-- 39 -->
<g id="node25" class="node">
<title>39</title>
<ellipse fill="none" stroke="#000000" cx="819" cy="-90" rx="27" ry="18"/>
<text text-anchor="middle" x="819" y="-86.3" font-family="Arial" font-size="14.00" fill="#000000">39</text>
</g>
<!-- 38&#45;&gt;39 -->
<g id="edge24" class="edge">
<title>38&#45;&gt;39</title>
<path fill="none" stroke="#000000" d="M805.4494,-144.2022C807.4398,-136.2406 809.8332,-126.6671 812.0511,-117.7957"/>
<polygon fill="#000000" stroke="#000000" points="815.5094,-118.3929 814.5394,-107.8425 808.7184,-116.6951 815.5094,-118.3929"/>
</g>
<!-- 42 -->
<g id="node27" class="node">
<title>42</title>
<ellipse fill="none" stroke="#000000" cx="909" cy="-162" rx="27" ry="18"/>
<text text-anchor="middle" x="909" y="-158.3" font-family="Arial" font-size="14.00" fill="#000000">42</text>
</g>
<!-- 44&#45;&gt;42 -->
<g id="edge26" class="edge">
<title>44&#45;&gt;42</title>
<path fill="none" stroke="#000000" d="M909,-215.8314C909,-208.131 909,-198.9743 909,-190.4166"/>
<polygon fill="#000000" stroke="#000000" points="912.5001,-190.4132 909,-180.4133 905.5001,-190.4133 912.5001,-190.4132"/>
</g>
<!-- 46 -->
<g id="node30" class="node">
<title>46</title>
<ellipse fill="none" stroke="#000000" cx="1035" cy="-162" rx="27" ry="18"/>
<text text-anchor="middle" x="1035" y="-158.3" font-family="Arial" font-size="14.00" fill="#000000">46</text>
</g>
<!-- 44&#45;&gt;46 -->
<g id="edge29" class="edge">
<title>44&#45;&gt;46</title>
<path fill="none" stroke="#000000" d="M929.5245,-222.2717C950.2092,-210.4519 982.3287,-192.0979 1005.6909,-178.7481"/>
<polygon fill="#000000" stroke="#000000" points="1007.5383,-181.7236 1014.4843,-173.7233 1004.0653,-175.6459 1007.5383,-181.7236"/>
</g>
<!-- 41 -->
<g id="node28" class="node">
<title>41</title>
<ellipse fill="none" stroke="#000000" cx="891" cy="-90" rx="27" ry="18"/>
<text text-anchor="middle" x="891" y="-86.3" font-family="Arial" font-size="14.00" fill="#000000">41</text>
</g>
<!-- 42&#45;&gt;41 -->
<g id="edge27" class="edge">
<title>42&#45;&gt;41</title>
<path fill="none" stroke="#000000" d="M904.5506,-144.2022C902.5602,-136.2406 900.1668,-126.6671 897.9489,-117.7957"/>
<polygon fill="#000000" stroke="#000000" points="901.2816,-116.6951 895.4606,-107.8425 894.4906,-118.3929 901.2816,-116.6951"/>
</g>
<!-- 43 -->
<g id="node29" class="node">
<title>43</title>
<ellipse fill="none" stroke="#000000" cx="963" cy="-90" rx="27" ry="18"/>
<text text-anchor="middle" x="963" y="-86.3" font-family="Arial" font-size="14.00" fill="#000000">43</text>
</g>
<!-- 42&#45;&gt;43 -->
<g id="edge28" class="edge">
<title>42&#45;&gt;43</title>
<path fill="none" stroke="#000000" d="M921.2534,-145.6621C928.1577,-136.4564 936.9177,-124.7764 944.6285,-114.4953"/>
<polygon fill="#000000" stroke="#000000" points="947.595,-116.3733 950.7951,-106.2733 941.995,-112.1733 947.595,-116.3733"/>
</g>
<!-- 45 -->
<g id="node31" class="node">
<title>45</title>
<ellipse fill="none" stroke="#000000" cx="1035" cy="-90" rx="27" ry="18"/>
<text text-anchor="middle" x="1035" y="-86.3" font-family="Arial" font-size="14.00" fill="#000000">45</text>
</g>
<!-- 46&#45;&gt;45 -->
<g id="edge30" class="edge">
<title>46&#45;&gt;45</title>
<path fill="none" stroke="#000000" d="M1035,-143.8314C1035,-136.131 1035,-126.9743 1035,-118.4166"/>
<polygon fill="#000000" stroke="#000000" points="1038.5001,-118.4132 1035,-108.4133 1031.5001,-118.4133 1038.5001,-118.4132"/>
</g>
<!-- 47 -->
<g id="node32" class="node">
<title>47</title>
<ellipse fill="none" stroke="#000000" cx="1107" cy="-90" rx="27" ry="18"/>
<text text-anchor="middle" x="1107" y="-86.3" font-family="Arial" font-size="14.00" fill="#000000">47</text>
</g>
<!-- 46&#45;&gt;47 -->
<g id="edge31" class="edge">
<title>46&#45;&gt;47</title>
<path fill="none" stroke="#000000" d="M1050.2693,-146.7307C1060.197,-136.803 1073.3153,-123.6847 1084.4363,-112.5637"/>
<polygon fill="#000000" stroke="#000000" points="1087.1564,-114.7933 1091.7527,-105.2473 1082.2067,-109.8436 1087.1564,-114.7933"/>
</g>
<!-- 56 -->
<g id="node34" class="node">
<title>56</title>
<ellipse fill="none" stroke="#000000" cx="1431" cy="-306" rx="27" ry="18"/>
<text text-anchor="middle" x="1431" y="-302.3" font-family="Arial" font-size="14.00" fill="#000000">56</text>
</g>
<!-- 64&#45;&gt;56 -->
<g id="edge33" class="edge">
<title>64&#45;&gt;56</title>
<path fill="none" stroke="#000000" d="M1431,-359.8314C1431,-352.131 1431,-342.9743 1431,-334.4166"/>
<polygon fill="#000000" stroke="#000000" points="1434.5001,-334.4132 1431,-324.4133 1427.5001,-334.4133 1434.5001,-334.4132"/>
</g>
<!-- 112 -->
<g id="node49" class="node">
<title>112</title>
<ellipse fill="none" stroke="#000000" cx="1863" cy="-306" rx="27" ry="18"/>
<text text-anchor="middle" x="1863" y="-302.3" font-family="Arial" font-size="14.00" fill="#000000">112</text>
</g>
<!-- 64&#45;&gt;112 -->
<g id="edge48" class="edge">
<title>64&#45;&gt;112</title>
<path fill="none" stroke="#000000" d="M1457.3732,-373.6045C1531.4965,-361.2506 1741.7948,-326.2009 1826.7421,-312.043"/>
<polygon fill="#000000" stroke="#000000" points="1827.4096,-315.4801 1836.6981,-310.3836 1826.2587,-308.5753 1827.4096,-315.4801"/>
</g>
<!-- 52 -->
<g id="node35" class="node">
<title>52</title>
<ellipse fill="none" stroke="#000000" cx="1359" cy="-234" rx="27" ry="18"/>
<text text-anchor="middle" x="1359" y="-230.3" font-family="Arial" font-size="14.00" fill="#000000">52</text>
</g>
<!-- 56&#45;&gt;52 -->
<g id="edge34" class="edge">
<title>56&#45;&gt;52</title>
<path fill="none" stroke="#000000" d="M1415.7307,-290.7307C1405.803,-280.803 1392.6847,-267.6847 1381.5637,-256.5637"/>
<polygon fill="#000000" stroke="#000000" points="1383.7933,-253.8436 1374.2473,-249.2473 1378.8436,-258.7933 1383.7933,-253.8436"/>
</g>
<!-- 60 -->
<g id="node42" class="node">
<title>60</title>
<ellipse fill="none" stroke="#000000" cx="1503" cy="-234" rx="27" ry="18"/>
<text text-anchor="middle" x="1503" y="-230.3" font-family="Arial" font-size="14.00" fill="#000000">60</text>
</g>
<!-- 56&#45;&gt;60 -->
<g id="edge41" class="edge">
<title>56&#45;&gt;60</title>
<path fill="none" stroke="#000000" d="M1446.2693,-290.7307C1456.197,-280.803 1469.3153,-267.6847 1480.4363,-256.5637"/>
<polygon fill="#000000" stroke="#000000" points="1483.1564,-258.7933 1487.7527,-249.2473 1478.2067,-253.8436 1483.1564,-258.7933"/>
</g>
<!-- 50 -->
<g id="node36" class="node">
<title>50</title>
<ellipse fill="none" stroke="#000000" cx="1251" cy="-162" rx="27" ry="18"/>
<text text-anchor="middle" x="1251" y="-158.3" font-family="Arial" font-size="14.00" fill="#000000">50</text>
</g>
<!-- 52&#45;&gt;50 -->
<g id="edge35" class="edge">
<title>52&#45;&gt;50</title>
<path fill="none" stroke="#000000" d="M1339.6918,-221.1278C1322.6445,-209.763 1297.5981,-193.0654 1278.4656,-180.3104"/>
<polygon fill="#000000" stroke="#000000" points="1280.4031,-177.3956 1270.1411,-174.7607 1276.5201,-183.2199 1280.4031,-177.3956"/>
</g>
<!-- 54 -->
<g id="node39" class="node">
<title>54</title>
<ellipse fill="none" stroke="#000000" cx="1359" cy="-162" rx="27" ry="18"/>
<text text-anchor="middle" x="1359" y="-158.3" font-family="Arial" font-size="14.00" fill="#000000">54</text>
</g>
<!-- 52&#45;&gt;54 -->
<g id="edge38" class="edge">
<title>52&#45;&gt;54</title>
<path fill="none" stroke="#000000" d="M1359,-215.8314C1359,-208.131 1359,-198.9743 1359,-190.4166"/>
<polygon fill="#000000" stroke="#000000" points="1362.5001,-190.4132 1359,-180.4133 1355.5001,-190.4133 1362.5001,-190.4132"/>
</g>
<!-- 49 -->
<g id="node37" class="node">
<title>49</title>
<ellipse fill="none" stroke="#000000" cx="1179" cy="-90" rx="27" ry="18"/>
<text text-anchor="middle" x="1179" y="-86.3" font-family="Arial" font-size="14.00" fill="#000000">49</text>
</g>
<!-- 50&#45;&gt;49 -->
<g id="edge36" class="edge">
<title>50&#45;&gt;49</title>
<path fill="none" stroke="#000000" d="M1235.7307,-146.7307C1225.803,-136.803 1212.6847,-123.6847 1201.5637,-112.5637"/>
<polygon fill="#000000" stroke="#000000" points="1203.7933,-109.8436 1194.2473,-105.2473 1198.8436,-114.7933 1203.7933,-109.8436"/>
</g>
<!-- 51 -->
<g id="node38" class="node">
<title>51</title>
<ellipse fill="none" stroke="#000000" cx="1251" cy="-90" rx="27" ry="18"/>
<text text-anchor="middle" x="1251" y="-86.3" font-family="Arial" font-size="14.00" fill="#000000">51</text>
</g>
<!-- 50&#45;&gt;51 -->
<g id="edge37" class="edge">
<title>50&#45;&gt;51</title>
<path fill="none" stroke="#000000" d="M1251,-143.8314C1251,-136.131 1251,-126.9743 1251,-118.4166"/>
<polygon fill="#000000" stroke="#000000" points="1254.5001,-118.4132 1251,-108.4133 1247.5001,-118.4133 1254.5001,-118.4132"/>
</g>
<!-- 53 -->
<g id="node40" class="node">
<title>53</title>
<ellipse fill="none" stroke="#000000" cx="1323" cy="-90" rx="27" ry="18"/>
<text text-anchor="middle" x="1323" y="-86.3" font-family="Arial" font-size="14.00" fill="#000000">53</text>
</g>
<!-- 54&#45;&gt;53 -->
<g id="edge39" class="edge">
<title>54&#45;&gt;53</title>
<path fill="none" stroke="#000000" d="M1350.2854,-144.5708C1346.0403,-136.0807 1340.8464,-125.6929 1336.1337,-116.2674"/>
<polygon fill="#000000" stroke="#000000" points="1339.237,-114.6477 1331.6343,-107.2687 1332.976,-117.7782 1339.237,-114.6477"/>
</g>
<!-- 55 -->
<g id="node41" class="node">
<title>55</title>
<ellipse fill="none" stroke="#000000" cx="1395" cy="-90" rx="27" ry="18"/>
<text text-anchor="middle" x="1395" y="-86.3" font-family="Arial" font-size="14.00" fill="#000000">55</text>
</g>
<!-- 54&#45;&gt;55 -->
<g id="edge40" class="edge">
<title>54&#45;&gt;55</title>
<path fill="none" stroke="#000000" d="M1367.7146,-144.5708C1371.9597,-136.0807 1377.1536,-125.6929 1381.8663,-116.2674"/>
<polygon fill="#000000" stroke="#000000" points="1385.024,-117.7782 1386.3657,-107.2687 1378.763,-114.6477 1385.024,-117.7782"/>
</g>
<!-- 58 -->
<g id="node43" class="node">
<title>58</title>
<ellipse fill="none" stroke="#000000" cx="1503" cy="-162" rx="27" ry="18"/>
<text text-anchor="middle" x="1503" y="-158.3" font-family="Arial" font-size="14.00" fill="#000000">58</text>
</g>
<!-- 60&#45;&gt;58 -->
<g id="edge42" class="edge">
<title>60&#45;&gt;58</title>
<path fill="none" stroke="#000000" d="M1503,-215.8314C1503,-208.131 1503,-198.9743 1503,-190.4166"/>
<polygon fill="#000000" stroke="#000000" points="1506.5001,-190.4132 1503,-180.4133 1499.5001,-190.4133 1506.5001,-190.4132"/>
</g>
<!-- 62 -->
<g id="node46" class="node">
<title>62</title>
<ellipse fill="none" stroke="#000000" cx="1611" cy="-162" rx="27" ry="18"/>
<text text-anchor="middle" x="1611" y="-158.3" font-family="Arial" font-size="14.00" fill="#000000">62</text>
</g>
<!-- 60&#45;&gt;62 -->
<g id="edge45" class="edge">
<title>60&#45;&gt;62</title>
<path fill="none" stroke="#000000" d="M1522.3082,-221.1278C1539.3555,-209.763 1564.4019,-193.0654 1583.5344,-180.3104"/>
<polygon fill="#000000" stroke="#000000" points="1585.4799,-183.2199 1591.8589,-174.7607 1581.5969,-177.3956 1585.4799,-183.2199"/>
</g>
<!-- 57 -->
<g id="node44" class="node">
<title>57</title>
<ellipse fill="none" stroke="#000000" cx="1467" cy="-90" rx="27" ry="18"/>
<text text-anchor="middle" x="1467" y="-86.3" font-family="Arial" font-size="14.00" fill="#000000">57</text>
</g>
<!-- 58&#45;&gt;57 -->
<g id="edge43" class="edge">
<title>58&#45;&gt;57</title>
<path fill="none" stroke="#000000" d="M1494.2854,-144.5708C1490.0403,-136.0807 1484.8464,-125.6929 1480.1337,-116.2674"/>
<polygon fill="#000000" stroke="#000000" points="1483.237,-114.6477 1475.6343,-107.2687 1476.976,-117.7782 1483.237,-114.6477"/>
</g>
<!-- 59 -->
<g id="node45" class="node">
<title>59</title>
<ellipse fill="none" stroke="#000000" cx="1539" cy="-90" rx="27" ry="18"/>
<text text-anchor="middle" x="1539" y="-86.3" font-family="Arial" font-size="14.00" fill="#000000">59</text>
</g>
<!-- 58&#45;&gt;59 -->
<g id="edge44" class="edge">
<title>58&#45;&gt;59</title>
<path fill="none" stroke="#000000" d="M1511.7146,-144.5708C1515.9597,-136.0807 1521.1536,-125.6929 1525.8663,-116.2674"/>
<polygon fill="#000000" stroke="#000000" points="1529.024,-117.7782 1530.3657,-107.2687 1522.763,-114.6477 1529.024,-117.7782"/>
</g>
<!-- 61 -->
<g id="node47" class="node">
<title>61</title>
<ellipse fill="none" stroke="#000000" cx="1611" cy="-90" rx="27" ry="18"/>
<text text-anchor="middle" x="1611" y="-86.3" font-family="Arial" font-size="14.00" fill="#000000">61</text>
</g>
<!-- 62&#45;&gt;61 -->
<g id="edge46" class="edge">
<title>62&#45;&gt;61</title>
<path fill="none" stroke="#000000" d="M1611,-143.8314C1611,-136.131 1611,-126.9743 1611,-118.4166"/>
<polygon fill="#000000" stroke="#000000" points="1614.5001,-118.4132 1611,-108.4133 1607.5001,-118.4133 1614.5001,-118.4132"/>
</g>
<!-- 63 -->
<g id="node48" class="node">
<title>63</title>
<ellipse fill="none" stroke="#000000" cx="1683" cy="-90" rx="27" ry="18"/>
<text text-anchor="middle" x="1683" y="-86.3" font-family="Arial" font-size="14.00" fill="#000000">63</text>
</g>
<!-- 62&#45;&gt;63 -->
<g id="edge47" class="edge">
<title>62&#45;&gt;63</title>
<path fill="none" stroke="#000000" d="M1626.2693,-146.7307C1636.197,-136.803 1649.3153,-123.6847 1660.4363,-112.5637"/>
<polygon fill="#000000" stroke="#000000" points="1663.1564,-114.7933 1667.7527,-105.2473 1658.2067,-109.8436 1663.1564,-114.7933"/>
</g>
<!-- 81 -->
<g id="node50" class="node">
<title>81</title>
<ellipse fill="none" stroke="#000000" cx="1863" cy="-234" rx="27" ry="18"/>
<text text-anchor="middle" x="1863" y="-230.3" font-family="Arial" font-size="14.00" fill="#000000">81</text>
</g>
<!-- 112&#45;&gt;81 -->
<g id="edge49" class="edge">
<title>112&#45;&gt;81</title>
<path fill="none" stroke="#000000" d="M1863,-287.8314C1863,-280.131 1863,-270.9743 1863,-262.4166"/>
<polygon fill="#000000" stroke="#000000" points="1866.5001,-262.4132 1863,-252.4133 1859.5001,-262.4133 1866.5001,-262.4132"/>
</g>
<!-- 123 -->
<g id="node57" class="node">
<title>123</title>
<ellipse fill="none" stroke="#000000" cx="2079" cy="-234" rx="27" ry="18"/>
<text text-anchor="middle" x="2079" y="-230.3" font-family="Arial" font-size="14.00" fill="#000000">123</text>
</g>
<!-- 112&#45;&gt;123 -->
<g id="edge56" class="edge">
<title>112&#45;&gt;123</title>
<path fill="none" stroke="#000000" d="M1887.3581,-297.8806C1925.947,-285.0177 2001.2439,-259.9187 2045.0896,-245.3035"/>
<polygon fill="#000000" stroke="#000000" points="2046.3509,-248.5724 2054.7309,-242.0897 2044.1373,-241.9316 2046.3509,-248.5724"/>
</g>
<!-- 66 -->
<g id="node51" class="node">
<title>66</title>
<ellipse fill="none" stroke="#000000" cx="1827" cy="-162" rx="27" ry="18"/>
<text text-anchor="middle" x="1827" y="-158.3" font-family="Arial" font-size="14.00" fill="#000000">66</text>
</g>
<!-- 81&#45;&gt;66 -->
<g id="edge50" class="edge">
<title>81&#45;&gt;66</title>
<path fill="none" stroke="#000000" d="M1854.2854,-216.5708C1850.0403,-208.0807 1844.8464,-197.6929 1840.1337,-188.2674"/>
<polygon fill="#000000" stroke="#000000" points="1843.237,-186.6477 1835.6343,-179.2687 1836.976,-189.7782 1843.237,-186.6477"/>
</g>
<!-- 96 -->
<g id="node54" class="node">
<title>96</title>
<ellipse fill="none" stroke="#000000" cx="1899" cy="-162" rx="27" ry="18"/>
<text text-anchor="middle" x="1899" y="-158.3" font-family="Arial" font-size="14.00" fill="#000000">96</text>
</g>
<!-- 81&#45;&gt;96 -->
<g id="edge53" class="edge">
<title>81&#45;&gt;96</title>
<path fill="none" stroke="#000000" d="M1871.7146,-216.5708C1875.9597,-208.0807 1881.1536,-197.6929 1885.8663,-188.2674"/>
<polygon fill="#000000" stroke="#000000" points="1889.024,-189.7782 1890.3657,-179.2687 1882.763,-186.6477 1889.024,-189.7782"/>
</g>
<!-- 65 -->
<g id="node52" class="node">
<title>65</title>
<ellipse fill="none" stroke="#000000" cx="1755" cy="-90" rx="27" ry="18"/>
<text text-anchor="middle" x="1755" y="-86.3" font-family="Arial" font-size="14.00" fill="#000000">65</text>
</g>
<!-- 66&#45;&gt;65 -->
<g id="edge51" class="edge">
<title>66&#45;&gt;65</title>
<path fill="none" stroke="#000000" d="M1811.7307,-146.7307C1801.803,-136.803 1788.6847,-123.6847 1777.5637,-112.5637"/>
<polygon fill="#000000" stroke="#000000" points="1779.7933,-109.8436 1770.2473,-105.2473 1774.8436,-114.7933 1779.7933,-109.8436"/>
</g>
<!-- 80 -->
<g id="node53" class="node">
<title>80</title>
<ellipse fill="none" stroke="#000000" cx="1827" cy="-90" rx="27" ry="18"/>
<text text-anchor="middle" x="1827" y="-86.3" font-family="Arial" font-size="14.00" fill="#000000">80</text>
</g>
<!-- 66&#45;&gt;80 -->
<g id="edge52" class="edge">
<title>66&#45;&gt;80</title>
<path fill="none" stroke="#000000" d="M1827,-143.8314C1827,-136.131 1827,-126.9743 1827,-118.4166"/>
<polygon fill="#000000" stroke="#000000" points="1830.5001,-118.4132 1827,-108.4133 1823.5001,-118.4133 1830.5001,-118.4132"/>
</g>
<!-- 88 -->
<g id="node55" class="node">
<title>88</title>
<ellipse fill="none" stroke="#000000" cx="1899" cy="-90" rx="27" ry="18"/>
<text text-anchor="middle" x="1899" y="-86.3" font-family="Arial" font-size="14.00" fill="#000000">88</text>
</g>
<!-- 96&#45;&gt;88 -->
<g id="edge54" class="edge">
<title>96&#45;&gt;88</title>
<path fill="none" stroke="#000000" d="M1899,-143.8314C1899,-136.131 1899,-126.9743 1899,-118.4166"/>
<polygon fill="#000000" stroke="#000000" points="1902.5001,-118.4132 1899,-108.4133 1895.5001,-118.4133 1902.5001,-118.4132"/>
</g>
<!-- 110 -->
<g id="node56" class="node">
<title>110</title>
<ellipse fill="none" stroke="#000000" cx="1971" cy="-90" rx="27" ry="18"/>
<text text-anchor="middle" x="1971" y="-86.3" font-family="Arial" font-size="14.00" fill="#000000">110</text>
</g>
<!-- 96&#45;&gt;110 -->
<g id="edge55" class="edge">
<title>96&#45;&gt;110</title>
<path fill="none" stroke="#000000" d="M1914.2693,-146.7307C1924.197,-136.803 1937.3153,-123.6847 1948.4363,-112.5637"/>
<polygon fill="#000000" stroke="#000000" points="1951.1564,-114.7933 1955.7527,-105.2473 1946.2067,-109.8436 1951.1564,-114.7933"/>
</g>
<!-- 121 -->
<g id="node58" class="node">
<title>121</title>
<ellipse fill="none" stroke="#000000" cx="2079" cy="-162" rx="27" ry="18"/>
<text text-anchor="middle" x="2079" y="-158.3" font-family="Arial" font-size="14.00" fill="#000000">121</text>
</g>
<!-- 123&#45;&gt;121 -->
<g id="edge57" class="edge">
<title>123&#45;&gt;121</title>
<path fill="none" stroke="#000000" d="M2079,-215.8314C2079,-208.131 2079,-198.9743 2079,-190.4166"/>
<polygon fill="#000000" stroke="#000000" points="2082.5001,-190.4132 2079,-180.4133 2075.5001,-190.4133 2082.5001,-190.4132"/>
</g>
<!-- 125 -->
<g id="node61" class="node">
<title>125</title>
<ellipse fill="none" stroke="#000000" cx="2187" cy="-162" rx="27" ry="18"/>
<text text-anchor="middle" x="2187" y="-158.3" font-family="Arial" font-size="14.00" fill="#000000">125</text>
</g>
<!-- 123&#45;&gt;125 -->
<g id="edge60" class="edge">
<title>123&#45;&gt;125</title>
<path fill="none" stroke="#000000" d="M2098.3082,-221.1278C2115.3555,-209.763 2140.4019,-193.0654 2159.5344,-180.3104"/>
<polygon fill="#000000" stroke="#000000" points="2161.4799,-183.2199 2167.8589,-174.7607 2157.5969,-177.3956 2161.4799,-183.2199"/>
</g>
<!-- 120 -->
<g id="node59" class="node">
<title>120</title>
<ellipse fill="none" stroke="#000000" cx="2043" cy="-90" rx="27" ry="18"/>
<text text-anchor="middle" x="2043" y="-86.3" font-family="Arial" font-size="14.00" fill="#000000">120</text>
</g>
<!-- 121&#45;&gt;120 -->
<g id="edge58" class="edge">
<title>121&#45;&gt;120</title>
<path fill="none" stroke="#000000" d="M2070.2854,-144.5708C2066.0403,-136.0807 2060.8464,-125.6929 2056.1337,-116.2674"/>
<polygon fill="#000000" stroke="#000000" points="2059.237,-114.6477 2051.6343,-107.2687 2052.976,-117.7782 2059.237,-114.6477"/>
</g>
<!-- 122 -->
<g id="node60" class="node">
<title>122</title>
<ellipse fill="none" stroke="#000000" cx="2115" cy="-90" rx="27" ry="18"/>
<text text-anchor="middle" x="2115" y="-86.3" font-family="Arial" font-size="14.00" fill="#000000">122</text>
</g>
<!-- 121&#45;&gt;122 -->
<g id="edge59" class="edge">
<title>121&#45;&gt;122</title>
<path fill="none" stroke="#000000" d="M2087.7146,-144.5708C2091.9597,-136.0807 2097.1536,-125.6929 2101.8663,-116.2674"/>
<polygon fill="#000000" stroke="#000000" points="2105.024,-117.7782 2106.3657,-107.2687 2098.763,-114.6477 2105.024,-117.7782"/>
</g>
<!-- 124 -->
<g id="node62" class="node">
<title>124</title>
<ellipse fill="none" stroke="#000000" cx="2187" cy="-90" rx="27" ry="18"/>
<text text-anchor="middle" x="2187" y="-86.3" font-family="Arial" font-size="14.00" fill="#000000">124</text>
</g>
<!-- 125&#45;&gt;124 -->
<g id="edge61" class="edge">
<title>125&#45;&gt;124</title>
<path fill="none" stroke="#000000" d="M2187,-143.8314C2187,-136.131 2187,-126.9743 2187,-118.4166"/>
<polygon fill="#000000" stroke="#000000" points="2190.5001,-118.4132 2187,-108.4133 2183.5001,-118.4133 2190.5001,-118.4132"/>
</g>
<!-- 127 -->
<g id="node63" class="node">
<title>127</title>
<ellipse fill="none" stroke="#000000" cx="2259" cy="-90" rx="27" ry="18"/>
<text text-anchor="middle" x="2259" y="-86.3" font-family="Arial" font-size="14.00" fill="#000000">127</text>
</g>
<!-- 125&#45;&gt;127 -->
<g id="edge62" class="edge">
<title>125&#45;&gt;127</title>
<path fill="none" stroke="#000000" d="M2202.2693,-146.7307C2212.197,-136.803 2225.3153,-123.6847 2236.4363,-112.5637"/>
<polygon fill="#000000" stroke="#000000" points="2239.1564,-114.7933 2243.7527,-105.2473 2234.2067,-109.8436 2239.1564,-114.7933"/>
</g>
<!-- 126 -->
<g id="node64" class="node">
<title>126</title>
<ellipse fill="none" stroke="#000000" cx="2223" cy="-18" rx="27" ry="18"/>
<text text-anchor="middle" x="2223" y="-14.3" font-family="Arial" font-size="14.00" fill="#000000">126</text>
</g>
<!-- 127&#45;&gt;126 -->
<g id="edge63" class="edge">
<title>127&#45;&gt;126</title>
<path fill="none" stroke="#000000" d="M2250.2854,-72.5708C2246.0403,-64.0807 2240.8464,-53.6929 2236.1337,-44.2674"/>
<polygon fill="#000000" stroke="#000000" points="2239.237,-42.6477 2231.6343,-35.2687 2232.976,-45.7782 2239.237,-42.6477"/>
</g>
<!-- 128 -->
<g id="node65" class="node">
<title>128</title>
<ellipse fill="none" stroke="#000000" cx="2295" cy="-18" rx="27" ry="18"/>
<text text-anchor="middle" x="2295" y="-14.3" font-family="Arial" font-size="14.00" fill="#000000">128</text>
</g>
<!-- 127&#45;&gt;128 -->
<g id="edge64" class="edge">
<title>127&#45;&gt;128</title>
<path fill="none" stroke="#000000" d="M2267.7146,-72.5708C2271.9597,-64.0807 2277.1536,-53.6929 2281.8663,-44.2674"/>
<polygon fill="#000000" stroke="#000000" points="2285.024,-45.7782 2286.3657,-35.2687 2278.763,-42.6477 2285.024,-45.7782"/>
</g>
</g>
</svg>
