<?xml version="1.0" encoding="UTF-8" standalone="no"?>
<!DOCTYPE svg PUBLIC "-//W3C//DTD SVG 1.1//EN"
 "http://www.w3.org/Graphics/SVG/1.1/DTD/svg11.dtd">
<!-- Generated by graphviz version 2.40.1 (20161225.0304)
 -->
<!-- Title: BST Pages: 1 -->
<svg width="1466pt" height="620pt"
 viewBox="0.00 0.00 1466.00 620.00" xmlns="http://www.w3.org/2000/svg" xmlns:xlink="http://www.w3.org/1999/xlink">
<g id="graph0" class="graph" transform="scale(1 1) rotate(0) translate(4 616)">
<title>BST</title>
<polygon fill="#ffffff" stroke="transparent" points="-4,4 -4,-616 1462,-616 1462,4 -4,4"/>
<!-- 48 -->
<g id="node1" class="node">
<title>48</title>
<ellipse fill="none" stroke="#000000" cx="819" cy="-594" rx="27" ry="18"/>
<text text-anchor="middle" x="819" y="-590.3" font-family="Arial" font-size="14.00" fill="#000000">48</text>
</g>
<!-- 32 -->
<g id="node2" class="node">
<title>32</title>
<ellipse fill="none" stroke="#000000" cx="567" cy="-522" rx="27" ry="18"/>
<text text-anchor="middle" x="567" y="-518.3" font-family="Arial" font-size="14.00" fill="#000000">32</text>
</g>
<!-- 48&#45;&gt;32 -->
<g id="edge1" class="edge">
<title>48&#45;&gt;32</title>
<path fill="none" stroke="#000000" d="M793.916,-586.8331C748.6316,-573.8948 653.1586,-546.6167 601.6666,-531.9048"/>
<polygon fill="#000000" stroke="#000000" points="602.5594,-528.5198 591.9826,-529.1379 600.6363,-535.2505 602.5594,-528.5198"/>
</g>
<!-- 64 -->
<g id="node33" class="node">
<title>64</title>
<ellipse fill="none" stroke="#000000" cx="999" cy="-522" rx="27" ry="18"/>
<text text-anchor="middle" x="999" y="-518.3" font-family="Arial" font-size="14.00" fill="#000000">64</text>
</g>
<!-- 48&#45;&gt;64 -->
<g id="edge32" class="edge">
<title>48&#45;&gt;64</title>
<path fill="none" stroke="#000000" d="M842.1634,-584.7347C873.6687,-572.1325 930.2073,-549.5171 966.1018,-535.1593"/>
<polygon fill="#000000" stroke="#000000" points="967.6556,-538.3075 975.6404,-531.3438 965.0558,-531.8081 967.6556,-538.3075"/>
</g>
<!-- 29 -->
<g id="node3" class="node">
<title>29</title>
<ellipse fill="none" stroke="#000000" cx="315" cy="-450" rx="27" ry="18"/>
<text text-anchor="middle" x="315" y="-446.3" font-family="Arial" font-size="14.00" fill="#000000">29</text>
</g>
<!-- 32&#45;&gt;29 -->
<g id="edge2" class="edge">
<title>32&#45;&gt;29</title>
<path fill="none" stroke="#000000" d="M541.916,-514.8331C496.6316,-501.8948 401.1586,-474.6167 349.6666,-459.9048"/>
<polygon fill="#000000" stroke="#000000" points="350.5594,-456.5198 339.9826,-457.1379 348.6363,-463.2505 350.5594,-456.5198"/>
</g>
<!-- 40 -->
<g id="node18" class="node">
<title>40</title>
<ellipse fill="none" stroke="#000000" cx="567" cy="-450" rx="27" ry="18"/>
<text text-anchor="middle" x="567" y="-446.3" font-family="Arial" font-size="14.00" fill="#000000">40</text>
</g>
<!-- 32&#45;&gt;40 -->
<g id="edge17" class="edge">
<title>32&#45;&gt;40</title>
<path fill="none" stroke="#000000" d="M567,-503.8314C567,-496.131 567,-486.9743 567,-478.4166"/>
<polygon fill="#000000" stroke="#000000" points="570.5001,-478.4132 567,-468.4133 563.5001,-478.4133 570.5001,-478.4132"/>
</g>
<!-- 28 -->
<g id="node4" class="node">
<title>28</title>
<ellipse fill="none" stroke="#000000" cx="243" cy="-378" rx="27" ry="18"/>
<text text-anchor="middle" x="243" y="-374.3" font-family="Arial" font-size="14.00" fill="#000000">28</text>
</g>
<!-- 29&#45;&gt;28 -->
<g id="edge3" class="edge">
<title>29&#45;&gt;28</title>
<path fill="none" stroke="#000000" d="M299.7307,-434.7307C289.803,-424.803 276.6847,-411.6847 265.5637,-400.5637"/>
<polygon fill="#000000" stroke="#000000" points="267.7933,-397.8436 258.2473,-393.2473 262.8436,-402.7933 267.7933,-397.8436"/>
</g>
<!-- 30 -->
<g id="node16" class="node">
<title>30</title>
<ellipse fill="none" stroke="#000000" cx="315" cy="-378" rx="27" ry="18"/>
<text text-anchor="middle" x="315" y="-374.3" font-family="Arial" font-size="14.00" fill="#000000">30</text>
</g>
<!-- 29&#45;&gt;30 -->
<g id="edge15" class="edge">
<title>29&#45;&gt;30</title>
<path fill="none" stroke="#000000" d="M315,-431.8314C315,-424.131 315,-414.9743 315,-406.4166"/>
<polygon fill="#000000" stroke="#000000" points="318.5001,-406.4132 315,-396.4133 311.5001,-406.4133 318.5001,-406.4132"/>
</g>
<!-- 24 -->
<g id="node5" class="node">
<title>24</title>
<ellipse fill="none" stroke="#000000" cx="243" cy="-306" rx="27" ry="18"/>
<text text-anchor="middle" x="243" y="-302.3" font-family="Arial" font-size="14.00" fill="#000000">24</text>
</g>
<!-- 28&#45;&gt;24 -->
<g id="edge4" class="edge">
<title>28&#45;&gt;24</title>
<path fill="none" stroke="#000000" d="M243,-359.8314C243,-352.131 243,-342.9743 243,-334.4166"/>
<polygon fill="#000000" stroke="#000000" points="246.5001,-334.4132 243,-324.4133 239.5001,-334.4133 246.5001,-334.4132"/>
</g>
<!-- 20 -->
<g id="node6" class="node">
<title>20</title>
<ellipse fill="none" stroke="#000000" cx="171" cy="-234" rx="27" ry="18"/>
<text text-anchor="middle" x="171" y="-230.3" font-family="Arial" font-size="14.00" fill="#000000">20</text>
</g>
<!-- 24&#45;&gt;20 -->
<g id="edge5" class="edge">
<title>24&#45;&gt;20</title>
<path fill="none" stroke="#000000" d="M227.7307,-290.7307C217.803,-280.803 204.6847,-267.6847 193.5637,-256.5637"/>
<polygon fill="#000000" stroke="#000000" points="195.7933,-253.8436 186.2473,-249.2473 190.8436,-258.7933 195.7933,-253.8436"/>
</g>
<!-- 26 -->
<g id="node13" class="node">
<title>26</title>
<ellipse fill="none" stroke="#000000" cx="243" cy="-234" rx="27" ry="18"/>
<text text-anchor="middle" x="243" y="-230.3" font-family="Arial" font-size="14.00" fill="#000000">26</text>
</g>
<!-- 24&#45;&gt;26 -->
<g id="edge12" class="edge">
<title>24&#45;&gt;26</title>
<path fill="none" stroke="#000000" d="M243,-287.8314C243,-280.131 243,-270.9743 243,-262.4166"/>
<polygon fill="#000000" stroke="#000000" points="246.5001,-262.4132 243,-252.4133 239.5001,-262.4133 246.5001,-262.4132"/>
</g>
<!-- 16 -->
<g id="node7" class="node">
<title>16</title>
<ellipse fill="none" stroke="#000000" cx="99" cy="-162" rx="27" ry="18"/>
<text text-anchor="middle" x="99" y="-158.3" font-family="Arial" font-size="14.00" fill="#000000">16</text>
</g>
<!-- 20&#45;&gt;16 -->
<g id="edge6" class="edge">
<title>20&#45;&gt;16</title>
<path fill="none" stroke="#000000" d="M155.7307,-218.7307C145.803,-208.803 132.6847,-195.6847 121.5637,-184.5637"/>
<polygon fill="#000000" stroke="#000000" points="123.7933,-181.8436 114.2473,-177.2473 118.8436,-186.7933 123.7933,-181.8436"/>
</g>
<!-- 22 -->
<g id="node10" class="node">
<title>22</title>
<ellipse fill="none" stroke="#000000" cx="171" cy="-162" rx="27" ry="18"/>
<text text-anchor="middle" x="171" y="-158.3" font-family="Arial" font-size="14.00" fill="#000000">22</text>
</g>
<!-- 20&#45;&gt;22 -->
<g id="edge9" class="edge">
<title>20&#45;&gt;22</title>
<path fill="none" stroke="#000000" d="M171,-215.8314C171,-208.131 171,-198.9743 171,-190.4166"/>
<polygon fill="#000000" stroke="#000000" points="174.5001,-190.4132 171,-180.4133 167.5001,-190.4133 174.5001,-190.4132"/>
</g>
<!-- 0 -->
<g id="node8" class="node">
<title>0</title>
<ellipse fill="none" stroke="#000000" cx="27" cy="-90" rx="27" ry="18"/>
<text text-anchor="middle" x="27" y="-86.3" font-family="Arial" font-size="14.00" fill="#000000">0</text>
</g>
<!-- 16&#45;&gt;0 -->
<g id="edge7" class="edge">
<title>16&#45;&gt;0</title>
<path fill="none" stroke="#000000" d="M83.7307,-146.7307C73.803,-136.803 60.6847,-123.6847 49.5637,-112.5637"/>
<polygon fill="#000000" stroke="#000000" points="51.7933,-109.8436 42.2473,-105.2473 46.8436,-114.7933 51.7933,-109.8436"/>
</g>
<!-- 19 -->
<g id="node9" class="node">
<title>19</title>
<ellipse fill="none" stroke="#000000" cx="99" cy="-90" rx="27" ry="18"/>
<text text-anchor="middle" x="99" y="-86.3" font-family="Arial" font-size="14.00" fill="#000000">19</text>
</g>
<!-- 16&#45;&gt;19 -->
<g id="edge8" class="edge">
<title>16&#45;&gt;19</title>
<path fill="none" stroke="#000000" d="M99,-143.8314C99,-136.131 99,-126.9743 99,-118.4166"/>
<polygon fill="#000000" stroke="#000000" points="102.5001,-118.4132 99,-108.4133 95.5001,-118.4133 102.5001,-118.4132"/>
</g>
<!-- 21 -->
<g id="node11" class="node">
<title>21</title>
<ellipse fill="none" stroke="#000000" cx="171" cy="-90" rx="27" ry="18"/>
<text text-anchor="middle" x="171" y="-86.3" font-family="Arial" font-size="14.00" fill="#000000">21</text>
</g>
<!-- 22&#45;&gt;21 -->
<g id="edge10" class="edge">
<title>22&#45;&gt;21</title>
<path fill="none" stroke="#000000" d="M171,-143.8314C171,-136.131 171,-126.9743 171,-118.4166"/>
<polygon fill="#000000" stroke="#000000" points="174.5001,-118.4132 171,-108.4133 167.5001,-118.4133 174.5001,-118.4132"/>
</g>
<!-- 23 -->
<g id="node12" class="node">
<title>23</title>
<ellipse fill="none" stroke="#000000" cx="243" cy="-90" rx="27" ry="18"/>
<text text-anchor="middle" x="243" y="-86.3" font-family="Arial" font-size="14.00" fill="#000000">23</text>
</g>
<!-- 22&#45;&gt;23 -->
<g id="edge11" class="edge">
<title>22&#45;&gt;23</title>
<path fill="none" stroke="#000000" d="M186.2693,-146.7307C196.197,-136.803 209.3153,-123.6847 220.4363,-112.5637"/>
<polygon fill="#000000" stroke="#000000" points="223.1564,-114.7933 227.7527,-105.2473 218.2067,-109.8436 223.1564,-114.7933"/>
</g>
<!-- 25 -->
<g id="node14" class="node">
<title>25</title>
<ellipse fill="none" stroke="#000000" cx="243" cy="-162" rx="27" ry="18"/>
<text text-anchor="middle" x="243" y="-158.3" font-family="Arial" font-size="14.00" fill="#000000">25</text>
</g>
<!-- 26&#45;&gt;25 -->
<g id="edge13" class="edge">
<title>26&#45;&gt;25</title>
<path fill="none" stroke="#000000" d="M243,-215.8314C243,-208.131 243,-198.9743 243,-190.4166"/>
<polygon fill="#000000" stroke="#000000" points="246.5001,-190.4132 243,-180.4133 239.5001,-190.4133 246.5001,-190.4132"/>
</g>
<!-- 27 -->
<g id="node15" class="node">
<title>27</title>
<ellipse fill="none" stroke="#000000" cx="315" cy="-162" rx="27" ry="18"/>
<text text-anchor="middle" x="315" y="-158.3" font-family="Arial" font-size="14.00" fill="#000000">27</text>
</g>
<!-- 26&#45;&gt;27 -->
<g id="edge14" class="edge">
<title>26&#45;&gt;27</title>
<path fill="none" stroke="#000000" d="M258.2693,-218.7307C268.197,-208.803 281.3153,-195.6847 292.4363,-184.5637"/>
<polygon fill="#000000" stroke="#000000" points="295.1564,-186.7933 299.7527,-177.2473 290.2067,-181.8436 295.1564,-186.7933"/>
</g>
<!-- 31 -->
<g id="node17" class="node">
<title>31</title>
<ellipse fill="none" stroke="#000000" cx="315" cy="-306" rx="27" ry="18"/>
<text text-anchor="middle" x="315" y="-302.3" font-family="Arial" font-size="14.00" fill="#000000">31</text>
</g>
<!-- 30&#45;&gt;31 -->
<g id="edge16" class="edge">
<title>30&#45;&gt;31</title>
<path fill="none" stroke="#000000" d="M315,-359.8314C315,-352.131 315,-342.9743 315,-334.4166"/>
<polygon fill="#000000" stroke="#000000" points="318.5001,-334.4132 315,-324.4133 311.5001,-334.4133 318.5001,-334.4132"/>
</g>
<!-- 36 -->
<g id="node19" class="node">
<title>36</title>
<ellipse fill="none" stroke="#000000" cx="495" cy="-378" rx="27" ry="18"/>
<text text-anchor="middle" x="495" y="-374.3" font-family="Arial" font-size="14.00" fill="#000000">36</text>
</g>
<!-- 40&#45;&gt;36 -->
<g id="edge18" class="edge">
<title>40&#45;&gt;36</title>
<path fill="none" stroke="#000000" d="M551.7307,-434.7307C541.803,-424.803 528.6847,-411.6847 517.5637,-400.5637"/>
<polygon fill="#000000" stroke="#000000" points="519.7933,-397.8436 510.2473,-393.2473 514.8436,-402.7933 519.7933,-397.8436"/>
</g>
<!-- 44 -->
<g id="node26" class="node">
<title>44</title>
<ellipse fill="none" stroke="#000000" cx="639" cy="-378" rx="27" ry="18"/>
<text text-anchor="middle" x="639" y="-374.3" font-family="Arial" font-size="14.00" fill="#000000">44</text>
</g>
<!-- 40&#45;&gt;44 -->
<g id="edge25" class="edge">
<title>40&#45;&gt;44</title>
<path fill="none" stroke="#000000" d="M582.2693,-434.7307C592.197,-424.803 605.3153,-411.6847 616.4363,-400.5637"/>
<polygon fill="#000000" stroke="#000000" points="619.1564,-402.7933 623.7527,-393.2473 614.2067,-397.8436 619.1564,-402.7933"/>
</g>
<!-- 34 -->
<g id="node20" class="node">
<title>34</title>
<ellipse fill="none" stroke="#000000" cx="387" cy="-306" rx="27" ry="18"/>
<text text-anchor="middle" x="387" y="-302.3" font-family="Arial" font-size="14.00" fill="#000000">34</text>
</g>
<!-- 36&#45;&gt;34 -->
<g id="edge19" class="edge">
<title>36&#45;&gt;34</title>
<path fill="none" stroke="#000000" d="M475.6918,-365.1278C458.6445,-353.763 433.5981,-337.0654 414.4656,-324.3104"/>
<polygon fill="#000000" stroke="#000000" points="416.4031,-321.3956 406.1411,-318.7607 412.5201,-327.2199 416.4031,-321.3956"/>
</g>
<!-- 38 -->
<g id="node23" class="node">
<title>38</title>
<ellipse fill="none" stroke="#000000" cx="495" cy="-306" rx="27" ry="18"/>
<text text-anchor="middle" x="495" y="-302.3" font-family="Arial" font-size="14.00" fill="#000000">38</text>
</g>
<!-- 36&#45;&gt;38 -->
<g id="edge22" class="edge">
<title>36&#45;&gt;38</title>
<path fill="none" stroke="#000000" d="M495,-359.8314C495,-352.131 495,-342.9743 495,-334.4166"/>
<polygon fill="#000000" stroke="#000000" points="498.5001,-334.4132 495,-324.4133 491.5001,-334.4133 498.5001,-334.4132"/>
</g>
<!-- 33 -->
<g id="node21" class="node">
<title>33</title>
<ellipse fill="none" stroke="#000000" cx="315" cy="-234" rx="27" ry="18"/>
<text text-anchor="middle" x="315" y="-230.3" font-family="Arial" font-size="14.00" fill="#000000">33</text>
</g>
<!-- 34&#45;&gt;33 -->
<g id="edge20" class="edge">
<title>34&#45;&gt;33</title>
<path fill="none" stroke="#000000" d="M371.7307,-290.7307C361.803,-280.803 348.6847,-267.6847 337.5637,-256.5637"/>
<polygon fill="#000000" stroke="#000000" points="339.7933,-253.8436 330.2473,-249.2473 334.8436,-258.7933 339.7933,-253.8436"/>
</g>
<!-- 35 -->
<g id="node22" class="node">
<title>35</title>
<ellipse fill="none" stroke="#000000" cx="387" cy="-234" rx="27" ry="18"/>
<text text-anchor="middle" x="387" y="-230.3" font-family="Arial" font-size="14.00" fill="#000000">35</text>
</g>
<!-- 34&#45;&gt;35 -->
<g id="edge21" class="edge">
<title>34&#45;&gt;35</title>
<path fill="none" stroke="#000000" d="M387,-287.8314C387,-280.131 387,-270.9743 387,-262.4166"/>
<polygon fill="#000000" stroke="#000000" points="390.5001,-262.4132 387,-252.4133 383.5001,-262.4133 390.5001,-262.4132"/>
</g>
<!-- 37 -->
<g id="node24" class="node">
<title>37</title>
<ellipse fill="none" stroke="#000000" cx="459" cy="-234" rx="27" ry="18"/>
<text text-anchor="middle" x="459" y="-230.3" font-family="Arial" font-size="14.00" fill="#000000">37</text>
</g>
<!-- 38&#45;&gt;37 -->
<g id="edge23" class="edge">
<title>38&#45;&gt;37</title>
<path fill="none" stroke="#000000" d="M486.2854,-288.5708C482.0403,-280.0807 476.8464,-269.6929 472.1337,-260.2674"/>
<polygon fill="#000000" stroke="#000000" points="475.237,-258.6477 467.6343,-251.2687 468.976,-261.7782 475.237,-258.6477"/>
</g>
<!-- 39 -->
<g id="node25" class="node">
<title>39</title>
<ellipse fill="none" stroke="#000000" cx="531" cy="-234" rx="27" ry="18"/>
<text text-anchor="middle" x="531" y="-230.3" font-family="Arial" font-size="14.00" fill="#000000">39</text>
</g>
<!-- 38&#45;&gt;39 -->
<g id="edge24" class="edge">
<title>38&#45;&gt;39</title>
<path fill="none" stroke="#000000" d="M503.7146,-288.5708C507.9597,-280.0807 513.1536,-269.6929 517.8663,-260.2674"/>
<polygon fill="#000000" stroke="#000000" points="521.024,-261.7782 522.3657,-251.2687 514.763,-258.6477 521.024,-261.7782"/>
</g>
<!-- 42 -->
<g id="node27" class="node">
<title>42</title>
<ellipse fill="none" stroke="#000000" cx="639" cy="-306" rx="27" ry="18"/>
<text text-anchor="middle" x="639" y="-302.3" font-family="Arial" font-size="14.00" fill="#000000">42</text>
</g>
<!-- 44&#45;&gt;42 -->
<g id="edge26" class="edge">
<title>44&#45;&gt;42</title>
<path fill="none" stroke="#000000" d="M639,-359.8314C639,-352.131 639,-342.9743 639,-334.4166"/>
<polygon fill="#000000" stroke="#000000" points="642.5001,-334.4132 639,-324.4133 635.5001,-334.4133 642.5001,-334.4132"/>
</g>
<!-- 46 -->
<g id="node30" class="node">
<title>46</title>
<ellipse fill="none" stroke="#000000" cx="747" cy="-306" rx="27" ry="18"/>
<text text-anchor="middle" x="747" y="-302.3" font-family="Arial" font-size="14.00" fill="#000000">46</text>
</g>
<!-- 44&#45;&gt;46 -->
<g id="edge29" class="edge">
<title>44&#45;&gt;46</title>
<path fill="none" stroke="#000000" d="M658.3082,-365.1278C675.3555,-353.763 700.4019,-337.0654 719.5344,-324.3104"/>
<polygon fill="#000000" stroke="#000000" points="721.4799,-327.2199 727.8589,-318.7607 717.5969,-321.3956 721.4799,-327.2199"/>
</g>
<!-- 41 -->
<g id="node28" class="node">
<title>41</title>
<ellipse fill="none" stroke="#000000" cx="603" cy="-234" rx="27" ry="18"/>
<text text-anchor="middle" x="603" y="-230.3" font-family="Arial" font-size="14.00" fill="#000000">41</text>
</g>
<!-- 42&#45;&gt;41 -->
<g id="edge27" class="edge">
<title>42&#45;&gt;41</title>
<path fill="none" stroke="#000000" d="M630.2854,-288.5708C626.0403,-280.0807 620.8464,-269.6929 616.1337,-260.2674"/>
<polygon fill="#000000" stroke="#000000" points="619.237,-258.6477 611.6343,-251.2687 612.976,-261.7782 619.237,-258.6477"/>
</g>
<!-- 43 -->
<g id="node29" class="node">
<title>43</title>
<ellipse fill="none" stroke="#000000" cx="675" cy="-234" rx="27" ry="18"/>
<text text-anchor="middle" x="675" y="-230.3" font-family="Arial" font-size="14.00" fill="#000000">43</text>
</g>
<!-- 42&#45;&gt;43 -->
<g id="edge28" class="edge">
<title>42&#45;&gt;43</title>
<path fill="none" stroke="#000000" d="M647.7146,-288.5708C651.9597,-280.0807 657.1536,-269.6929 661.8663,-260.2674"/>
<polygon fill="#000000" stroke="#000000" points="665.024,-261.7782 666.3657,-251.2687 658.763,-258.6477 665.024,-261.7782"/>
</g>
<!-- 45 -->
<g id="node31" class="node">
<title>45</title>
<ellipse fill="none" stroke="#000000" cx="747" cy="-234" rx="27" ry="18"/>
<text text-anchor="middle" x="747" y="-230.3" font-family="Arial" font-size="14.00" fill="#000000">45</text>
</g>
<!-- 46&#45;&gt;45 -->
<g id="edge30" class="edge">
<title>46&#45;&gt;45</title>
<path fill="none" stroke="#000000" d="M747,-287.8314C747,-280.131 747,-270.9743 747,-262.4166"/>
<polygon fill="#000000" stroke="#000000" points="750.5001,-262.4132 747,-252.4133 743.5001,-262.4133 750.5001,-262.4132"/>
</g>
<!-- 47 -->
<g id="node32" class="node">
<title>47</title>
<ellipse fill="none" stroke="#000000" cx="819" cy="-234" rx="27" ry="18"/>
<text text-anchor="middle" x="819" y="-230.3" font-family="Arial" font-size="14.00" fill="#000000">47</text>
</g>
<!-- 46&#45;&gt;47 -->
<g id="edge31" class="edge">
<title>46&#45;&gt;47</title>
<path fill="none" stroke="#000000" d="M762.2693,-290.7307C772.197,-280.803 785.3153,-267.6847 796.4363,-256.5637"/>
<polygon fill="#000000" stroke="#000000" points="799.1564,-258.7933 803.7527,-249.2473 794.2067,-253.8436 799.1564,-258.7933"/>
</g>
<!-- 54 -->
<g id="node34" class="node">
<title>54</title>
<ellipse fill="none" stroke="#000000" cx="999" cy="-450" rx="27" ry="18"/>
<text text-anchor="middle" x="999" y="-446.3" font-family="Arial" font-size="14.00" fill="#000000">54</text>
</g>
<!-- 64&#45;&gt;54 -->
<g id="edge33" class="edge">
<title>64&#45;&gt;54</title>
<path fill="none" stroke="#000000" d="M999,-503.8314C999,-496.131 999,-486.9743 999,-478.4166"/>
<polygon fill="#000000" stroke="#000000" points="1002.5001,-478.4132 999,-468.4133 995.5001,-478.4133 1002.5001,-478.4132"/>
</g>
<!-- 126 -->
<g id="node49" class="node">
<title>126</title>
<ellipse fill="none" stroke="#000000" cx="1305" cy="-450" rx="27" ry="18"/>
<text text-anchor="middle" x="1305" y="-446.3" font-family="Arial" font-size="14.00" fill="#000000">126</text>
</g>
<!-- 64&#45;&gt;126 -->
<g id="edge48" class="edge">
<title>64&#45;&gt;126</title>
<path fill="none" stroke="#000000" d="M1024.5631,-515.9852C1079.1254,-503.147 1207.0855,-473.0387 1269.5034,-458.3521"/>
<polygon fill="#000000" stroke="#000000" points="1270.362,-461.7458 1279.2945,-456.0484 1268.7587,-454.9319 1270.362,-461.7458"/>
</g>
<!-- 52 -->
<g id="node35" class="node">
<title>52</title>
<ellipse fill="none" stroke="#000000" cx="963" cy="-378" rx="27" ry="18"/>
<text text-anchor="middle" x="963" y="-374.3" font-family="Arial" font-size="14.00" fill="#000000">52</text>
</g>
<!-- 54&#45;&gt;52 -->
<g id="edge34" class="edge">
<title>54&#45;&gt;52</title>
<path fill="none" stroke="#000000" d="M990.2854,-432.5708C986.0403,-424.0807 980.8464,-413.6929 976.1337,-404.2674"/>
<polygon fill="#000000" stroke="#000000" points="979.237,-402.6477 971.6343,-395.2687 972.976,-405.7782 979.237,-402.6477"/>
</g>
<!-- 56 -->
<g id="node40" class="node">
<title>56</title>
<ellipse fill="none" stroke="#000000" cx="1035" cy="-378" rx="27" ry="18"/>
<text text-anchor="middle" x="1035" y="-374.3" font-family="Arial" font-size="14.00" fill="#000000">56</text>
</g>
<!-- 54&#45;&gt;56 -->
<g id="edge39" class="edge">
<title>54&#45;&gt;56</title>
<path fill="none" stroke="#000000" d="M1007.7146,-432.5708C1011.9597,-424.0807 1017.1536,-413.6929 1021.8663,-404.2674"/>
<polygon fill="#000000" stroke="#000000" points="1025.024,-405.7782 1026.3657,-395.2687 1018.763,-402.6477 1025.024,-405.7782"/>
</g>
<!-- 49 -->
<g id="node36" class="node">
<title>49</title>
<ellipse fill="none" stroke="#000000" cx="891" cy="-306" rx="27" ry="18"/>
<text text-anchor="middle" x="891" y="-302.3" font-family="Arial" font-size="14.00" fill="#000000">49</text>
</g>
<!-- 52&#45;&gt;49 -->
<g id="edge35" class="edge">
<title>52&#45;&gt;49</title>
<path fill="none" stroke="#000000" d="M947.7307,-362.7307C937.803,-352.803 924.6847,-339.6847 913.5637,-328.5637"/>
<polygon fill="#000000" stroke="#000000" points="915.7933,-325.8436 906.2473,-321.2473 910.8436,-330.7933 915.7933,-325.8436"/>
</g>
<!-- 53 -->
<g id="node39" class="node">
<title>53</title>
<ellipse fill="none" stroke="#000000" cx="963" cy="-306" rx="27" ry="18"/>
<text text-anchor="middle" x="963" y="-302.3" font-family="Arial" font-size="14.00" fill="#000000">53</text>
</g>
<!-- 52&#45;&gt;53 -->
<g id="edge38" class="edge">
<title>52&#45;&gt;53</title>
<path fill="none" stroke="#000000" d="M963,-359.8314C963,-352.131 963,-342.9743 963,-334.4166"/>
<polygon fill="#000000" stroke="#000000" points="966.5001,-334.4132 963,-324.4133 959.5001,-334.4133 966.5001,-334.4132"/>
</g>
<!-- 50 -->
<g id="node37" class="node">
<title>50</title>
<ellipse fill="none" stroke="#000000" cx="891" cy="-234" rx="27" ry="18"/>
<text text-anchor="middle" x="891" y="-230.3" font-family="Arial" font-size="14.00" fill="#000000">50</text>
</g>
<!-- 49&#45;&gt;50 -->
<g id="edge36" class="edge">
<title>49&#45;&gt;50</title>
<path fill="none" stroke="#000000" d="M891,-287.8314C891,-280.131 891,-270.9743 891,-262.4166"/>
<polygon fill="#000000" stroke="#000000" points="894.5001,-262.4132 891,-252.4133 887.5001,-262.4133 894.5001,-262.4132"/>
</g>
<!-- 51 -->
<g id="node38" class="node">
<title>51</title>
<ellipse fill="none" stroke="#000000" cx="891" cy="-162" rx="27" ry="18"/>
<text text-anchor="middle" x="891" y="-158.3" font-family="Arial" font-size="14.00" fill="#000000">51</text>
</g>
<!-- 50&#45;&gt;51 -->
<g id="edge37" class="edge">
<title>50&#45;&gt;51</title>
<path fill="none" stroke="#000000" d="M891,-215.8314C891,-208.131 891,-198.9743 891,-190.4166"/>
<polygon fill="#000000" stroke="#000000" points="894.5001,-190.4132 891,-180.4133 887.5001,-190.4133 894.5001,-190.4132"/>
</g>
<!-- 55 -->
<g id="node41" class="node">
<title>55</title>
<ellipse fill="none" stroke="#000000" cx="1035" cy="-306" rx="27" ry="18"/>
<text text-anchor="middle" x="1035" y="-302.3" font-family="Arial" font-size="14.00" fill="#000000">55</text>
</g>
<!-- 56&#45;&gt;55 -->
<g id="edge40" class="edge">
<title>56&#45;&gt;55</title>
<path fill="none" stroke="#000000" d="M1035,-359.8314C1035,-352.131 1035,-342.9743 1035,-334.4166"/>
<polygon fill="#000000" stroke="#000000" points="1038.5001,-334.4132 1035,-324.4133 1031.5001,-334.4133 1038.5001,-334.4132"/>
</g>
<!-- 60 -->
<g id="node42" class="node">
<title>60</title>
<ellipse fill="none" stroke="#000000" cx="1107" cy="-306" rx="27" ry="18"/>
<text text-anchor="middle" x="1107" y="-302.3" font-family="Arial" font-size="14.00" fill="#000000">60</text>
</g>
<!-- 56&#45;&gt;60 -->
<g id="edge41" class="edge">
<title>56&#45;&gt;60</title>
<path fill="none" stroke="#000000" d="M1050.2693,-362.7307C1060.197,-352.803 1073.3153,-339.6847 1084.4363,-328.5637"/>
<polygon fill="#000000" stroke="#000000" points="1087.1564,-330.7933 1091.7527,-321.2473 1082.2067,-325.8436 1087.1564,-330.7933"/>
</g>
<!-- 58 -->
<g id="node43" class="node">
<title>58</title>
<ellipse fill="none" stroke="#000000" cx="1035" cy="-234" rx="27" ry="18"/>
<text text-anchor="middle" x="1035" y="-230.3" font-family="Arial" font-size="14.00" fill="#000000">58</text>
</g>
<!-- 60&#45;&gt;58 -->
<g id="edge42" class="edge">
<title>60&#45;&gt;58</title>
<path fill="none" stroke="#000000" d="M1091.7307,-290.7307C1081.803,-280.803 1068.6847,-267.6847 1057.5637,-256.5637"/>
<polygon fill="#000000" stroke="#000000" points="1059.7933,-253.8436 1050.2473,-249.2473 1054.8436,-258.7933 1059.7933,-253.8436"/>
</g>
<!-- 62 -->
<g id="node46" class="node">
<title>62</title>
<ellipse fill="none" stroke="#000000" cx="1107" cy="-234" rx="27" ry="18"/>
<text text-anchor="middle" x="1107" y="-230.3" font-family="Arial" font-size="14.00" fill="#000000">62</text>
</g>
<!-- 60&#45;&gt;62 -->
<g id="edge45" class="edge">
<title>60&#45;&gt;62</title>
<path fill="none" stroke="#000000" d="M1107,-287.8314C1107,-280.131 1107,-270.9743 1107,-262.4166"/>
<polygon fill="#000000" stroke="#000000" points="1110.5001,-262.4132 1107,-252.4133 1103.5001,-262.4133 1110.5001,-262.4132"/>
</g>
<!-- 57 -->
<g id="node44" class="node">
<title>57</title>
<ellipse fill="none" stroke="#000000" cx="963" cy="-162" rx="27" ry="18"/>
<text text-anchor="middle" x="963" y="-158.3" font-family="Arial" font-size="14.00" fill="#000000">57</text>
</g>
<!-- 58&#45;&gt;57 -->
<g id="edge43" class="edge">
<title>58&#45;&gt;57</title>
<path fill="none" stroke="#000000" d="M1019.7307,-218.7307C1009.803,-208.803 996.6847,-195.6847 985.5637,-184.5637"/>
<polygon fill="#000000" stroke="#000000" points="987.7933,-181.8436 978.2473,-177.2473 982.8436,-186.7933 987.7933,-181.8436"/>
</g>
<!-- 59 -->
<g id="node45" class="node">
<title>59</title>
<ellipse fill="none" stroke="#000000" cx="1035" cy="-162" rx="27" ry="18"/>
<text text-anchor="middle" x="1035" y="-158.3" font-family="Arial" font-size="14.00" fill="#000000">59</text>
</g>
<!-- 58&#45;&gt;59 -->
<g id="edge44" class="edge">
<title>58&#45;&gt;59</title>
<path fill="none" stroke="#000000" d="M1035,-215.8314C1035,-208.131 1035,-198.9743 1035,-190.4166"/>
<polygon fill="#000000" stroke="#000000" points="1038.5001,-190.4132 1035,-180.4133 1031.5001,-190.4133 1038.5001,-190.4132"/>
</g>
<!-- 61 -->
<g id="node47" class="node">
<title>61</title>
<ellipse fill="none" stroke="#000000" cx="1107" cy="-162" rx="27" ry="18"/>
<text text-anchor="middle" x="1107" y="-158.3" font-family="Arial" font-size="14.00" fill="#000000">61</text>
</g>
<!-- 62&#45;&gt;61 -->
<g id="edge46" class="edge">
<title>62&#45;&gt;61</title>
<path fill="none" stroke="#000000" d="M1107,-215.8314C1107,-208.131 1107,-198.9743 1107,-190.4166"/>
<polygon fill="#000000" stroke="#000000" points="1110.5001,-190.4132 1107,-180.4133 1103.5001,-190.4133 1110.5001,-190.4132"/>
</g>
<!-- 63 -->
<g id="node48" class="node">
<title>63</title>
<ellipse fill="none" stroke="#000000" cx="1179" cy="-162" rx="27" ry="18"/>
<text text-anchor="middle" x="1179" y="-158.3" font-family="Arial" font-size="14.00" fill="#000000">63</text>
</g>
<!-- 62&#45;&gt;63 -->
<g id="edge47" class="edge">
<title>62&#45;&gt;63</title>
<path fill="none" stroke="#000000" d="M1122.2693,-218.7307C1132.197,-208.803 1145.3153,-195.6847 1156.4363,-184.5637"/>
<polygon fill="#000000" stroke="#000000" points="1159.1564,-186.7933 1163.7527,-177.2473 1154.2067,-181.8436 1159.1564,-186.7933"/>
</g>
<!-- 120 -->
<g id="node50" class="node">
<title>120</title>
<ellipse fill="none" stroke="#000000" cx="1305" cy="-378" rx="27" ry="18"/>
<text text-anchor="middle" x="1305" y="-374.3" font-family="Arial" font-size="14.00" fill="#000000">120</text>
</g>
<!-- 126&#45;&gt;120 -->
<g id="edge49" class="edge">
<title>126&#45;&gt;120</title>
<path fill="none" stroke="#000000" d="M1305,-431.8314C1305,-424.131 1305,-414.9743 1305,-406.4166"/>
<polygon fill="#000000" stroke="#000000" points="1308.5001,-406.4132 1305,-396.4133 1301.5001,-406.4133 1308.5001,-406.4132"/>
</g>
<!-- 128 -->
<g id="node64" class="node">
<title>128</title>
<ellipse fill="none" stroke="#000000" cx="1413" cy="-378" rx="27" ry="18"/>
<text text-anchor="middle" x="1413" y="-374.3" font-family="Arial" font-size="14.00" fill="#000000">128</text>
</g>
<!-- 126&#45;&gt;128 -->
<g id="edge63" class="edge">
<title>126&#45;&gt;128</title>
<path fill="none" stroke="#000000" d="M1324.3082,-437.1278C1341.3555,-425.763 1366.4019,-409.0654 1385.5344,-396.3104"/>
<polygon fill="#000000" stroke="#000000" points="1387.4799,-399.2199 1393.8589,-390.7607 1383.5969,-393.3956 1387.4799,-399.2199"/>
</g>
<!-- 112 -->
<g id="node51" class="node">
<title>112</title>
<ellipse fill="none" stroke="#000000" cx="1287" cy="-306" rx="27" ry="18"/>
<text text-anchor="middle" x="1287" y="-302.3" font-family="Arial" font-size="14.00" fill="#000000">112</text>
</g>
<!-- 120&#45;&gt;112 -->
<g id="edge50" class="edge">
<title>120&#45;&gt;112</title>
<path fill="none" stroke="#000000" d="M1300.5506,-360.2022C1298.5602,-352.2406 1296.1668,-342.6671 1293.9489,-333.7957"/>
<polygon fill="#000000" stroke="#000000" points="1297.2816,-332.6951 1291.4606,-323.8425 1290.4906,-334.3929 1297.2816,-332.6951"/>
</g>
<!-- 125 -->
<g id="node59" class="node">
<title>125</title>
<ellipse fill="none" stroke="#000000" cx="1359" cy="-306" rx="27" ry="18"/>
<text text-anchor="middle" x="1359" y="-302.3" font-family="Arial" font-size="14.00" fill="#000000">125</text>
</g>
<!-- 120&#45;&gt;125 -->
<g id="edge58" class="edge">
<title>120&#45;&gt;125</title>
<path fill="none" stroke="#000000" d="M1317.2534,-361.6621C1324.1577,-352.4564 1332.9177,-340.7764 1340.6285,-330.4953"/>
<polygon fill="#000000" stroke="#000000" points="1343.595,-332.3733 1346.7951,-322.2733 1337.995,-328.1733 1343.595,-332.3733"/>
</g>
<!-- 81 -->
<g id="node52" class="node">
<title>81</title>
<ellipse fill="none" stroke="#000000" cx="1287" cy="-234" rx="27" ry="18"/>
<text text-anchor="middle" x="1287" y="-230.3" font-family="Arial" font-size="14.00" fill="#000000">81</text>
</g>
<!-- 112&#45;&gt;81 -->
<g id="edge51" class="edge">
<title>112&#45;&gt;81</title>
<path fill="none" stroke="#000000" d="M1287,-287.8314C1287,-280.131 1287,-270.9743 1287,-262.4166"/>
<polygon fill="#000000" stroke="#000000" points="1290.5001,-262.4132 1287,-252.4133 1283.5001,-262.4133 1290.5001,-262.4132"/>
</g>
<!-- 66 -->
<g id="node53" class="node">
<title>66</title>
<ellipse fill="none" stroke="#000000" cx="1251" cy="-162" rx="27" ry="18"/>
<text text-anchor="middle" x="1251" y="-158.3" font-family="Arial" font-size="14.00" fill="#000000">66</text>
</g>
<!-- 81&#45;&gt;66 -->
<g id="edge52" class="edge">
<title>81&#45;&gt;66</title>
<path fill="none" stroke="#000000" d="M1278.2854,-216.5708C1274.0403,-208.0807 1268.8464,-197.6929 1264.1337,-188.2674"/>
<polygon fill="#000000" stroke="#000000" points="1267.237,-186.6477 1259.6343,-179.2687 1260.976,-189.7782 1267.237,-186.6477"/>
</g>
<!-- 110 -->
<g id="node56" class="node">
<title>110</title>
<ellipse fill="none" stroke="#000000" cx="1323" cy="-162" rx="27" ry="18"/>
<text text-anchor="middle" x="1323" y="-158.3" font-family="Arial" font-size="14.00" fill="#000000">110</text>
</g>
<!-- 81&#45;&gt;110 -->
<g id="edge55" class="edge">
<title>81&#45;&gt;110</title>
<path fill="none" stroke="#000000" d="M1295.7146,-216.5708C1299.9597,-208.0807 1305.1536,-197.6929 1309.8663,-188.2674"/>
<polygon fill="#000000" stroke="#000000" points="1313.024,-189.7782 1314.3657,-179.2687 1306.763,-186.6477 1313.024,-189.7782"/>
</g>
<!-- 65 -->
<g id="node54" class="node">
<title>65</title>
<ellipse fill="none" stroke="#000000" cx="1179" cy="-90" rx="27" ry="18"/>
<text text-anchor="middle" x="1179" y="-86.3" font-family="Arial" font-size="14.00" fill="#000000">65</text>
</g>
<!-- 66&#45;&gt;65 -->
<g id="edge53" class="edge">
<title>66&#45;&gt;65</title>
<path fill="none" stroke="#000000" d="M1235.7307,-146.7307C1225.803,-136.803 1212.6847,-123.6847 1201.5637,-112.5637"/>
<polygon fill="#000000" stroke="#000000" points="1203.7933,-109.8436 1194.2473,-105.2473 1198.8436,-114.7933 1203.7933,-109.8436"/>
</g>
<!-- 80 -->
<g id="node55" class="node">
<title>80</title>
<ellipse fill="none" stroke="#000000" cx="1251" cy="-90" rx="27" ry="18"/>
<text text-anchor="middle" x="1251" y="-86.3" font-family="Arial" font-size="14.00" fill="#000000">80</text>
</g>
<!-- 66&#45;&gt;80 -->
<g id="edge54" class="edge">
<title>66&#45;&gt;80</title>
<path fill="none" stroke="#000000" d="M1251,-143.8314C1251,-136.131 1251,-126.9743 1251,-118.4166"/>
<polygon fill="#000000" stroke="#000000" points="1254.5001,-118.4132 1251,-108.4133 1247.5001,-118.4133 1254.5001,-118.4132"/>
</g>
<!-- 88 -->
<g id="node57" class="node">
<title>88</title>
<ellipse fill="none" stroke="#000000" cx="1323" cy="-90" rx="27" ry="18"/>
<text text-anchor="middle" x="1323" y="-86.3" font-family="Arial" font-size="14.00" fill="#000000">88</text>
</g>
<!-- 110&#45;&gt;88 -->
<g id="edge56" class="edge">
<title>110&#45;&gt;88</title>
<path fill="none" stroke="#000000" d="M1323,-143.8314C1323,-136.131 1323,-126.9743 1323,-118.4166"/>
<polygon fill="#000000" stroke="#000000" points="1326.5001,-118.4132 1323,-108.4133 1319.5001,-118.4133 1326.5001,-118.4132"/>
</g>
<!-- 96 -->
<g id="node58" class="node">
<title>96</title>
<ellipse fill="none" stroke="#000000" cx="1323" cy="-18" rx="27" ry="18"/>
<text text-anchor="middle" x="1323" y="-14.3" font-family="Arial" font-size="14.00" fill="#000000">96</text>
</g>
<!-- 88&#45;&gt;96 -->
<g id="edge57" class="edge">
<title>88&#45;&gt;96</title>
<path fill="none" stroke="#000000" d="M1323,-71.8314C1323,-64.131 1323,-54.9743 1323,-46.4166"/>
<polygon fill="#000000" stroke="#000000" points="1326.5001,-46.4132 1323,-36.4133 1319.5001,-46.4133 1326.5001,-46.4132"/>
</g>
<!-- 124 -->
<g id="node60" class="node">
<title>124</title>
<ellipse fill="none" stroke="#000000" cx="1377" cy="-234" rx="27" ry="18"/>
<text text-anchor="middle" x="1377" y="-230.3" font-family="Arial" font-size="14.00" fill="#000000">124</text>
</g>
<!-- 125&#45;&gt;124 -->
<g id="edge59" class="edge">
<title>125&#45;&gt;124</title>
<path fill="none" stroke="#000000" d="M1363.4494,-288.2022C1365.4398,-280.2406 1367.8332,-270.6671 1370.0511,-261.7957"/>
<polygon fill="#000000" stroke="#000000" points="1373.5094,-262.3929 1372.5394,-251.8425 1366.7184,-260.6951 1373.5094,-262.3929"/>
</g>
<!-- 121 -->
<g id="node61" class="node">
<title>121</title>
<ellipse fill="none" stroke="#000000" cx="1395" cy="-162" rx="27" ry="18"/>
<text text-anchor="middle" x="1395" y="-158.3" font-family="Arial" font-size="14.00" fill="#000000">121</text>
</g>
<!-- 124&#45;&gt;121 -->
<g id="edge60" class="edge">
<title>124&#45;&gt;121</title>
<path fill="none" stroke="#000000" d="M1381.4494,-216.2022C1383.4398,-208.2406 1385.8332,-198.6671 1388.0511,-189.7957"/>
<polygon fill="#000000" stroke="#000000" points="1391.5094,-190.3929 1390.5394,-179.8425 1384.7184,-188.6951 1391.5094,-190.3929"/>
</g>
<!-- 123 -->
<g id="node62" class="node">
<title>123</title>
<ellipse fill="none" stroke="#000000" cx="1395" cy="-90" rx="27" ry="18"/>
<text text-anchor="middle" x="1395" y="-86.3" font-family="Arial" font-size="14.00" fill="#000000">123</text>
</g>
<!-- 121&#45;&gt;123 -->
<g id="edge61" class="edge">
<title>121&#45;&gt;123</title>
<path fill="none" stroke="#000000" d="M1395,-143.8314C1395,-136.131 1395,-126.9743 1395,-118.4166"/>
<polygon fill="#000000" stroke="#000000" points="1398.5001,-118.4132 1395,-108.4133 1391.5001,-118.4133 1398.5001,-118.4132"/>
</g>
<!-- 122 -->
<g id="node63" class="node">
<title>122</title>
<ellipse fill="none" stroke="#000000" cx="1395" cy="-18" rx="27" ry="18"/>
<text text-anchor="middle" x="1395" y="-14.3" font-family="Arial" font-size="14.00" fill="#000000">122</text>
</g>
<!-- 123&#45;&gt;122 -->
<g id="edge62" class="edge">
<title>123&#45;&gt;122</title>
<path fill="none" stroke="#000000" d="M1395,-71.8314C1395,-64.131 1395,-54.9743 1395,-46.4166"/>
<polygon fill="#000000" stroke="#000000" points="1398.5001,-46.4132 1395,-36.4133 1391.5001,-46.4133 1398.5001,-46.4132"/>
</g>
<!-- 127 -->
<g id="node65" class="node">
<title>127</title>
<ellipse fill="none" stroke="#000000" cx="1431" cy="-306" rx="27" ry="18"/>
<text text-anchor="middle" x="1431" y="-302.3" font-family="Arial" font-size="14.00" fill="#000000">127</text>
</g>
<!-- 128&#45;&gt;127 -->
<g id="edge64" class="edge">
<title>128&#45;&gt;127</title>
<path fill="none" stroke="#000000" d="M1417.4494,-360.2022C1419.4398,-352.2406 1421.8332,-342.6671 1424.0511,-333.7957"/>
<polygon fill="#000000" stroke="#000000" points="1427.5094,-334.3929 1426.5394,-323.8425 1420.7184,-332.6951 1427.5094,-334.3929"/>
</g>
</g>
</svg>
