<?xml version="1.0" encoding="UTF-8" standalone="no"?>
<!DOCTYPE svg PUBLIC "-//W3C//DTD SVG 1.1//EN"
 "http://www.w3.org/Graphics/SVG/1.1/DTD/svg11.dtd">
<!-- Generated by graphviz version 2.40.1 (20161225.0304)
 -->
<!-- Title: BST Pages: 1 -->
<svg width="872pt" height="1916pt"
 viewBox="0.00 0.00 872.00 1916.00" xmlns="http://www.w3.org/2000/svg" xmlns:xlink="http://www.w3.org/1999/xlink">
<g id="graph0" class="graph" transform="scale(1 1) rotate(0) translate(4 1912)">
<title>BST</title>
<polygon fill="#ffffff" stroke="transparent" points="-4,4 -4,-1912 868,-1912 868,4 -4,4"/>
<!-- 0 -->
<g id="node1" class="node">
<title>0</title>
<ellipse fill="none" stroke="#000000" cx="63" cy="-1890" rx="27" ry="18"/>
<text text-anchor="middle" x="63" y="-1886.3" font-family="Arial" font-size="14.00" fill="#000000">0</text>
</g>
<!-- 20 -->
<g id="node2" class="node">
<title>20</title>
<ellipse fill="none" stroke="#000000" cx="63" cy="-1818" rx="27" ry="18"/>
<text text-anchor="middle" x="63" y="-1814.3" font-family="Arial" font-size="14.00" fill="#000000">20</text>
</g>
<!-- 0&#45;&gt;20 -->
<g id="edge1" class="edge">
<title>0&#45;&gt;20</title>
<path fill="none" stroke="#000000" d="M63,-1871.8314C63,-1864.131 63,-1854.9743 63,-1846.4166"/>
<polygon fill="#000000" stroke="#000000" points="66.5001,-1846.4132 63,-1836.4133 59.5001,-1846.4133 66.5001,-1846.4132"/>
</g>
<!-- 16 -->
<g id="node3" class="node">
<title>16</title>
<ellipse fill="none" stroke="#000000" cx="27" cy="-1746" rx="27" ry="18"/>
<text text-anchor="middle" x="27" y="-1742.3" font-family="Arial" font-size="14.00" fill="#000000">16</text>
</g>
<!-- 20&#45;&gt;16 -->
<g id="edge2" class="edge">
<title>20&#45;&gt;16</title>
<path fill="none" stroke="#000000" d="M54.2854,-1800.5708C50.0403,-1792.0807 44.8464,-1781.6929 40.1337,-1772.2674"/>
<polygon fill="#000000" stroke="#000000" points="43.237,-1770.6477 35.6343,-1763.2687 36.976,-1773.7782 43.237,-1770.6477"/>
</g>
<!-- 29 -->
<g id="node5" class="node">
<title>29</title>
<ellipse fill="none" stroke="#000000" cx="99" cy="-1746" rx="27" ry="18"/>
<text text-anchor="middle" x="99" y="-1742.3" font-family="Arial" font-size="14.00" fill="#000000">29</text>
</g>
<!-- 20&#45;&gt;29 -->
<g id="edge4" class="edge">
<title>20&#45;&gt;29</title>
<path fill="none" stroke="#000000" d="M71.7146,-1800.5708C75.9597,-1792.0807 81.1536,-1781.6929 85.8663,-1772.2674"/>
<polygon fill="#000000" stroke="#000000" points="89.024,-1773.7782 90.3657,-1763.2687 82.763,-1770.6477 89.024,-1773.7782"/>
</g>
<!-- 19 -->
<g id="node4" class="node">
<title>19</title>
<ellipse fill="none" stroke="#000000" cx="27" cy="-1674" rx="27" ry="18"/>
<text text-anchor="middle" x="27" y="-1670.3" font-family="Arial" font-size="14.00" fill="#000000">19</text>
</g>
<!-- 16&#45;&gt;19 -->
<g id="edge3" class="edge">
<title>16&#45;&gt;19</title>
<path fill="none" stroke="#000000" d="M27,-1727.8314C27,-1720.131 27,-1710.9743 27,-1702.4166"/>
<polygon fill="#000000" stroke="#000000" points="30.5001,-1702.4132 27,-1692.4133 23.5001,-1702.4133 30.5001,-1702.4132"/>
</g>
<!-- 22 -->
<g id="node6" class="node">
<title>22</title>
<ellipse fill="none" stroke="#000000" cx="99" cy="-1674" rx="27" ry="18"/>
<text text-anchor="middle" x="99" y="-1670.3" font-family="Arial" font-size="14.00" fill="#000000">22</text>
</g>
<!-- 29&#45;&gt;22 -->
<g id="edge5" class="edge">
<title>29&#45;&gt;22</title>
<path fill="none" stroke="#000000" d="M99,-1727.8314C99,-1720.131 99,-1710.9743 99,-1702.4166"/>
<polygon fill="#000000" stroke="#000000" points="102.5001,-1702.4132 99,-1692.4133 95.5001,-1702.4133 102.5001,-1702.4132"/>
</g>
<!-- 32 -->
<g id="node14" class="node">
<title>32</title>
<ellipse fill="none" stroke="#000000" cx="171" cy="-1674" rx="27" ry="18"/>
<text text-anchor="middle" x="171" y="-1670.3" font-family="Arial" font-size="14.00" fill="#000000">32</text>
</g>
<!-- 29&#45;&gt;32 -->
<g id="edge13" class="edge">
<title>29&#45;&gt;32</title>
<path fill="none" stroke="#000000" d="M114.2693,-1730.7307C124.197,-1720.803 137.3153,-1707.6847 148.4363,-1696.5637"/>
<polygon fill="#000000" stroke="#000000" points="151.1564,-1698.7933 155.7527,-1689.2473 146.2067,-1693.8436 151.1564,-1698.7933"/>
</g>
<!-- 21 -->
<g id="node7" class="node">
<title>21</title>
<ellipse fill="none" stroke="#000000" cx="27" cy="-1602" rx="27" ry="18"/>
<text text-anchor="middle" x="27" y="-1598.3" font-family="Arial" font-size="14.00" fill="#000000">21</text>
</g>
<!-- 22&#45;&gt;21 -->
<g id="edge6" class="edge">
<title>22&#45;&gt;21</title>
<path fill="none" stroke="#000000" d="M83.7307,-1658.7307C73.803,-1648.803 60.6847,-1635.6847 49.5637,-1624.5637"/>
<polygon fill="#000000" stroke="#000000" points="51.7933,-1621.8436 42.2473,-1617.2473 46.8436,-1626.7933 51.7933,-1621.8436"/>
</g>
<!-- 24 -->
<g id="node8" class="node">
<title>24</title>
<ellipse fill="none" stroke="#000000" cx="99" cy="-1602" rx="27" ry="18"/>
<text text-anchor="middle" x="99" y="-1598.3" font-family="Arial" font-size="14.00" fill="#000000">24</text>
</g>
<!-- 22&#45;&gt;24 -->
<g id="edge7" class="edge">
<title>22&#45;&gt;24</title>
<path fill="none" stroke="#000000" d="M99,-1655.8314C99,-1648.131 99,-1638.9743 99,-1630.4166"/>
<polygon fill="#000000" stroke="#000000" points="102.5001,-1630.4132 99,-1620.4133 95.5001,-1630.4133 102.5001,-1630.4132"/>
</g>
<!-- 23 -->
<g id="node9" class="node">
<title>23</title>
<ellipse fill="none" stroke="#000000" cx="27" cy="-1530" rx="27" ry="18"/>
<text text-anchor="middle" x="27" y="-1526.3" font-family="Arial" font-size="14.00" fill="#000000">23</text>
</g>
<!-- 24&#45;&gt;23 -->
<g id="edge8" class="edge">
<title>24&#45;&gt;23</title>
<path fill="none" stroke="#000000" d="M83.7307,-1586.7307C73.803,-1576.803 60.6847,-1563.6847 49.5637,-1552.5637"/>
<polygon fill="#000000" stroke="#000000" points="51.7933,-1549.8436 42.2473,-1545.2473 46.8436,-1554.7933 51.7933,-1549.8436"/>
</g>
<!-- 26 -->
<g id="node10" class="node">
<title>26</title>
<ellipse fill="none" stroke="#000000" cx="99" cy="-1530" rx="27" ry="18"/>
<text text-anchor="middle" x="99" y="-1526.3" font-family="Arial" font-size="14.00" fill="#000000">26</text>
</g>
<!-- 24&#45;&gt;26 -->
<g id="edge9" class="edge">
<title>24&#45;&gt;26</title>
<path fill="none" stroke="#000000" d="M99,-1583.8314C99,-1576.131 99,-1566.9743 99,-1558.4166"/>
<polygon fill="#000000" stroke="#000000" points="102.5001,-1558.4132 99,-1548.4133 95.5001,-1558.4133 102.5001,-1558.4132"/>
</g>
<!-- 25 -->
<g id="node11" class="node">
<title>25</title>
<ellipse fill="none" stroke="#000000" cx="45" cy="-1458" rx="27" ry="18"/>
<text text-anchor="middle" x="45" y="-1454.3" font-family="Arial" font-size="14.00" fill="#000000">25</text>
</g>
<!-- 26&#45;&gt;25 -->
<g id="edge10" class="edge">
<title>26&#45;&gt;25</title>
<path fill="none" stroke="#000000" d="M86.7466,-1513.6621C79.8423,-1504.4564 71.0823,-1492.7764 63.3715,-1482.4953"/>
<polygon fill="#000000" stroke="#000000" points="66.005,-1480.1733 57.2049,-1474.2733 60.405,-1484.3733 66.005,-1480.1733"/>
</g>
<!-- 28 -->
<g id="node12" class="node">
<title>28</title>
<ellipse fill="none" stroke="#000000" cx="117" cy="-1458" rx="27" ry="18"/>
<text text-anchor="middle" x="117" y="-1454.3" font-family="Arial" font-size="14.00" fill="#000000">28</text>
</g>
<!-- 26&#45;&gt;28 -->
<g id="edge11" class="edge">
<title>26&#45;&gt;28</title>
<path fill="none" stroke="#000000" d="M103.4494,-1512.2022C105.4398,-1504.2406 107.8332,-1494.6671 110.0511,-1485.7957"/>
<polygon fill="#000000" stroke="#000000" points="113.5094,-1486.3929 112.5394,-1475.8425 106.7184,-1484.6951 113.5094,-1486.3929"/>
</g>
<!-- 27 -->
<g id="node13" class="node">
<title>27</title>
<ellipse fill="none" stroke="#000000" cx="117" cy="-1386" rx="27" ry="18"/>
<text text-anchor="middle" x="117" y="-1382.3" font-family="Arial" font-size="14.00" fill="#000000">27</text>
</g>
<!-- 28&#45;&gt;27 -->
<g id="edge12" class="edge">
<title>28&#45;&gt;27</title>
<path fill="none" stroke="#000000" d="M117,-1439.8314C117,-1432.131 117,-1422.9743 117,-1414.4166"/>
<polygon fill="#000000" stroke="#000000" points="120.5001,-1414.4132 117,-1404.4133 113.5001,-1414.4133 120.5001,-1414.4132"/>
</g>
<!-- 30 -->
<g id="node15" class="node">
<title>30</title>
<ellipse fill="none" stroke="#000000" cx="171" cy="-1602" rx="27" ry="18"/>
<text text-anchor="middle" x="171" y="-1598.3" font-family="Arial" font-size="14.00" fill="#000000">30</text>
</g>
<!-- 32&#45;&gt;30 -->
<g id="edge14" class="edge">
<title>32&#45;&gt;30</title>
<path fill="none" stroke="#000000" d="M171,-1655.8314C171,-1648.131 171,-1638.9743 171,-1630.4166"/>
<polygon fill="#000000" stroke="#000000" points="174.5001,-1630.4132 171,-1620.4133 167.5001,-1630.4133 174.5001,-1630.4132"/>
</g>
<!-- 33 -->
<g id="node17" class="node">
<title>33</title>
<ellipse fill="none" stroke="#000000" cx="243" cy="-1602" rx="27" ry="18"/>
<text text-anchor="middle" x="243" y="-1598.3" font-family="Arial" font-size="14.00" fill="#000000">33</text>
</g>
<!-- 32&#45;&gt;33 -->
<g id="edge16" class="edge">
<title>32&#45;&gt;33</title>
<path fill="none" stroke="#000000" d="M186.2693,-1658.7307C196.197,-1648.803 209.3153,-1635.6847 220.4363,-1624.5637"/>
<polygon fill="#000000" stroke="#000000" points="223.1564,-1626.7933 227.7527,-1617.2473 218.2067,-1621.8436 223.1564,-1626.7933"/>
</g>
<!-- 31 -->
<g id="node16" class="node">
<title>31</title>
<ellipse fill="none" stroke="#000000" cx="171" cy="-1530" rx="27" ry="18"/>
<text text-anchor="middle" x="171" y="-1526.3" font-family="Arial" font-size="14.00" fill="#000000">31</text>
</g>
<!-- 30&#45;&gt;31 -->
<g id="edge15" class="edge">
<title>30&#45;&gt;31</title>
<path fill="none" stroke="#000000" d="M171,-1583.8314C171,-1576.131 171,-1566.9743 171,-1558.4166"/>
<polygon fill="#000000" stroke="#000000" points="174.5001,-1558.4132 171,-1548.4133 167.5001,-1558.4133 174.5001,-1558.4132"/>
</g>
<!-- 36 -->
<g id="node18" class="node">
<title>36</title>
<ellipse fill="none" stroke="#000000" cx="243" cy="-1530" rx="27" ry="18"/>
<text text-anchor="middle" x="243" y="-1526.3" font-family="Arial" font-size="14.00" fill="#000000">36</text>
</g>
<!-- 33&#45;&gt;36 -->
<g id="edge17" class="edge">
<title>33&#45;&gt;36</title>
<path fill="none" stroke="#000000" d="M243,-1583.8314C243,-1576.131 243,-1566.9743 243,-1558.4166"/>
<polygon fill="#000000" stroke="#000000" points="246.5001,-1558.4132 243,-1548.4133 239.5001,-1558.4133 246.5001,-1558.4132"/>
</g>
<!-- 34 -->
<g id="node19" class="node">
<title>34</title>
<ellipse fill="none" stroke="#000000" cx="225" cy="-1458" rx="27" ry="18"/>
<text text-anchor="middle" x="225" y="-1454.3" font-family="Arial" font-size="14.00" fill="#000000">34</text>
</g>
<!-- 36&#45;&gt;34 -->
<g id="edge18" class="edge">
<title>36&#45;&gt;34</title>
<path fill="none" stroke="#000000" d="M238.5506,-1512.2022C236.5602,-1504.2406 234.1668,-1494.6671 231.9489,-1485.7957"/>
<polygon fill="#000000" stroke="#000000" points="235.2816,-1484.6951 229.4606,-1475.8425 228.4906,-1486.3929 235.2816,-1484.6951"/>
</g>
<!-- 38 -->
<g id="node21" class="node">
<title>38</title>
<ellipse fill="none" stroke="#000000" cx="297" cy="-1458" rx="27" ry="18"/>
<text text-anchor="middle" x="297" y="-1454.3" font-family="Arial" font-size="14.00" fill="#000000">38</text>
</g>
<!-- 36&#45;&gt;38 -->
<g id="edge20" class="edge">
<title>36&#45;&gt;38</title>
<path fill="none" stroke="#000000" d="M255.2534,-1513.6621C262.1577,-1504.4564 270.9177,-1492.7764 278.6285,-1482.4953"/>
<polygon fill="#000000" stroke="#000000" points="281.595,-1484.3733 284.7951,-1474.2733 275.995,-1480.1733 281.595,-1484.3733"/>
</g>
<!-- 35 -->
<g id="node20" class="node">
<title>35</title>
<ellipse fill="none" stroke="#000000" cx="225" cy="-1386" rx="27" ry="18"/>
<text text-anchor="middle" x="225" y="-1382.3" font-family="Arial" font-size="14.00" fill="#000000">35</text>
</g>
<!-- 34&#45;&gt;35 -->
<g id="edge19" class="edge">
<title>34&#45;&gt;35</title>
<path fill="none" stroke="#000000" d="M225,-1439.8314C225,-1432.131 225,-1422.9743 225,-1414.4166"/>
<polygon fill="#000000" stroke="#000000" points="228.5001,-1414.4132 225,-1404.4133 221.5001,-1414.4133 228.5001,-1414.4132"/>
</g>
<!-- 37 -->
<g id="node22" class="node">
<title>37</title>
<ellipse fill="none" stroke="#000000" cx="297" cy="-1386" rx="27" ry="18"/>
<text text-anchor="middle" x="297" y="-1382.3" font-family="Arial" font-size="14.00" fill="#000000">37</text>
</g>
<!-- 38&#45;&gt;37 -->
<g id="edge21" class="edge">
<title>38&#45;&gt;37</title>
<path fill="none" stroke="#000000" d="M297,-1439.8314C297,-1432.131 297,-1422.9743 297,-1414.4166"/>
<polygon fill="#000000" stroke="#000000" points="300.5001,-1414.4132 297,-1404.4133 293.5001,-1414.4133 300.5001,-1414.4132"/>
</g>
<!-- 40 -->
<g id="node23" class="node">
<title>40</title>
<ellipse fill="none" stroke="#000000" cx="369" cy="-1386" rx="27" ry="18"/>
<text text-anchor="middle" x="369" y="-1382.3" font-family="Arial" font-size="14.00" fill="#000000">40</text>
</g>
<!-- 38&#45;&gt;40 -->
<g id="edge22" class="edge">
<title>38&#45;&gt;40</title>
<path fill="none" stroke="#000000" d="M312.2693,-1442.7307C322.197,-1432.803 335.3153,-1419.6847 346.4363,-1408.5637"/>
<polygon fill="#000000" stroke="#000000" points="349.1564,-1410.7933 353.7527,-1401.2473 344.2067,-1405.8436 349.1564,-1410.7933"/>
</g>
<!-- 39 -->
<g id="node24" class="node">
<title>39</title>
<ellipse fill="none" stroke="#000000" cx="333" cy="-1314" rx="27" ry="18"/>
<text text-anchor="middle" x="333" y="-1310.3" font-family="Arial" font-size="14.00" fill="#000000">39</text>
</g>
<!-- 40&#45;&gt;39 -->
<g id="edge23" class="edge">
<title>40&#45;&gt;39</title>
<path fill="none" stroke="#000000" d="M360.2854,-1368.5708C356.0403,-1360.0807 350.8464,-1349.6929 346.1337,-1340.2674"/>
<polygon fill="#000000" stroke="#000000" points="349.237,-1338.6477 341.6343,-1331.2687 342.976,-1341.7782 349.237,-1338.6477"/>
</g>
<!-- 44 -->
<g id="node25" class="node">
<title>44</title>
<ellipse fill="none" stroke="#000000" cx="405" cy="-1314" rx="27" ry="18"/>
<text text-anchor="middle" x="405" y="-1310.3" font-family="Arial" font-size="14.00" fill="#000000">44</text>
</g>
<!-- 40&#45;&gt;44 -->
<g id="edge24" class="edge">
<title>40&#45;&gt;44</title>
<path fill="none" stroke="#000000" d="M377.7146,-1368.5708C381.9597,-1360.0807 387.1536,-1349.6929 391.8663,-1340.2674"/>
<polygon fill="#000000" stroke="#000000" points="395.024,-1341.7782 396.3657,-1331.2687 388.763,-1338.6477 395.024,-1341.7782"/>
</g>
<!-- 42 -->
<g id="node26" class="node">
<title>42</title>
<ellipse fill="none" stroke="#000000" cx="369" cy="-1242" rx="27" ry="18"/>
<text text-anchor="middle" x="369" y="-1238.3" font-family="Arial" font-size="14.00" fill="#000000">42</text>
</g>
<!-- 44&#45;&gt;42 -->
<g id="edge25" class="edge">
<title>44&#45;&gt;42</title>
<path fill="none" stroke="#000000" d="M396.2854,-1296.5708C392.0403,-1288.0807 386.8464,-1277.6929 382.1337,-1268.2674"/>
<polygon fill="#000000" stroke="#000000" points="385.237,-1266.6477 377.6343,-1259.2687 378.976,-1269.7782 385.237,-1266.6477"/>
</g>
<!-- 48 -->
<g id="node29" class="node">
<title>48</title>
<ellipse fill="none" stroke="#000000" cx="441" cy="-1242" rx="27" ry="18"/>
<text text-anchor="middle" x="441" y="-1238.3" font-family="Arial" font-size="14.00" fill="#000000">48</text>
</g>
<!-- 44&#45;&gt;48 -->
<g id="edge28" class="edge">
<title>44&#45;&gt;48</title>
<path fill="none" stroke="#000000" d="M413.7146,-1296.5708C417.9597,-1288.0807 423.1536,-1277.6929 427.8663,-1268.2674"/>
<polygon fill="#000000" stroke="#000000" points="431.024,-1269.7782 432.3657,-1259.2687 424.763,-1266.6477 431.024,-1269.7782"/>
</g>
<!-- 41 -->
<g id="node27" class="node">
<title>41</title>
<ellipse fill="none" stroke="#000000" cx="297" cy="-1170" rx="27" ry="18"/>
<text text-anchor="middle" x="297" y="-1166.3" font-family="Arial" font-size="14.00" fill="#000000">41</text>
</g>
<!-- 42&#45;&gt;41 -->
<g id="edge26" class="edge">
<title>42&#45;&gt;41</title>
<path fill="none" stroke="#000000" d="M353.7307,-1226.7307C343.803,-1216.803 330.6847,-1203.6847 319.5637,-1192.5637"/>
<polygon fill="#000000" stroke="#000000" points="321.7933,-1189.8436 312.2473,-1185.2473 316.8436,-1194.7933 321.7933,-1189.8436"/>
</g>
<!-- 43 -->
<g id="node28" class="node">
<title>43</title>
<ellipse fill="none" stroke="#000000" cx="369" cy="-1170" rx="27" ry="18"/>
<text text-anchor="middle" x="369" y="-1166.3" font-family="Arial" font-size="14.00" fill="#000000">43</text>
</g>
<!-- 42&#45;&gt;43 -->
<g id="edge27" class="edge">
<title>42&#45;&gt;43</title>
<path fill="none" stroke="#000000" d="M369,-1223.8314C369,-1216.131 369,-1206.9743 369,-1198.4166"/>
<polygon fill="#000000" stroke="#000000" points="372.5001,-1198.4132 369,-1188.4133 365.5001,-1198.4133 372.5001,-1198.4132"/>
</g>
<!-- 46 -->
<g id="node30" class="node">
<title>46</title>
<ellipse fill="none" stroke="#000000" cx="441" cy="-1170" rx="27" ry="18"/>
<text text-anchor="middle" x="441" y="-1166.3" font-family="Arial" font-size="14.00" fill="#000000">46</text>
</g>
<!-- 48&#45;&gt;46 -->
<g id="edge29" class="edge">
<title>48&#45;&gt;46</title>
<path fill="none" stroke="#000000" d="M441,-1223.8314C441,-1216.131 441,-1206.9743 441,-1198.4166"/>
<polygon fill="#000000" stroke="#000000" points="444.5001,-1198.4132 441,-1188.4133 437.5001,-1198.4133 444.5001,-1198.4132"/>
</g>
<!-- 49 -->
<g id="node33" class="node">
<title>49</title>
<ellipse fill="none" stroke="#000000" cx="513" cy="-1170" rx="27" ry="18"/>
<text text-anchor="middle" x="513" y="-1166.3" font-family="Arial" font-size="14.00" fill="#000000">49</text>
</g>
<!-- 48&#45;&gt;49 -->
<g id="edge32" class="edge">
<title>48&#45;&gt;49</title>
<path fill="none" stroke="#000000" d="M456.2693,-1226.7307C466.197,-1216.803 479.3153,-1203.6847 490.4363,-1192.5637"/>
<polygon fill="#000000" stroke="#000000" points="493.1564,-1194.7933 497.7527,-1185.2473 488.2067,-1189.8436 493.1564,-1194.7933"/>
</g>
<!-- 45 -->
<g id="node31" class="node">
<title>45</title>
<ellipse fill="none" stroke="#000000" cx="369" cy="-1098" rx="27" ry="18"/>
<text text-anchor="middle" x="369" y="-1094.3" font-family="Arial" font-size="14.00" fill="#000000">45</text>
</g>
<!-- 46&#45;&gt;45 -->
<g id="edge30" class="edge">
<title>46&#45;&gt;45</title>
<path fill="none" stroke="#000000" d="M425.7307,-1154.7307C415.803,-1144.803 402.6847,-1131.6847 391.5637,-1120.5637"/>
<polygon fill="#000000" stroke="#000000" points="393.7933,-1117.8436 384.2473,-1113.2473 388.8436,-1122.7933 393.7933,-1117.8436"/>
</g>
<!-- 47 -->
<g id="node32" class="node">
<title>47</title>
<ellipse fill="none" stroke="#000000" cx="441" cy="-1098" rx="27" ry="18"/>
<text text-anchor="middle" x="441" y="-1094.3" font-family="Arial" font-size="14.00" fill="#000000">47</text>
</g>
<!-- 46&#45;&gt;47 -->
<g id="edge31" class="edge">
<title>46&#45;&gt;47</title>
<path fill="none" stroke="#000000" d="M441,-1151.8314C441,-1144.131 441,-1134.9743 441,-1126.4166"/>
<polygon fill="#000000" stroke="#000000" points="444.5001,-1126.4132 441,-1116.4133 437.5001,-1126.4133 444.5001,-1126.4132"/>
</g>
<!-- 52 -->
<g id="node34" class="node">
<title>52</title>
<ellipse fill="none" stroke="#000000" cx="513" cy="-1098" rx="27" ry="18"/>
<text text-anchor="middle" x="513" y="-1094.3" font-family="Arial" font-size="14.00" fill="#000000">52</text>
</g>
<!-- 49&#45;&gt;52 -->
<g id="edge33" class="edge">
<title>49&#45;&gt;52</title>
<path fill="none" stroke="#000000" d="M513,-1151.8314C513,-1144.131 513,-1134.9743 513,-1126.4166"/>
<polygon fill="#000000" stroke="#000000" points="516.5001,-1126.4132 513,-1116.4133 509.5001,-1126.4133 516.5001,-1126.4132"/>
</g>
<!-- 50 -->
<g id="node35" class="node">
<title>50</title>
<ellipse fill="none" stroke="#000000" cx="477" cy="-1026" rx="27" ry="18"/>
<text text-anchor="middle" x="477" y="-1022.3" font-family="Arial" font-size="14.00" fill="#000000">50</text>
</g>
<!-- 52&#45;&gt;50 -->
<g id="edge34" class="edge">
<title>52&#45;&gt;50</title>
<path fill="none" stroke="#000000" d="M504.2854,-1080.5708C500.0403,-1072.0807 494.8464,-1061.6929 490.1337,-1052.2674"/>
<polygon fill="#000000" stroke="#000000" points="493.237,-1050.6477 485.6343,-1043.2687 486.976,-1053.7782 493.237,-1050.6477"/>
</g>
<!-- 54 -->
<g id="node37" class="node">
<title>54</title>
<ellipse fill="none" stroke="#000000" cx="549" cy="-1026" rx="27" ry="18"/>
<text text-anchor="middle" x="549" y="-1022.3" font-family="Arial" font-size="14.00" fill="#000000">54</text>
</g>
<!-- 52&#45;&gt;54 -->
<g id="edge36" class="edge">
<title>52&#45;&gt;54</title>
<path fill="none" stroke="#000000" d="M521.7146,-1080.5708C525.9597,-1072.0807 531.1536,-1061.6929 535.8663,-1052.2674"/>
<polygon fill="#000000" stroke="#000000" points="539.024,-1053.7782 540.3657,-1043.2687 532.763,-1050.6477 539.024,-1053.7782"/>
</g>
<!-- 51 -->
<g id="node36" class="node">
<title>51</title>
<ellipse fill="none" stroke="#000000" cx="477" cy="-954" rx="27" ry="18"/>
<text text-anchor="middle" x="477" y="-950.3" font-family="Arial" font-size="14.00" fill="#000000">51</text>
</g>
<!-- 50&#45;&gt;51 -->
<g id="edge35" class="edge">
<title>50&#45;&gt;51</title>
<path fill="none" stroke="#000000" d="M477,-1007.8314C477,-1000.131 477,-990.9743 477,-982.4166"/>
<polygon fill="#000000" stroke="#000000" points="480.5001,-982.4132 477,-972.4133 473.5001,-982.4133 480.5001,-982.4132"/>
</g>
<!-- 53 -->
<g id="node38" class="node">
<title>53</title>
<ellipse fill="none" stroke="#000000" cx="549" cy="-954" rx="27" ry="18"/>
<text text-anchor="middle" x="549" y="-950.3" font-family="Arial" font-size="14.00" fill="#000000">53</text>
</g>
<!-- 54&#45;&gt;53 -->
<g id="edge37" class="edge">
<title>54&#45;&gt;53</title>
<path fill="none" stroke="#000000" d="M549,-1007.8314C549,-1000.131 549,-990.9743 549,-982.4166"/>
<polygon fill="#000000" stroke="#000000" points="552.5001,-982.4132 549,-972.4133 545.5001,-982.4133 552.5001,-982.4132"/>
</g>
<!-- 56 -->
<g id="node39" class="node">
<title>56</title>
<ellipse fill="none" stroke="#000000" cx="621" cy="-954" rx="27" ry="18"/>
<text text-anchor="middle" x="621" y="-950.3" font-family="Arial" font-size="14.00" fill="#000000">56</text>
</g>
<!-- 54&#45;&gt;56 -->
<g id="edge38" class="edge">
<title>54&#45;&gt;56</title>
<path fill="none" stroke="#000000" d="M564.2693,-1010.7307C574.197,-1000.803 587.3153,-987.6847 598.4363,-976.5637"/>
<polygon fill="#000000" stroke="#000000" points="601.1564,-978.7933 605.7527,-969.2473 596.2067,-973.8436 601.1564,-978.7933"/>
</g>
<!-- 55 -->
<g id="node40" class="node">
<title>55</title>
<ellipse fill="none" stroke="#000000" cx="585" cy="-882" rx="27" ry="18"/>
<text text-anchor="middle" x="585" y="-878.3" font-family="Arial" font-size="14.00" fill="#000000">55</text>
</g>
<!-- 56&#45;&gt;55 -->
<g id="edge39" class="edge">
<title>56&#45;&gt;55</title>
<path fill="none" stroke="#000000" d="M612.2854,-936.5708C608.0403,-928.0807 602.8464,-917.6929 598.1337,-908.2674"/>
<polygon fill="#000000" stroke="#000000" points="601.237,-906.6477 593.6343,-899.2687 594.976,-909.7782 601.237,-906.6477"/>
</g>
<!-- 64 -->
<g id="node41" class="node">
<title>64</title>
<ellipse fill="none" stroke="#000000" cx="657" cy="-882" rx="27" ry="18"/>
<text text-anchor="middle" x="657" y="-878.3" font-family="Arial" font-size="14.00" fill="#000000">64</text>
</g>
<!-- 56&#45;&gt;64 -->
<g id="edge40" class="edge">
<title>56&#45;&gt;64</title>
<path fill="none" stroke="#000000" d="M629.7146,-936.5708C633.9597,-928.0807 639.1536,-917.6929 643.8663,-908.2674"/>
<polygon fill="#000000" stroke="#000000" points="647.024,-909.7782 648.3657,-899.2687 640.763,-906.6477 647.024,-909.7782"/>
</g>
<!-- 58 -->
<g id="node42" class="node">
<title>58</title>
<ellipse fill="none" stroke="#000000" cx="621" cy="-810" rx="27" ry="18"/>
<text text-anchor="middle" x="621" y="-806.3" font-family="Arial" font-size="14.00" fill="#000000">58</text>
</g>
<!-- 64&#45;&gt;58 -->
<g id="edge41" class="edge">
<title>64&#45;&gt;58</title>
<path fill="none" stroke="#000000" d="M648.2854,-864.5708C644.0403,-856.0807 638.8464,-845.6929 634.1337,-836.2674"/>
<polygon fill="#000000" stroke="#000000" points="637.237,-834.6477 629.6343,-827.2687 630.976,-837.7782 637.237,-834.6477"/>
</g>
<!-- 65 -->
<g id="node49" class="node">
<title>65</title>
<ellipse fill="none" stroke="#000000" cx="693" cy="-810" rx="27" ry="18"/>
<text text-anchor="middle" x="693" y="-806.3" font-family="Arial" font-size="14.00" fill="#000000">65</text>
</g>
<!-- 64&#45;&gt;65 -->
<g id="edge48" class="edge">
<title>64&#45;&gt;65</title>
<path fill="none" stroke="#000000" d="M665.7146,-864.5708C669.9597,-856.0807 675.1536,-845.6929 679.8663,-836.2674"/>
<polygon fill="#000000" stroke="#000000" points="683.024,-837.7782 684.3657,-827.2687 676.763,-834.6477 683.024,-837.7782"/>
</g>
<!-- 57 -->
<g id="node43" class="node">
<title>57</title>
<ellipse fill="none" stroke="#000000" cx="549" cy="-738" rx="27" ry="18"/>
<text text-anchor="middle" x="549" y="-734.3" font-family="Arial" font-size="14.00" fill="#000000">57</text>
</g>
<!-- 58&#45;&gt;57 -->
<g id="edge42" class="edge">
<title>58&#45;&gt;57</title>
<path fill="none" stroke="#000000" d="M605.7307,-794.7307C595.803,-784.803 582.6847,-771.6847 571.5637,-760.5637"/>
<polygon fill="#000000" stroke="#000000" points="573.7933,-757.8436 564.2473,-753.2473 568.8436,-762.7933 573.7933,-757.8436"/>
</g>
<!-- 60 -->
<g id="node44" class="node">
<title>60</title>
<ellipse fill="none" stroke="#000000" cx="621" cy="-738" rx="27" ry="18"/>
<text text-anchor="middle" x="621" y="-734.3" font-family="Arial" font-size="14.00" fill="#000000">60</text>
</g>
<!-- 58&#45;&gt;60 -->
<g id="edge43" class="edge">
<title>58&#45;&gt;60</title>
<path fill="none" stroke="#000000" d="M621,-791.8314C621,-784.131 621,-774.9743 621,-766.4166"/>
<polygon fill="#000000" stroke="#000000" points="624.5001,-766.4132 621,-756.4133 617.5001,-766.4133 624.5001,-766.4132"/>
</g>
<!-- 59 -->
<g id="node45" class="node">
<title>59</title>
<ellipse fill="none" stroke="#000000" cx="549" cy="-666" rx="27" ry="18"/>
<text text-anchor="middle" x="549" y="-662.3" font-family="Arial" font-size="14.00" fill="#000000">59</text>
</g>
<!-- 60&#45;&gt;59 -->
<g id="edge44" class="edge">
<title>60&#45;&gt;59</title>
<path fill="none" stroke="#000000" d="M605.7307,-722.7307C595.803,-712.803 582.6847,-699.6847 571.5637,-688.5637"/>
<polygon fill="#000000" stroke="#000000" points="573.7933,-685.8436 564.2473,-681.2473 568.8436,-690.7933 573.7933,-685.8436"/>
</g>
<!-- 62 -->
<g id="node46" class="node">
<title>62</title>
<ellipse fill="none" stroke="#000000" cx="621" cy="-666" rx="27" ry="18"/>
<text text-anchor="middle" x="621" y="-662.3" font-family="Arial" font-size="14.00" fill="#000000">62</text>
</g>
<!-- 60&#45;&gt;62 -->
<g id="edge45" class="edge">
<title>60&#45;&gt;62</title>
<path fill="none" stroke="#000000" d="M621,-719.8314C621,-712.131 621,-702.9743 621,-694.4166"/>
<polygon fill="#000000" stroke="#000000" points="624.5001,-694.4132 621,-684.4133 617.5001,-694.4133 624.5001,-694.4132"/>
</g>
<!-- 61 -->
<g id="node47" class="node">
<title>61</title>
<ellipse fill="none" stroke="#000000" cx="549" cy="-594" rx="27" ry="18"/>
<text text-anchor="middle" x="549" y="-590.3" font-family="Arial" font-size="14.00" fill="#000000">61</text>
</g>
<!-- 62&#45;&gt;61 -->
<g id="edge46" class="edge">
<title>62&#45;&gt;61</title>
<path fill="none" stroke="#000000" d="M605.7307,-650.7307C595.803,-640.803 582.6847,-627.6847 571.5637,-616.5637"/>
<polygon fill="#000000" stroke="#000000" points="573.7933,-613.8436 564.2473,-609.2473 568.8436,-618.7933 573.7933,-613.8436"/>
</g>
<!-- 63 -->
<g id="node48" class="node">
<title>63</title>
<ellipse fill="none" stroke="#000000" cx="621" cy="-594" rx="27" ry="18"/>
<text text-anchor="middle" x="621" y="-590.3" font-family="Arial" font-size="14.00" fill="#000000">63</text>
</g>
<!-- 62&#45;&gt;63 -->
<g id="edge47" class="edge">
<title>62&#45;&gt;63</title>
<path fill="none" stroke="#000000" d="M621,-647.8314C621,-640.131 621,-630.9743 621,-622.4166"/>
<polygon fill="#000000" stroke="#000000" points="624.5001,-622.4132 621,-612.4133 617.5001,-622.4133 624.5001,-622.4132"/>
</g>
<!-- 66 -->
<g id="node50" class="node">
<title>66</title>
<ellipse fill="none" stroke="#000000" cx="693" cy="-738" rx="27" ry="18"/>
<text text-anchor="middle" x="693" y="-734.3" font-family="Arial" font-size="14.00" fill="#000000">66</text>
</g>
<!-- 65&#45;&gt;66 -->
<g id="edge49" class="edge">
<title>65&#45;&gt;66</title>
<path fill="none" stroke="#000000" d="M693,-791.8314C693,-784.131 693,-774.9743 693,-766.4166"/>
<polygon fill="#000000" stroke="#000000" points="696.5001,-766.4132 693,-756.4133 689.5001,-766.4133 696.5001,-766.4132"/>
</g>
<!-- 81 -->
<g id="node51" class="node">
<title>81</title>
<ellipse fill="none" stroke="#000000" cx="693" cy="-666" rx="27" ry="18"/>
<text text-anchor="middle" x="693" y="-662.3" font-family="Arial" font-size="14.00" fill="#000000">81</text>
</g>
<!-- 66&#45;&gt;81 -->
<g id="edge50" class="edge">
<title>66&#45;&gt;81</title>
<path fill="none" stroke="#000000" d="M693,-719.8314C693,-712.131 693,-702.9743 693,-694.4166"/>
<polygon fill="#000000" stroke="#000000" points="696.5001,-694.4132 693,-684.4133 689.5001,-694.4133 696.5001,-694.4132"/>
</g>
<!-- 80 -->
<g id="node52" class="node">
<title>80</title>
<ellipse fill="none" stroke="#000000" cx="693" cy="-594" rx="27" ry="18"/>
<text text-anchor="middle" x="693" y="-590.3" font-family="Arial" font-size="14.00" fill="#000000">80</text>
</g>
<!-- 81&#45;&gt;80 -->
<g id="edge51" class="edge">
<title>81&#45;&gt;80</title>
<path fill="none" stroke="#000000" d="M693,-647.8314C693,-640.131 693,-630.9743 693,-622.4166"/>
<polygon fill="#000000" stroke="#000000" points="696.5001,-622.4132 693,-612.4133 689.5001,-622.4133 696.5001,-622.4132"/>
</g>
<!-- 88 -->
<g id="node53" class="node">
<title>88</title>
<ellipse fill="none" stroke="#000000" cx="765" cy="-594" rx="27" ry="18"/>
<text text-anchor="middle" x="765" y="-590.3" font-family="Arial" font-size="14.00" fill="#000000">88</text>
</g>
<!-- 81&#45;&gt;88 -->
<g id="edge52" class="edge">
<title>81&#45;&gt;88</title>
<path fill="none" stroke="#000000" d="M708.2693,-650.7307C718.197,-640.803 731.3153,-627.6847 742.4363,-616.5637"/>
<polygon fill="#000000" stroke="#000000" points="745.1564,-618.7933 749.7527,-609.2473 740.2067,-613.8436 745.1564,-618.7933"/>
</g>
<!-- 96 -->
<g id="node54" class="node">
<title>96</title>
<ellipse fill="none" stroke="#000000" cx="765" cy="-522" rx="27" ry="18"/>
<text text-anchor="middle" x="765" y="-518.3" font-family="Arial" font-size="14.00" fill="#000000">96</text>
</g>
<!-- 88&#45;&gt;96 -->
<g id="edge53" class="edge">
<title>88&#45;&gt;96</title>
<path fill="none" stroke="#000000" d="M765,-575.8314C765,-568.131 765,-558.9743 765,-550.4166"/>
<polygon fill="#000000" stroke="#000000" points="768.5001,-550.4132 765,-540.4133 761.5001,-550.4133 768.5001,-550.4132"/>
</g>
<!-- 112 -->
<g id="node55" class="node">
<title>112</title>
<ellipse fill="none" stroke="#000000" cx="765" cy="-450" rx="27" ry="18"/>
<text text-anchor="middle" x="765" y="-446.3" font-family="Arial" font-size="14.00" fill="#000000">112</text>
</g>
<!-- 96&#45;&gt;112 -->
<g id="edge54" class="edge">
<title>96&#45;&gt;112</title>
<path fill="none" stroke="#000000" d="M765,-503.8314C765,-496.131 765,-486.9743 765,-478.4166"/>
<polygon fill="#000000" stroke="#000000" points="768.5001,-478.4132 765,-468.4133 761.5001,-478.4133 768.5001,-478.4132"/>
</g>
<!-- 110 -->
<g id="node56" class="node">
<title>110</title>
<ellipse fill="none" stroke="#000000" cx="729" cy="-378" rx="27" ry="18"/>
<text text-anchor="middle" x="729" y="-374.3" font-family="Arial" font-size="14.00" fill="#000000">110</text>
</g>
<!-- 112&#45;&gt;110 -->
<g id="edge55" class="edge">
<title>112&#45;&gt;110</title>
<path fill="none" stroke="#000000" d="M756.2854,-432.5708C752.0403,-424.0807 746.8464,-413.6929 742.1337,-404.2674"/>
<polygon fill="#000000" stroke="#000000" points="745.237,-402.6477 737.6343,-395.2687 738.976,-405.7782 745.237,-402.6477"/>
</g>
<!-- 126 -->
<g id="node57" class="node">
<title>126</title>
<ellipse fill="none" stroke="#000000" cx="801" cy="-378" rx="27" ry="18"/>
<text text-anchor="middle" x="801" y="-374.3" font-family="Arial" font-size="14.00" fill="#000000">126</text>
</g>
<!-- 112&#45;&gt;126 -->
<g id="edge56" class="edge">
<title>112&#45;&gt;126</title>
<path fill="none" stroke="#000000" d="M773.7146,-432.5708C777.9597,-424.0807 783.1536,-413.6929 787.8663,-404.2674"/>
<polygon fill="#000000" stroke="#000000" points="791.024,-405.7782 792.3657,-395.2687 784.763,-402.6477 791.024,-405.7782"/>
</g>
<!-- 120 -->
<g id="node58" class="node">
<title>120</title>
<ellipse fill="none" stroke="#000000" cx="765" cy="-306" rx="27" ry="18"/>
<text text-anchor="middle" x="765" y="-302.3" font-family="Arial" font-size="14.00" fill="#000000">120</text>
</g>
<!-- 126&#45;&gt;120 -->
<g id="edge57" class="edge">
<title>126&#45;&gt;120</title>
<path fill="none" stroke="#000000" d="M792.2854,-360.5708C788.0403,-352.0807 782.8464,-341.6929 778.1337,-332.2674"/>
<polygon fill="#000000" stroke="#000000" points="781.237,-330.6477 773.6343,-323.2687 774.976,-333.7782 781.237,-330.6477"/>
</g>
<!-- 127 -->
<g id="node64" class="node">
<title>127</title>
<ellipse fill="none" stroke="#000000" cx="837" cy="-306" rx="27" ry="18"/>
<text text-anchor="middle" x="837" y="-302.3" font-family="Arial" font-size="14.00" fill="#000000">127</text>
</g>
<!-- 126&#45;&gt;127 -->
<g id="edge63" class="edge">
<title>126&#45;&gt;127</title>
<path fill="none" stroke="#000000" d="M809.7146,-360.5708C813.9597,-352.0807 819.1536,-341.6929 823.8663,-332.2674"/>
<polygon fill="#000000" stroke="#000000" points="827.024,-333.7782 828.3657,-323.2687 820.763,-330.6477 827.024,-333.7782"/>
</g>
<!-- 124 -->
<g id="node59" class="node">
<title>124</title>
<ellipse fill="none" stroke="#000000" cx="765" cy="-234" rx="27" ry="18"/>
<text text-anchor="middle" x="765" y="-230.3" font-family="Arial" font-size="14.00" fill="#000000">124</text>
</g>
<!-- 120&#45;&gt;124 -->
<g id="edge58" class="edge">
<title>120&#45;&gt;124</title>
<path fill="none" stroke="#000000" d="M765,-287.8314C765,-280.131 765,-270.9743 765,-262.4166"/>
<polygon fill="#000000" stroke="#000000" points="768.5001,-262.4132 765,-252.4133 761.5001,-262.4133 768.5001,-262.4132"/>
</g>
<!-- 121 -->
<g id="node60" class="node">
<title>121</title>
<ellipse fill="none" stroke="#000000" cx="729" cy="-162" rx="27" ry="18"/>
<text text-anchor="middle" x="729" y="-158.3" font-family="Arial" font-size="14.00" fill="#000000">121</text>
</g>
<!-- 124&#45;&gt;121 -->
<g id="edge59" class="edge">
<title>124&#45;&gt;121</title>
<path fill="none" stroke="#000000" d="M756.2854,-216.5708C752.0403,-208.0807 746.8464,-197.6929 742.1337,-188.2674"/>
<polygon fill="#000000" stroke="#000000" points="745.237,-186.6477 737.6343,-179.2687 738.976,-189.7782 745.237,-186.6477"/>
</g>
<!-- 125 -->
<g id="node63" class="node">
<title>125</title>
<ellipse fill="none" stroke="#000000" cx="801" cy="-162" rx="27" ry="18"/>
<text text-anchor="middle" x="801" y="-158.3" font-family="Arial" font-size="14.00" fill="#000000">125</text>
</g>
<!-- 124&#45;&gt;125 -->
<g id="edge62" class="edge">
<title>124&#45;&gt;125</title>
<path fill="none" stroke="#000000" d="M773.7146,-216.5708C777.9597,-208.0807 783.1536,-197.6929 787.8663,-188.2674"/>
<polygon fill="#000000" stroke="#000000" points="791.024,-189.7782 792.3657,-179.2687 784.763,-186.6477 791.024,-189.7782"/>
</g>
<!-- 122 -->
<g id="node61" class="node">
<title>122</title>
<ellipse fill="none" stroke="#000000" cx="729" cy="-90" rx="27" ry="18"/>
<text text-anchor="middle" x="729" y="-86.3" font-family="Arial" font-size="14.00" fill="#000000">122</text>
</g>
<!-- 121&#45;&gt;122 -->
<g id="edge60" class="edge">
<title>121&#45;&gt;122</title>
<path fill="none" stroke="#000000" d="M729,-143.8314C729,-136.131 729,-126.9743 729,-118.4166"/>
<polygon fill="#000000" stroke="#000000" points="732.5001,-118.4132 729,-108.4133 725.5001,-118.4133 732.5001,-118.4132"/>
</g>
<!-- 123 -->
<g id="node62" class="node">
<title>123</title>
<ellipse fill="none" stroke="#000000" cx="729" cy="-18" rx="27" ry="18"/>
<text text-anchor="middle" x="729" y="-14.3" font-family="Arial" font-size="14.00" fill="#000000">123</text>
</g>
<!-- 122&#45;&gt;123 -->
<g id="edge61" class="edge">
<title>122&#45;&gt;123</title>
<path fill="none" stroke="#000000" d="M729,-71.8314C729,-64.131 729,-54.9743 729,-46.4166"/>
<polygon fill="#000000" stroke="#000000" points="732.5001,-46.4132 729,-36.4133 725.5001,-46.4133 732.5001,-46.4132"/>
</g>
<!-- 128 -->
<g id="node65" class="node">
<title>128</title>
<ellipse fill="none" stroke="#000000" cx="837" cy="-234" rx="27" ry="18"/>
<text text-anchor="middle" x="837" y="-230.3" font-family="Arial" font-size="14.00" fill="#000000">128</text>
</g>
<!-- 127&#45;&gt;128 -->
<g id="edge64" class="edge">
<title>127&#45;&gt;128</title>
<path fill="none" stroke="#000000" d="M837,-287.8314C837,-280.131 837,-270.9743 837,-262.4166"/>
<polygon fill="#000000" stroke="#000000" points="840.5001,-262.4132 837,-252.4133 833.5001,-262.4133 840.5001,-262.4132"/>
</g>
</g>
</svg>
