<?xml version="1.0" encoding="utf-8" standalone="no"?>
<!DOCTYPE svg PUBLIC "-//W3C//DTD SVG 1.1//EN"
  "http://www.w3.org/Graphics/SVG/1.1/DTD/svg11.dtd">
<!-- Created with matplotlib (http://matplotlib.org/) -->
<svg height="325pt" version="1.1" viewBox="0 0 416 325" width="416pt" xmlns="http://www.w3.org/2000/svg" xmlns:xlink="http://www.w3.org/1999/xlink">
 <defs>
  <style type="text/css">
*{stroke-linecap:butt;stroke-linejoin:round;}
  </style>
 </defs>
 <g id="figure_1">
  <g id="patch_1">
   <path d="M 0 325.986375 
L 416.506419 325.986375 
L 416.506419 0 
L 0 0 
z
" style="fill:#ffffff;"/>
  </g>
  <g id="axes_1">
   <g id="patch_2">
    <path d="M 40.603125 288.430125 
L 397.723125 288.430125 
L 397.723125 22.318125 
L 40.603125 22.318125 
z
" style="fill:#ffffff;"/>
   </g>
   <g id="PathCollection_1">
    <defs>
     <path d="M 0 3 
C 0.795609 3 1.55874 2.683901 2.12132 2.12132 
C 2.683901 1.55874 3 0.795609 3 0 
C 3 -0.795609 2.683901 -1.55874 2.12132 -2.12132 
C 1.55874 -2.683901 0.795609 -3 0 -3 
C -0.795609 -3 -1.55874 -2.683901 -2.12132 -2.12132 
C -2.683901 -1.55874 -3 -0.795609 -3 0 
C -3 0.795609 -2.683901 1.55874 -2.12132 2.12132 
C -1.55874 2.683901 -0.795609 3 0 3 
z
" id="C0_0_c288afd7a5"/>
    </defs>
    <g clip-path="url(#p6691c4cd51)">
     <use style="fill:#ff0000;fill-opacity:0.5;" x="58.995852" xlink:href="#C0_0_c288afd7a5" y="158.089502"/>
    </g>
    <g clip-path="url(#p6691c4cd51)">
     <use style="fill:#ff0000;fill-opacity:0.5;" x="77.839061" xlink:href="#C0_0_c288afd7a5" y="151.956744"/>
    </g>
    <g clip-path="url(#p6691c4cd51)">
     <use style="fill:#ff0000;fill-opacity:0.5;" x="96.682269" xlink:href="#C0_0_c288afd7a5" y="145.699475"/>
    </g>
    <g clip-path="url(#p6691c4cd51)">
     <use style="fill:#ff0000;fill-opacity:0.5;" x="115.525478" xlink:href="#C0_0_c288afd7a5" y="139.334411"/>
    </g>
    <g clip-path="url(#p6691c4cd51)">
     <use style="fill:#ff0000;fill-opacity:0.5;" x="134.368686" xlink:href="#C0_0_c288afd7a5" y="132.90586"/>
    </g>
    <g clip-path="url(#p6691c4cd51)">
     <use style="fill:#ff0000;fill-opacity:0.5;" x="153.211895" xlink:href="#C0_0_c288afd7a5" y="126.277202"/>
    </g>
    <g clip-path="url(#p6691c4cd51)">
     <use style="fill:#ff0000;fill-opacity:0.5;" x="172.055104" xlink:href="#C0_0_c288afd7a5" y="119.494613"/>
    </g>
    <g clip-path="url(#p6691c4cd51)">
     <use style="fill:#ff0000;fill-opacity:0.5;" x="190.898312" xlink:href="#C0_0_c288afd7a5" y="112.535659"/>
    </g>
    <g clip-path="url(#p6691c4cd51)">
     <use style="fill:#ff0000;fill-opacity:0.5;" x="209.741521" xlink:href="#C0_0_c288afd7a5" y="105.465099"/>
    </g>
    <g clip-path="url(#p6691c4cd51)">
     <use style="fill:#ff0000;fill-opacity:0.5;" x="228.584729" xlink:href="#C0_0_c288afd7a5" y="98.41709"/>
    </g>
    <g clip-path="url(#p6691c4cd51)">
     <use style="fill:#ff0000;fill-opacity:0.5;" x="247.427938" xlink:href="#C0_0_c288afd7a5" y="91.155158"/>
    </g>
    <g clip-path="url(#p6691c4cd51)">
     <use style="fill:#ff0000;fill-opacity:0.5;" x="266.271146" xlink:href="#C0_0_c288afd7a5" y="83.681525"/>
    </g>
    <g clip-path="url(#p6691c4cd51)">
     <use style="fill:#ff0000;fill-opacity:0.5;" x="285.114355" xlink:href="#C0_0_c288afd7a5" y="75.959744"/>
    </g>
    <g clip-path="url(#p6691c4cd51)">
     <use style="fill:#ff0000;fill-opacity:0.5;" x="303.957564" xlink:href="#C0_0_c288afd7a5" y="67.717011"/>
    </g>
    <g clip-path="url(#p6691c4cd51)">
     <use style="fill:#ff0000;fill-opacity:0.5;" x="322.800772" xlink:href="#C0_0_c288afd7a5" y="59.65747"/>
    </g>
    <g clip-path="url(#p6691c4cd51)">
     <use style="fill:#ff0000;fill-opacity:0.5;" x="341.643981" xlink:href="#C0_0_c288afd7a5" y="51.596301"/>
    </g>
    <g clip-path="url(#p6691c4cd51)">
     <use style="fill:#ff0000;fill-opacity:0.5;" x="360.487189" xlink:href="#C0_0_c288afd7a5" y="43.060633"/>
    </g>
    <g clip-path="url(#p6691c4cd51)">
     <use style="fill:#ff0000;fill-opacity:0.5;" x="379.330398" xlink:href="#C0_0_c288afd7a5" y="34.446352"/>
    </g>
   </g>
   <g id="PathCollection_2">
    <defs>
     <path d="M 0 3 
C 0.795609 3 1.55874 2.683901 2.12132 2.12132 
C 2.683901 1.55874 3 0.795609 3 0 
C 3 -0.795609 2.683901 -1.55874 2.12132 -2.12132 
C 1.55874 -2.683901 0.795609 -3 0 -3 
C -0.795609 -3 -1.55874 -2.683901 -2.12132 -2.12132 
C -2.683901 -1.55874 -3 -0.795609 -3 0 
C -3 0.795609 -2.683901 1.55874 -2.12132 2.12132 
C -1.55874 2.683901 -0.795609 3 0 3 
z
" id="C1_0_16986b94f1"/>
    </defs>
    <g clip-path="url(#p6691c4cd51)">
     <use style="fill:#0000ff;fill-opacity:0.8;" x="58.995852" xlink:href="#C1_0_16986b94f1" y="210.944743"/>
    </g>
    <g clip-path="url(#p6691c4cd51)">
     <use style="fill:#0000ff;fill-opacity:0.8;" x="77.839061" xlink:href="#C1_0_16986b94f1" y="215.927125"/>
    </g>
    <g clip-path="url(#p6691c4cd51)">
     <use style="fill:#0000ff;fill-opacity:0.8;" x="96.682269" xlink:href="#C1_0_16986b94f1" y="219.153014"/>
    </g>
    <g clip-path="url(#p6691c4cd51)">
     <use style="fill:#0000ff;fill-opacity:0.8;" x="115.525478" xlink:href="#C1_0_16986b94f1" y="224.450128"/>
    </g>
    <g clip-path="url(#p6691c4cd51)">
     <use style="fill:#0000ff;fill-opacity:0.8;" x="134.368686" xlink:href="#C1_0_16986b94f1" y="221.431612"/>
    </g>
    <g clip-path="url(#p6691c4cd51)">
     <use style="fill:#0000ff;fill-opacity:0.8;" x="153.211895" xlink:href="#C1_0_16986b94f1" y="218.339524"/>
    </g>
    <g clip-path="url(#p6691c4cd51)">
     <use style="fill:#0000ff;fill-opacity:0.8;" x="172.055104" xlink:href="#C1_0_16986b94f1" y="215.236955"/>
    </g>
    <g clip-path="url(#p6691c4cd51)">
     <use style="fill:#0000ff;fill-opacity:0.8;" x="190.898312" xlink:href="#C1_0_16986b94f1" y="212.114256"/>
    </g>
    <g clip-path="url(#p6691c4cd51)">
     <use style="fill:#0000ff;fill-opacity:0.8;" x="209.741521" xlink:href="#C1_0_16986b94f1" y="209.02475"/>
    </g>
    <g clip-path="url(#p6691c4cd51)">
     <use style="fill:#0000ff;fill-opacity:0.8;" x="228.584729" xlink:href="#C1_0_16986b94f1" y="205.999087"/>
    </g>
    <g clip-path="url(#p6691c4cd51)">
     <use style="fill:#0000ff;fill-opacity:0.8;" x="247.427938" xlink:href="#C1_0_16986b94f1" y="203.018131"/>
    </g>
    <g clip-path="url(#p6691c4cd51)">
     <use style="fill:#0000ff;fill-opacity:0.8;" x="266.271146" xlink:href="#C1_0_16986b94f1" y="199.999297"/>
    </g>
    <g clip-path="url(#p6691c4cd51)">
     <use style="fill:#0000ff;fill-opacity:0.8;" x="285.114355" xlink:href="#C1_0_16986b94f1" y="197.016593"/>
    </g>
    <g clip-path="url(#p6691c4cd51)">
     <use style="fill:#0000ff;fill-opacity:0.8;" x="303.957564" xlink:href="#C1_0_16986b94f1" y="194.030833"/>
    </g>
    <g clip-path="url(#p6691c4cd51)">
     <use style="fill:#0000ff;fill-opacity:0.8;" x="322.800772" xlink:href="#C1_0_16986b94f1" y="190.985318"/>
    </g>
    <g clip-path="url(#p6691c4cd51)">
     <use style="fill:#0000ff;fill-opacity:0.8;" x="341.643981" xlink:href="#C1_0_16986b94f1" y="187.931624"/>
    </g>
    <g clip-path="url(#p6691c4cd51)">
     <use style="fill:#0000ff;fill-opacity:0.8;" x="360.487189" xlink:href="#C1_0_16986b94f1" y="184.897584"/>
    </g>
    <g clip-path="url(#p6691c4cd51)">
     <use style="fill:#0000ff;fill-opacity:0.8;" x="379.330398" xlink:href="#C1_0_16986b94f1" y="181.867752"/>
    </g>
   </g>
   <g id="PathCollection_3">
    <defs>
     <path d="M 0 3 
C 0.795609 3 1.55874 2.683901 2.12132 2.12132 
C 2.683901 1.55874 3 0.795609 3 0 
C 3 -0.795609 2.683901 -1.55874 2.12132 -2.12132 
C 1.55874 -2.683901 0.795609 -3 0 -3 
C -0.795609 -3 -1.55874 -2.683901 -2.12132 -2.12132 
C -2.683901 -1.55874 -3 -0.795609 -3 0 
C -3 0.795609 -2.683901 1.55874 -2.12132 2.12132 
C -1.55874 2.683901 -0.795609 3 0 3 
z
" id="C2_0_ec806fa328"/>
    </defs>
    <g clip-path="url(#p6691c4cd51)">
     <use style="fill:#a0522d;fill-opacity:0.5;" x="58.995852" xlink:href="#C2_0_ec806fa328" y="195.146031"/>
    </g>
    <g clip-path="url(#p6691c4cd51)">
     <use style="fill:#a0522d;fill-opacity:0.5;" x="77.839061" xlink:href="#C2_0_ec806fa328" y="195.146031"/>
    </g>
    <g clip-path="url(#p6691c4cd51)">
     <use style="fill:#a0522d;fill-opacity:0.5;" x="96.682269" xlink:href="#C2_0_ec806fa328" y="195.146031"/>
    </g>
    <g clip-path="url(#p6691c4cd51)">
     <use style="fill:#a0522d;fill-opacity:0.5;" x="115.525478" xlink:href="#C2_0_ec806fa328" y="195.146031"/>
    </g>
    <g clip-path="url(#p6691c4cd51)">
     <use style="fill:#a0522d;fill-opacity:0.5;" x="134.368686" xlink:href="#C2_0_ec806fa328" y="195.146031"/>
    </g>
    <g clip-path="url(#p6691c4cd51)">
     <use style="fill:#a0522d;fill-opacity:0.5;" x="153.211895" xlink:href="#C2_0_ec806fa328" y="195.146031"/>
    </g>
    <g clip-path="url(#p6691c4cd51)">
     <use style="fill:#a0522d;fill-opacity:0.5;" x="172.055104" xlink:href="#C2_0_ec806fa328" y="195.146031"/>
    </g>
    <g clip-path="url(#p6691c4cd51)">
     <use style="fill:#a0522d;fill-opacity:0.5;" x="190.898312" xlink:href="#C2_0_ec806fa328" y="195.146031"/>
    </g>
    <g clip-path="url(#p6691c4cd51)">
     <use style="fill:#a0522d;fill-opacity:0.5;" x="209.741521" xlink:href="#C2_0_ec806fa328" y="195.146031"/>
    </g>
    <g clip-path="url(#p6691c4cd51)">
     <use style="fill:#a0522d;fill-opacity:0.5;" x="228.584729" xlink:href="#C2_0_ec806fa328" y="195.146031"/>
    </g>
    <g clip-path="url(#p6691c4cd51)">
     <use style="fill:#a0522d;fill-opacity:0.5;" x="247.427938" xlink:href="#C2_0_ec806fa328" y="195.146031"/>
    </g>
    <g clip-path="url(#p6691c4cd51)">
     <use style="fill:#a0522d;fill-opacity:0.5;" x="266.271146" xlink:href="#C2_0_ec806fa328" y="195.146031"/>
    </g>
    <g clip-path="url(#p6691c4cd51)">
     <use style="fill:#a0522d;fill-opacity:0.5;" x="285.114355" xlink:href="#C2_0_ec806fa328" y="195.146031"/>
    </g>
    <g clip-path="url(#p6691c4cd51)">
     <use style="fill:#a0522d;fill-opacity:0.5;" x="303.957564" xlink:href="#C2_0_ec806fa328" y="195.146031"/>
    </g>
    <g clip-path="url(#p6691c4cd51)">
     <use style="fill:#a0522d;fill-opacity:0.5;" x="322.800772" xlink:href="#C2_0_ec806fa328" y="195.146031"/>
    </g>
    <g clip-path="url(#p6691c4cd51)">
     <use style="fill:#a0522d;fill-opacity:0.5;" x="341.643981" xlink:href="#C2_0_ec806fa328" y="195.146031"/>
    </g>
    <g clip-path="url(#p6691c4cd51)">
     <use style="fill:#a0522d;fill-opacity:0.5;" x="360.487189" xlink:href="#C2_0_ec806fa328" y="195.146031"/>
    </g>
    <g clip-path="url(#p6691c4cd51)">
     <use style="fill:#a0522d;fill-opacity:0.5;" x="379.330398" xlink:href="#C2_0_ec806fa328" y="195.146031"/>
    </g>
   </g>
   <g id="PathCollection_4">
    <defs>
     <path d="M 0 3 
C 0.795609 3 1.55874 2.683901 2.12132 2.12132 
C 2.683901 1.55874 3 0.795609 3 0 
C 3 -0.795609 2.683901 -1.55874 2.12132 -2.12132 
C 1.55874 -2.683901 0.795609 -3 0 -3 
C -0.795609 -3 -1.55874 -2.683901 -2.12132 -2.12132 
C -2.683901 -1.55874 -3 -0.795609 -3 0 
C -3 0.795609 -2.683901 1.55874 -2.12132 2.12132 
C -1.55874 2.683901 -0.795609 3 0 3 
z
" id="C3_0_857f445f95"/>
    </defs>
    <g clip-path="url(#p6691c4cd51)">
     <use style="fill:#00ffff;fill-opacity:0.8;" x="58.995852" xlink:href="#C3_0_857f445f95" y="235.47514"/>
    </g>
    <g clip-path="url(#p6691c4cd51)">
     <use style="fill:#00ffff;fill-opacity:0.8;" x="77.839061" xlink:href="#C3_0_857f445f95" y="238.464554"/>
    </g>
    <g clip-path="url(#p6691c4cd51)">
     <use style="fill:#00ffff;fill-opacity:0.8;" x="96.682269" xlink:href="#C3_0_857f445f95" y="241.035728"/>
    </g>
    <g clip-path="url(#p6691c4cd51)">
     <use style="fill:#00ffff;fill-opacity:0.8;" x="115.525478" xlink:href="#C3_0_857f445f95" y="244.760772"/>
    </g>
    <g clip-path="url(#p6691c4cd51)">
     <use style="fill:#00ffff;fill-opacity:0.8;" x="134.368686" xlink:href="#C3_0_857f445f95" y="244.610811"/>
    </g>
    <g clip-path="url(#p6691c4cd51)">
     <use style="fill:#00ffff;fill-opacity:0.8;" x="153.211895" xlink:href="#C3_0_857f445f95" y="244.43544"/>
    </g>
    <g clip-path="url(#p6691c4cd51)">
     <use style="fill:#00ffff;fill-opacity:0.8;" x="172.055104" xlink:href="#C3_0_857f445f95" y="244.251731"/>
    </g>
    <g clip-path="url(#p6691c4cd51)">
     <use style="fill:#00ffff;fill-opacity:0.8;" x="190.898312" xlink:href="#C3_0_857f445f95" y="244.065639"/>
    </g>
    <g clip-path="url(#p6691c4cd51)">
     <use style="fill:#00ffff;fill-opacity:0.8;" x="209.741521" xlink:href="#C3_0_857f445f95" y="243.885781"/>
    </g>
    <g clip-path="url(#p6691c4cd51)">
     <use style="fill:#00ffff;fill-opacity:0.8;" x="228.584729" xlink:href="#C3_0_857f445f95" y="243.730182"/>
    </g>
    <g clip-path="url(#p6691c4cd51)">
     <use style="fill:#00ffff;fill-opacity:0.8;" x="247.427938" xlink:href="#C3_0_857f445f95" y="243.596937"/>
    </g>
    <g clip-path="url(#p6691c4cd51)">
     <use style="fill:#00ffff;fill-opacity:0.8;" x="266.271146" xlink:href="#C3_0_857f445f95" y="243.443958"/>
    </g>
    <g clip-path="url(#p6691c4cd51)">
     <use style="fill:#00ffff;fill-opacity:0.8;" x="285.114355" xlink:href="#C3_0_857f445f95" y="243.306821"/>
    </g>
    <g clip-path="url(#p6691c4cd51)">
     <use style="fill:#00ffff;fill-opacity:0.8;" x="303.957564" xlink:href="#C3_0_857f445f95" y="243.164087"/>
    </g>
    <g clip-path="url(#p6691c4cd51)">
     <use style="fill:#00ffff;fill-opacity:0.8;" x="322.800772" xlink:href="#C3_0_857f445f95" y="242.991772"/>
    </g>
    <g clip-path="url(#p6691c4cd51)">
     <use style="fill:#00ffff;fill-opacity:0.8;" x="341.643981" xlink:href="#C3_0_857f445f95" y="242.830257"/>
    </g>
    <g clip-path="url(#p6691c4cd51)">
     <use style="fill:#00ffff;fill-opacity:0.8;" x="360.487189" xlink:href="#C3_0_857f445f95" y="242.666043"/>
    </g>
    <g clip-path="url(#p6691c4cd51)">
     <use style="fill:#00ffff;fill-opacity:0.8;" x="379.330398" xlink:href="#C3_0_857f445f95" y="242.5002"/>
    </g>
   </g>
   <g id="PathCollection_5">
    <defs>
     <path d="M 0 3 
C 0.795609 3 1.55874 2.683901 2.12132 2.12132 
C 2.683901 1.55874 3 0.795609 3 0 
C 3 -0.795609 2.683901 -1.55874 2.12132 -2.12132 
C 1.55874 -2.683901 0.795609 -3 0 -3 
C -0.795609 -3 -1.55874 -2.683901 -2.12132 -2.12132 
C -2.683901 -1.55874 -3 -0.795609 -3 0 
C -3 0.795609 -2.683901 1.55874 -2.12132 2.12132 
C -1.55874 2.683901 -0.795609 3 0 3 
z
" id="C4_0_ce812315e3"/>
    </defs>
    <g clip-path="url(#p6691c4cd51)">
     <use style="fill:#dda0dd;fill-opacity:0.5;" x="58.995852" xlink:href="#C4_0_ce812315e3" y="271.531334"/>
    </g>
    <g clip-path="url(#p6691c4cd51)">
     <use style="fill:#dda0dd;fill-opacity:0.5;" x="77.839061" xlink:href="#C4_0_ce812315e3" y="271.531969"/>
    </g>
    <g clip-path="url(#p6691c4cd51)">
     <use style="fill:#dda0dd;fill-opacity:0.5;" x="96.682269" xlink:href="#C4_0_ce812315e3" y="271.532366"/>
    </g>
    <g clip-path="url(#p6691c4cd51)">
     <use style="fill:#dda0dd;fill-opacity:0.5;" x="115.525478" xlink:href="#C4_0_ce812315e3" y="271.532406"/>
    </g>
    <g clip-path="url(#p6691c4cd51)">
     <use style="fill:#dda0dd;fill-opacity:0.5;" x="134.368686" xlink:href="#C4_0_ce812315e3" y="271.532604"/>
    </g>
    <g clip-path="url(#p6691c4cd51)">
     <use style="fill:#dda0dd;fill-opacity:0.5;" x="153.211895" xlink:href="#C4_0_ce812315e3" y="271.532406"/>
    </g>
    <g clip-path="url(#p6691c4cd51)">
     <use style="fill:#dda0dd;fill-opacity:0.5;" x="172.055104" xlink:href="#C4_0_ce812315e3" y="271.532445"/>
    </g>
    <g clip-path="url(#p6691c4cd51)">
     <use style="fill:#dda0dd;fill-opacity:0.5;" x="190.898312" xlink:href="#C4_0_ce812315e3" y="271.532445"/>
    </g>
    <g clip-path="url(#p6691c4cd51)">
     <use style="fill:#dda0dd;fill-opacity:0.5;" x="209.741521" xlink:href="#C4_0_ce812315e3" y="271.532644"/>
    </g>
    <g clip-path="url(#p6691c4cd51)">
     <use style="fill:#dda0dd;fill-opacity:0.5;" x="228.584729" xlink:href="#C4_0_ce812315e3" y="271.532644"/>
    </g>
    <g clip-path="url(#p6691c4cd51)">
     <use style="fill:#dda0dd;fill-opacity:0.5;" x="247.427938" xlink:href="#C4_0_ce812315e3" y="271.532684"/>
    </g>
    <g clip-path="url(#p6691c4cd51)">
     <use style="fill:#dda0dd;fill-opacity:0.5;" x="266.271146" xlink:href="#C4_0_ce812315e3" y="271.532604"/>
    </g>
    <g clip-path="url(#p6691c4cd51)">
     <use style="fill:#dda0dd;fill-opacity:0.5;" x="285.114355" xlink:href="#C4_0_ce812315e3" y="271.532604"/>
    </g>
    <g clip-path="url(#p6691c4cd51)">
     <use style="fill:#dda0dd;fill-opacity:0.5;" x="303.957564" xlink:href="#C4_0_ce812315e3" y="271.532564"/>
    </g>
    <g clip-path="url(#p6691c4cd51)">
     <use style="fill:#dda0dd;fill-opacity:0.5;" x="322.800772" xlink:href="#C4_0_ce812315e3" y="271.532445"/>
    </g>
    <g clip-path="url(#p6691c4cd51)">
     <use style="fill:#dda0dd;fill-opacity:0.5;" x="341.643981" xlink:href="#C4_0_ce812315e3" y="271.532485"/>
    </g>
    <g clip-path="url(#p6691c4cd51)">
     <use style="fill:#dda0dd;fill-opacity:0.5;" x="360.487189" xlink:href="#C4_0_ce812315e3" y="271.532485"/>
    </g>
    <g clip-path="url(#p6691c4cd51)">
     <use style="fill:#dda0dd;fill-opacity:0.5;" x="379.330398" xlink:href="#C4_0_ce812315e3" y="271.532406"/>
    </g>
   </g>
   <g id="PathCollection_6">
    <defs>
     <path d="M 0 3 
C 0.795609 3 1.55874 2.683901 2.12132 2.12132 
C 2.683901 1.55874 3 0.795609 3 0 
C 3 -0.795609 2.683901 -1.55874 2.12132 -2.12132 
C 1.55874 -2.683901 0.795609 -3 0 -3 
C -0.795609 -3 -1.55874 -2.683901 -2.12132 -2.12132 
C -2.683901 -1.55874 -3 -0.795609 -3 0 
C -3 0.795609 -2.683901 1.55874 -2.12132 2.12132 
C -1.55874 2.683901 -0.795609 3 0 3 
z
" id="C5_0_d0726d145d"/>
    </defs>
    <g clip-path="url(#p6691c4cd51)">
     <use style="fill:#008080;fill-opacity:0.8;" x="58.995852" xlink:href="#C5_0_d0726d145d" y="272.713909"/>
    </g>
    <g clip-path="url(#p6691c4cd51)">
     <use style="fill:#008080;fill-opacity:0.8;" x="77.839061" xlink:href="#C5_0_d0726d145d" y="272.24481"/>
    </g>
    <g clip-path="url(#p6691c4cd51)">
     <use style="fill:#008080;fill-opacity:0.8;" x="96.682269" xlink:href="#C5_0_d0726d145d" y="271.942783"/>
    </g>
    <g clip-path="url(#p6691c4cd51)">
     <use style="fill:#008080;fill-opacity:0.8;" x="115.525478" xlink:href="#C5_0_d0726d145d" y="271.532644"/>
    </g>
    <g clip-path="url(#p6691c4cd51)">
     <use style="fill:#008080;fill-opacity:0.8;" x="134.368686" xlink:href="#C5_0_d0726d145d" y="271.532684"/>
    </g>
    <g clip-path="url(#p6691c4cd51)">
     <use style="fill:#008080;fill-opacity:0.8;" x="153.211895" xlink:href="#C5_0_d0726d145d" y="271.532684"/>
    </g>
    <g clip-path="url(#p6691c4cd51)">
     <use style="fill:#008080;fill-opacity:0.8;" x="172.055104" xlink:href="#C5_0_d0726d145d" y="271.532684"/>
    </g>
    <g clip-path="url(#p6691c4cd51)">
     <use style="fill:#008080;fill-opacity:0.8;" x="190.898312" xlink:href="#C5_0_d0726d145d" y="271.532684"/>
    </g>
    <g clip-path="url(#p6691c4cd51)">
     <use style="fill:#008080;fill-opacity:0.8;" x="209.741521" xlink:href="#C5_0_d0726d145d" y="271.532684"/>
    </g>
    <g clip-path="url(#p6691c4cd51)">
     <use style="fill:#008080;fill-opacity:0.8;" x="228.584729" xlink:href="#C5_0_d0726d145d" y="271.532684"/>
    </g>
    <g clip-path="url(#p6691c4cd51)">
     <use style="fill:#008080;fill-opacity:0.8;" x="247.427938" xlink:href="#C5_0_d0726d145d" y="271.532684"/>
    </g>
    <g clip-path="url(#p6691c4cd51)">
     <use style="fill:#008080;fill-opacity:0.8;" x="266.271146" xlink:href="#C5_0_d0726d145d" y="271.532684"/>
    </g>
    <g clip-path="url(#p6691c4cd51)">
     <use style="fill:#008080;fill-opacity:0.8;" x="285.114355" xlink:href="#C5_0_d0726d145d" y="271.532684"/>
    </g>
    <g clip-path="url(#p6691c4cd51)">
     <use style="fill:#008080;fill-opacity:0.8;" x="303.957564" xlink:href="#C5_0_d0726d145d" y="271.532684"/>
    </g>
    <g clip-path="url(#p6691c4cd51)">
     <use style="fill:#008080;fill-opacity:0.8;" x="322.800772" xlink:href="#C5_0_d0726d145d" y="271.532684"/>
    </g>
    <g clip-path="url(#p6691c4cd51)">
     <use style="fill:#008080;fill-opacity:0.8;" x="341.643981" xlink:href="#C5_0_d0726d145d" y="271.532684"/>
    </g>
    <g clip-path="url(#p6691c4cd51)">
     <use style="fill:#008080;fill-opacity:0.8;" x="360.487189" xlink:href="#C5_0_d0726d145d" y="271.532684"/>
    </g>
    <g clip-path="url(#p6691c4cd51)">
     <use style="fill:#008080;fill-opacity:0.8;" x="379.330398" xlink:href="#C5_0_d0726d145d" y="271.532684"/>
    </g>
   </g>
   <g id="PathCollection_7">
    <defs>
     <path d="M 0 3 
C 0.795609 3 1.55874 2.683901 2.12132 2.12132 
C 2.683901 1.55874 3 0.795609 3 0 
C 3 -0.795609 2.683901 -1.55874 2.12132 -2.12132 
C 1.55874 -2.683901 0.795609 -3 0 -3 
C -0.795609 -3 -1.55874 -2.683901 -2.12132 -2.12132 
C -2.683901 -1.55874 -3 -0.795609 -3 0 
C -3 0.795609 -2.683901 1.55874 -2.12132 2.12132 
C -1.55874 2.683901 -0.795609 3 0 3 
z
" id="C6_0_acc590d908"/>
    </defs>
    <g clip-path="url(#p6691c4cd51)">
     <use style="fill:#dc143c;fill-opacity:0.5;" x="58.995852" xlink:href="#C6_0_acc590d908" y="274.187394"/>
    </g>
    <g clip-path="url(#p6691c4cd51)">
     <use style="fill:#dc143c;fill-opacity:0.5;" x="77.839061" xlink:href="#C6_0_acc590d908" y="274.187394"/>
    </g>
    <g clip-path="url(#p6691c4cd51)">
     <use style="fill:#dc143c;fill-opacity:0.5;" x="96.682269" xlink:href="#C6_0_acc590d908" y="274.187394"/>
    </g>
    <g clip-path="url(#p6691c4cd51)">
     <use style="fill:#dc143c;fill-opacity:0.5;" x="115.525478" xlink:href="#C6_0_acc590d908" y="274.187394"/>
    </g>
    <g clip-path="url(#p6691c4cd51)">
     <use style="fill:#dc143c;fill-opacity:0.5;" x="134.368686" xlink:href="#C6_0_acc590d908" y="274.187394"/>
    </g>
    <g clip-path="url(#p6691c4cd51)">
     <use style="fill:#dc143c;fill-opacity:0.5;" x="153.211895" xlink:href="#C6_0_acc590d908" y="274.187394"/>
    </g>
    <g clip-path="url(#p6691c4cd51)">
     <use style="fill:#dc143c;fill-opacity:0.5;" x="172.055104" xlink:href="#C6_0_acc590d908" y="274.187394"/>
    </g>
    <g clip-path="url(#p6691c4cd51)">
     <use style="fill:#dc143c;fill-opacity:0.5;" x="190.898312" xlink:href="#C6_0_acc590d908" y="274.187394"/>
    </g>
    <g clip-path="url(#p6691c4cd51)">
     <use style="fill:#dc143c;fill-opacity:0.5;" x="209.741521" xlink:href="#C6_0_acc590d908" y="274.187394"/>
    </g>
    <g clip-path="url(#p6691c4cd51)">
     <use style="fill:#dc143c;fill-opacity:0.5;" x="228.584729" xlink:href="#C6_0_acc590d908" y="274.187394"/>
    </g>
    <g clip-path="url(#p6691c4cd51)">
     <use style="fill:#dc143c;fill-opacity:0.5;" x="247.427938" xlink:href="#C6_0_acc590d908" y="274.187394"/>
    </g>
    <g clip-path="url(#p6691c4cd51)">
     <use style="fill:#dc143c;fill-opacity:0.5;" x="266.271146" xlink:href="#C6_0_acc590d908" y="274.187394"/>
    </g>
    <g clip-path="url(#p6691c4cd51)">
     <use style="fill:#dc143c;fill-opacity:0.5;" x="285.114355" xlink:href="#C6_0_acc590d908" y="274.187394"/>
    </g>
    <g clip-path="url(#p6691c4cd51)">
     <use style="fill:#dc143c;fill-opacity:0.5;" x="303.957564" xlink:href="#C6_0_acc590d908" y="274.187394"/>
    </g>
    <g clip-path="url(#p6691c4cd51)">
     <use style="fill:#dc143c;fill-opacity:0.5;" x="322.800772" xlink:href="#C6_0_acc590d908" y="274.187394"/>
    </g>
    <g clip-path="url(#p6691c4cd51)">
     <use style="fill:#dc143c;fill-opacity:0.5;" x="341.643981" xlink:href="#C6_0_acc590d908" y="274.187394"/>
    </g>
    <g clip-path="url(#p6691c4cd51)">
     <use style="fill:#dc143c;fill-opacity:0.5;" x="360.487189" xlink:href="#C6_0_acc590d908" y="274.187394"/>
    </g>
    <g clip-path="url(#p6691c4cd51)">
     <use style="fill:#dc143c;fill-opacity:0.5;" x="379.330398" xlink:href="#C6_0_acc590d908" y="274.187394"/>
    </g>
   </g>
   <g id="PathCollection_8">
    <defs>
     <path d="M 0 3 
C 0.795609 3 1.55874 2.683901 2.12132 2.12132 
C 2.683901 1.55874 3 0.795609 3 0 
C 3 -0.795609 2.683901 -1.55874 2.12132 -2.12132 
C 1.55874 -2.683901 0.795609 -3 0 -3 
C -0.795609 -3 -1.55874 -2.683901 -2.12132 -2.12132 
C -2.683901 -1.55874 -3 -0.795609 -3 0 
C -3 0.795609 -2.683901 1.55874 -2.12132 2.12132 
C -1.55874 2.683901 -0.795609 3 0 3 
z
" id="C7_0_f66e133aa3"/>
    </defs>
    <g clip-path="url(#p6691c4cd51)">
     <use style="fill:#87ceeb;fill-opacity:0.8;" x="58.995852" xlink:href="#C7_0_f66e133aa3" y="271.499134"/>
    </g>
    <g clip-path="url(#p6691c4cd51)">
     <use style="fill:#87ceeb;fill-opacity:0.8;" x="77.839061" xlink:href="#C7_0_f66e133aa3" y="272.257594"/>
    </g>
    <g clip-path="url(#p6691c4cd51)">
     <use style="fill:#87ceeb;fill-opacity:0.8;" x="96.682269" xlink:href="#C7_0_f66e133aa3" y="272.72729"/>
    </g>
    <g clip-path="url(#p6691c4cd51)">
     <use style="fill:#87ceeb;fill-opacity:0.8;" x="115.525478" xlink:href="#C7_0_f66e133aa3" y="273.319312"/>
    </g>
    <g clip-path="url(#p6691c4cd51)">
     <use style="fill:#87ceeb;fill-opacity:0.8;" x="134.368686" xlink:href="#C7_0_f66e133aa3" y="273.292988"/>
    </g>
    <g clip-path="url(#p6691c4cd51)">
     <use style="fill:#87ceeb;fill-opacity:0.8;" x="153.211895" xlink:href="#C7_0_f66e133aa3" y="273.254317"/>
    </g>
    <g clip-path="url(#p6691c4cd51)">
     <use style="fill:#87ceeb;fill-opacity:0.8;" x="172.055104" xlink:href="#C7_0_f66e133aa3" y="273.217551"/>
    </g>
    <g clip-path="url(#p6691c4cd51)">
     <use style="fill:#87ceeb;fill-opacity:0.8;" x="190.898312" xlink:href="#C7_0_f66e133aa3" y="273.176895"/>
    </g>
    <g clip-path="url(#p6691c4cd51)">
     <use style="fill:#87ceeb;fill-opacity:0.8;" x="209.741521" xlink:href="#C7_0_f66e133aa3" y="273.140447"/>
    </g>
    <g clip-path="url(#p6691c4cd51)">
     <use style="fill:#87ceeb;fill-opacity:0.8;" x="228.584729" xlink:href="#C7_0_f66e133aa3" y="273.1146"/>
    </g>
    <g clip-path="url(#p6691c4cd51)">
     <use style="fill:#87ceeb;fill-opacity:0.8;" x="247.427938" xlink:href="#C7_0_f66e133aa3" y="273.092207"/>
    </g>
    <g clip-path="url(#p6691c4cd51)">
     <use style="fill:#87ceeb;fill-opacity:0.8;" x="266.271146" xlink:href="#C7_0_f66e133aa3" y="273.068424"/>
    </g>
    <g clip-path="url(#p6691c4cd51)">
     <use style="fill:#87ceeb;fill-opacity:0.8;" x="285.114355" xlink:href="#C7_0_f66e133aa3" y="273.04754"/>
    </g>
    <g clip-path="url(#p6691c4cd51)">
     <use style="fill:#87ceeb;fill-opacity:0.8;" x="303.957564" xlink:href="#C7_0_f66e133aa3" y="273.027013"/>
    </g>
    <g clip-path="url(#p6691c4cd51)">
     <use style="fill:#87ceeb;fill-opacity:0.8;" x="322.800772" xlink:href="#C7_0_f66e133aa3" y="272.999816"/>
    </g>
    <g clip-path="url(#p6691c4cd51)">
     <use style="fill:#87ceeb;fill-opacity:0.8;" x="341.643981" xlink:href="#C7_0_f66e133aa3" y="272.973215"/>
    </g>
    <g clip-path="url(#p6691c4cd51)">
     <use style="fill:#87ceeb;fill-opacity:0.8;" x="360.487189" xlink:href="#C7_0_f66e133aa3" y="272.946415"/>
    </g>
    <g clip-path="url(#p6691c4cd51)">
     <use style="fill:#87ceeb;fill-opacity:0.8;" x="379.330398" xlink:href="#C7_0_f66e133aa3" y="272.92291"/>
    </g>
   </g>
   <g id="matplotlib.axis_1">
    <g id="xtick_1">
     <g id="line2d_1">
      <path clip-path="url(#p6691c4cd51)" d="M 68.417457 288.430125 
L 68.417457 22.318125 
" style="fill:none;stroke:#b0b0b0;stroke-linecap:square;stroke-width:0.8;"/>
     </g>
     <g id="line2d_2">
      <defs>
       <path d="M 0 0 
L 0 3.5 
" id="m826b1e7bf7" style="stroke:#000000;stroke-width:0.8;"/>
      </defs>
      <g>
       <use style="stroke:#000000;stroke-width:0.8;" x="68.417457" xlink:href="#m826b1e7bf7" y="288.430125"/>
      </g>
     </g>
     <g id="text_1">
      <!-- 7.5 -->
      <defs>
       <path d="M 8.203125 72.90625 
L 55.078125 72.90625 
L 55.078125 68.703125 
L 28.609375 0 
L 18.3125 0 
L 43.21875 64.59375 
L 8.203125 64.59375 
z
" id="DejaVuSans-37"/>
       <path d="M 10.6875 12.40625 
L 21 12.40625 
L 21 0 
L 10.6875 0 
z
" id="DejaVuSans-2e"/>
       <path d="M 10.796875 72.90625 
L 49.515625 72.90625 
L 49.515625 64.59375 
L 19.828125 64.59375 
L 19.828125 46.734375 
Q 21.96875 47.46875 24.109375 47.828125 
Q 26.265625 48.1875 28.421875 48.1875 
Q 40.625 48.1875 47.75 41.5 
Q 54.890625 34.8125 54.890625 23.390625 
Q 54.890625 11.625 47.5625 5.09375 
Q 40.234375 -1.421875 26.90625 -1.421875 
Q 22.3125 -1.421875 17.546875 -0.640625 
Q 12.796875 0.140625 7.71875 1.703125 
L 7.71875 11.625 
Q 12.109375 9.234375 16.796875 8.0625 
Q 21.484375 6.890625 26.703125 6.890625 
Q 35.15625 6.890625 40.078125 11.328125 
Q 45.015625 15.765625 45.015625 23.390625 
Q 45.015625 31 40.078125 35.4375 
Q 35.15625 39.890625 26.703125 39.890625 
Q 22.75 39.890625 18.8125 39.015625 
Q 14.890625 38.140625 10.796875 36.28125 
z
" id="DejaVuSans-35"/>
      </defs>
      <g transform="translate(60.465894 303.028562)scale(0.1 -0.1)">
       <use xlink:href="#DejaVuSans-37"/>
       <use x="63.623047" xlink:href="#DejaVuSans-2e"/>
       <use x="95.410156" xlink:href="#DejaVuSans-35"/>
      </g>
     </g>
    </g>
    <g id="xtick_2">
     <g id="line2d_3">
      <path clip-path="url(#p6691c4cd51)" d="M 115.525478 288.430125 
L 115.525478 22.318125 
" style="fill:none;stroke:#b0b0b0;stroke-linecap:square;stroke-width:0.8;"/>
     </g>
     <g id="line2d_4">
      <g>
       <use style="stroke:#000000;stroke-width:0.8;" x="115.525478" xlink:href="#m826b1e7bf7" y="288.430125"/>
      </g>
     </g>
     <g id="text_2">
      <!-- 10.0 -->
      <defs>
       <path d="M 12.40625 8.296875 
L 28.515625 8.296875 
L 28.515625 63.921875 
L 10.984375 60.40625 
L 10.984375 69.390625 
L 28.421875 72.90625 
L 38.28125 72.90625 
L 38.28125 8.296875 
L 54.390625 8.296875 
L 54.390625 0 
L 12.40625 0 
z
" id="DejaVuSans-31"/>
       <path d="M 31.78125 66.40625 
Q 24.171875 66.40625 20.328125 58.90625 
Q 16.5 51.421875 16.5 36.375 
Q 16.5 21.390625 20.328125 13.890625 
Q 24.171875 6.390625 31.78125 6.390625 
Q 39.453125 6.390625 43.28125 13.890625 
Q 47.125 21.390625 47.125 36.375 
Q 47.125 51.421875 43.28125 58.90625 
Q 39.453125 66.40625 31.78125 66.40625 
z
M 31.78125 74.21875 
Q 44.046875 74.21875 50.515625 64.515625 
Q 56.984375 54.828125 56.984375 36.375 
Q 56.984375 17.96875 50.515625 8.265625 
Q 44.046875 -1.421875 31.78125 -1.421875 
Q 19.53125 -1.421875 13.0625 8.265625 
Q 6.59375 17.96875 6.59375 36.375 
Q 6.59375 54.828125 13.0625 64.515625 
Q 19.53125 74.21875 31.78125 74.21875 
z
" id="DejaVuSans-30"/>
      </defs>
      <g transform="translate(104.392665 303.028562)scale(0.1 -0.1)">
       <use xlink:href="#DejaVuSans-31"/>
       <use x="63.623047" xlink:href="#DejaVuSans-30"/>
       <use x="127.246094" xlink:href="#DejaVuSans-2e"/>
       <use x="159.033203" xlink:href="#DejaVuSans-30"/>
      </g>
     </g>
    </g>
    <g id="xtick_3">
     <g id="line2d_5">
      <path clip-path="url(#p6691c4cd51)" d="M 162.633499 288.430125 
L 162.633499 22.318125 
" style="fill:none;stroke:#b0b0b0;stroke-linecap:square;stroke-width:0.8;"/>
     </g>
     <g id="line2d_6">
      <g>
       <use style="stroke:#000000;stroke-width:0.8;" x="162.633499" xlink:href="#m826b1e7bf7" y="288.430125"/>
      </g>
     </g>
     <g id="text_3">
      <!-- 12.5 -->
      <defs>
       <path d="M 19.1875 8.296875 
L 53.609375 8.296875 
L 53.609375 0 
L 7.328125 0 
L 7.328125 8.296875 
Q 12.9375 14.109375 22.625 23.890625 
Q 32.328125 33.6875 34.8125 36.53125 
Q 39.546875 41.84375 41.421875 45.53125 
Q 43.3125 49.21875 43.3125 52.78125 
Q 43.3125 58.59375 39.234375 62.25 
Q 35.15625 65.921875 28.609375 65.921875 
Q 23.96875 65.921875 18.8125 64.3125 
Q 13.671875 62.703125 7.8125 59.421875 
L 7.8125 69.390625 
Q 13.765625 71.78125 18.9375 73 
Q 24.125 74.21875 28.421875 74.21875 
Q 39.75 74.21875 46.484375 68.546875 
Q 53.21875 62.890625 53.21875 53.421875 
Q 53.21875 48.921875 51.53125 44.890625 
Q 49.859375 40.875 45.40625 35.40625 
Q 44.1875 33.984375 37.640625 27.21875 
Q 31.109375 20.453125 19.1875 8.296875 
z
" id="DejaVuSans-32"/>
      </defs>
      <g transform="translate(151.500687 303.028562)scale(0.1 -0.1)">
       <use xlink:href="#DejaVuSans-31"/>
       <use x="63.623047" xlink:href="#DejaVuSans-32"/>
       <use x="127.246094" xlink:href="#DejaVuSans-2e"/>
       <use x="159.033203" xlink:href="#DejaVuSans-35"/>
      </g>
     </g>
    </g>
    <g id="xtick_4">
     <g id="line2d_7">
      <path clip-path="url(#p6691c4cd51)" d="M 209.741521 288.430125 
L 209.741521 22.318125 
" style="fill:none;stroke:#b0b0b0;stroke-linecap:square;stroke-width:0.8;"/>
     </g>
     <g id="line2d_8">
      <g>
       <use style="stroke:#000000;stroke-width:0.8;" x="209.741521" xlink:href="#m826b1e7bf7" y="288.430125"/>
      </g>
     </g>
     <g id="text_4">
      <!-- 15.0 -->
      <g transform="translate(198.608708 303.028562)scale(0.1 -0.1)">
       <use xlink:href="#DejaVuSans-31"/>
       <use x="63.623047" xlink:href="#DejaVuSans-35"/>
       <use x="127.246094" xlink:href="#DejaVuSans-2e"/>
       <use x="159.033203" xlink:href="#DejaVuSans-30"/>
      </g>
     </g>
    </g>
    <g id="xtick_5">
     <g id="line2d_9">
      <path clip-path="url(#p6691c4cd51)" d="M 256.849542 288.430125 
L 256.849542 22.318125 
" style="fill:none;stroke:#b0b0b0;stroke-linecap:square;stroke-width:0.8;"/>
     </g>
     <g id="line2d_10">
      <g>
       <use style="stroke:#000000;stroke-width:0.8;" x="256.849542" xlink:href="#m826b1e7bf7" y="288.430125"/>
      </g>
     </g>
     <g id="text_5">
      <!-- 17.5 -->
      <g transform="translate(245.71673 303.028562)scale(0.1 -0.1)">
       <use xlink:href="#DejaVuSans-31"/>
       <use x="63.623047" xlink:href="#DejaVuSans-37"/>
       <use x="127.246094" xlink:href="#DejaVuSans-2e"/>
       <use x="159.033203" xlink:href="#DejaVuSans-35"/>
      </g>
     </g>
    </g>
    <g id="xtick_6">
     <g id="line2d_11">
      <path clip-path="url(#p6691c4cd51)" d="M 303.957564 288.430125 
L 303.957564 22.318125 
" style="fill:none;stroke:#b0b0b0;stroke-linecap:square;stroke-width:0.8;"/>
     </g>
     <g id="line2d_12">
      <g>
       <use style="stroke:#000000;stroke-width:0.8;" x="303.957564" xlink:href="#m826b1e7bf7" y="288.430125"/>
      </g>
     </g>
     <g id="text_6">
      <!-- 20.0 -->
      <g transform="translate(292.824751 303.028562)scale(0.1 -0.1)">
       <use xlink:href="#DejaVuSans-32"/>
       <use x="63.623047" xlink:href="#DejaVuSans-30"/>
       <use x="127.246094" xlink:href="#DejaVuSans-2e"/>
       <use x="159.033203" xlink:href="#DejaVuSans-30"/>
      </g>
     </g>
    </g>
    <g id="xtick_7">
     <g id="line2d_13">
      <path clip-path="url(#p6691c4cd51)" d="M 351.065585 288.430125 
L 351.065585 22.318125 
" style="fill:none;stroke:#b0b0b0;stroke-linecap:square;stroke-width:0.8;"/>
     </g>
     <g id="line2d_14">
      <g>
       <use style="stroke:#000000;stroke-width:0.8;" x="351.065585" xlink:href="#m826b1e7bf7" y="288.430125"/>
      </g>
     </g>
     <g id="text_7">
      <!-- 22.5 -->
      <g transform="translate(339.932772 303.028562)scale(0.1 -0.1)">
       <use xlink:href="#DejaVuSans-32"/>
       <use x="63.623047" xlink:href="#DejaVuSans-32"/>
       <use x="127.246094" xlink:href="#DejaVuSans-2e"/>
       <use x="159.033203" xlink:href="#DejaVuSans-35"/>
      </g>
     </g>
    </g>
    <g id="xtick_8">
     <g id="line2d_15">
      <path clip-path="url(#p6691c4cd51)" d="M 398.173606 288.430125 
L 398.173606 22.318125 
" style="fill:none;stroke:#b0b0b0;stroke-linecap:square;stroke-width:0.8;"/>
     </g>
     <g id="line2d_16">
      <g>
       <use style="stroke:#000000;stroke-width:0.8;" x="398.173606" xlink:href="#m826b1e7bf7" y="288.430125"/>
      </g>
     </g>
     <g id="text_8">
      <!-- 25.0 -->
      <g transform="translate(387.040794 303.028562)scale(0.1 -0.1)">
       <use xlink:href="#DejaVuSans-32"/>
       <use x="63.623047" xlink:href="#DejaVuSans-35"/>
       <use x="127.246094" xlink:href="#DejaVuSans-2e"/>
       <use x="159.033203" xlink:href="#DejaVuSans-30"/>
      </g>
     </g>
    </g>
    <g id="text_9">
     <!-- count of hash funcs -->
     <defs>
      <path d="M 48.78125 52.59375 
L 48.78125 44.1875 
Q 44.96875 46.296875 41.140625 47.34375 
Q 37.3125 48.390625 33.40625 48.390625 
Q 24.65625 48.390625 19.8125 42.84375 
Q 14.984375 37.3125 14.984375 27.296875 
Q 14.984375 17.28125 19.8125 11.734375 
Q 24.65625 6.203125 33.40625 6.203125 
Q 37.3125 6.203125 41.140625 7.25 
Q 44.96875 8.296875 48.78125 10.40625 
L 48.78125 2.09375 
Q 45.015625 0.34375 40.984375 -0.53125 
Q 36.96875 -1.421875 32.421875 -1.421875 
Q 20.0625 -1.421875 12.78125 6.34375 
Q 5.515625 14.109375 5.515625 27.296875 
Q 5.515625 40.671875 12.859375 48.328125 
Q 20.21875 56 33.015625 56 
Q 37.15625 56 41.109375 55.140625 
Q 45.0625 54.296875 48.78125 52.59375 
z
" id="DejaVuSans-63"/>
      <path d="M 30.609375 48.390625 
Q 23.390625 48.390625 19.1875 42.75 
Q 14.984375 37.109375 14.984375 27.296875 
Q 14.984375 17.484375 19.15625 11.84375 
Q 23.34375 6.203125 30.609375 6.203125 
Q 37.796875 6.203125 41.984375 11.859375 
Q 46.1875 17.53125 46.1875 27.296875 
Q 46.1875 37.015625 41.984375 42.703125 
Q 37.796875 48.390625 30.609375 48.390625 
z
M 30.609375 56 
Q 42.328125 56 49.015625 48.375 
Q 55.71875 40.765625 55.71875 27.296875 
Q 55.71875 13.875 49.015625 6.21875 
Q 42.328125 -1.421875 30.609375 -1.421875 
Q 18.84375 -1.421875 12.171875 6.21875 
Q 5.515625 13.875 5.515625 27.296875 
Q 5.515625 40.765625 12.171875 48.375 
Q 18.84375 56 30.609375 56 
z
" id="DejaVuSans-6f"/>
      <path d="M 8.5 21.578125 
L 8.5 54.6875 
L 17.484375 54.6875 
L 17.484375 21.921875 
Q 17.484375 14.15625 20.5 10.265625 
Q 23.53125 6.390625 29.59375 6.390625 
Q 36.859375 6.390625 41.078125 11.03125 
Q 45.3125 15.671875 45.3125 23.6875 
L 45.3125 54.6875 
L 54.296875 54.6875 
L 54.296875 0 
L 45.3125 0 
L 45.3125 8.40625 
Q 42.046875 3.421875 37.71875 1 
Q 33.40625 -1.421875 27.6875 -1.421875 
Q 18.265625 -1.421875 13.375 4.4375 
Q 8.5 10.296875 8.5 21.578125 
z
M 31.109375 56 
z
" id="DejaVuSans-75"/>
      <path d="M 54.890625 33.015625 
L 54.890625 0 
L 45.90625 0 
L 45.90625 32.71875 
Q 45.90625 40.484375 42.875 44.328125 
Q 39.84375 48.1875 33.796875 48.1875 
Q 26.515625 48.1875 22.3125 43.546875 
Q 18.109375 38.921875 18.109375 30.90625 
L 18.109375 0 
L 9.078125 0 
L 9.078125 54.6875 
L 18.109375 54.6875 
L 18.109375 46.1875 
Q 21.34375 51.125 25.703125 53.5625 
Q 30.078125 56 35.796875 56 
Q 45.21875 56 50.046875 50.171875 
Q 54.890625 44.34375 54.890625 33.015625 
z
" id="DejaVuSans-6e"/>
      <path d="M 18.3125 70.21875 
L 18.3125 54.6875 
L 36.8125 54.6875 
L 36.8125 47.703125 
L 18.3125 47.703125 
L 18.3125 18.015625 
Q 18.3125 11.328125 20.140625 9.421875 
Q 21.96875 7.515625 27.59375 7.515625 
L 36.8125 7.515625 
L 36.8125 0 
L 27.59375 0 
Q 17.1875 0 13.234375 3.875 
Q 9.28125 7.765625 9.28125 18.015625 
L 9.28125 47.703125 
L 2.6875 47.703125 
L 2.6875 54.6875 
L 9.28125 54.6875 
L 9.28125 70.21875 
z
" id="DejaVuSans-74"/>
      <path id="DejaVuSans-20"/>
      <path d="M 37.109375 75.984375 
L 37.109375 68.5 
L 28.515625 68.5 
Q 23.6875 68.5 21.796875 66.546875 
Q 19.921875 64.59375 19.921875 59.515625 
L 19.921875 54.6875 
L 34.71875 54.6875 
L 34.71875 47.703125 
L 19.921875 47.703125 
L 19.921875 0 
L 10.890625 0 
L 10.890625 47.703125 
L 2.296875 47.703125 
L 2.296875 54.6875 
L 10.890625 54.6875 
L 10.890625 58.5 
Q 10.890625 67.625 15.140625 71.796875 
Q 19.390625 75.984375 28.609375 75.984375 
z
" id="DejaVuSans-66"/>
      <path d="M 54.890625 33.015625 
L 54.890625 0 
L 45.90625 0 
L 45.90625 32.71875 
Q 45.90625 40.484375 42.875 44.328125 
Q 39.84375 48.1875 33.796875 48.1875 
Q 26.515625 48.1875 22.3125 43.546875 
Q 18.109375 38.921875 18.109375 30.90625 
L 18.109375 0 
L 9.078125 0 
L 9.078125 75.984375 
L 18.109375 75.984375 
L 18.109375 46.1875 
Q 21.34375 51.125 25.703125 53.5625 
Q 30.078125 56 35.796875 56 
Q 45.21875 56 50.046875 50.171875 
Q 54.890625 44.34375 54.890625 33.015625 
z
" id="DejaVuSans-68"/>
      <path d="M 34.28125 27.484375 
Q 23.390625 27.484375 19.1875 25 
Q 14.984375 22.515625 14.984375 16.5 
Q 14.984375 11.71875 18.140625 8.90625 
Q 21.296875 6.109375 26.703125 6.109375 
Q 34.1875 6.109375 38.703125 11.40625 
Q 43.21875 16.703125 43.21875 25.484375 
L 43.21875 27.484375 
z
M 52.203125 31.203125 
L 52.203125 0 
L 43.21875 0 
L 43.21875 8.296875 
Q 40.140625 3.328125 35.546875 0.953125 
Q 30.953125 -1.421875 24.3125 -1.421875 
Q 15.921875 -1.421875 10.953125 3.296875 
Q 6 8.015625 6 15.921875 
Q 6 25.140625 12.171875 29.828125 
Q 18.359375 34.515625 30.609375 34.515625 
L 43.21875 34.515625 
L 43.21875 35.40625 
Q 43.21875 41.609375 39.140625 45 
Q 35.0625 48.390625 27.6875 48.390625 
Q 23 48.390625 18.546875 47.265625 
Q 14.109375 46.140625 10.015625 43.890625 
L 10.015625 52.203125 
Q 14.9375 54.109375 19.578125 55.046875 
Q 24.21875 56 28.609375 56 
Q 40.484375 56 46.34375 49.84375 
Q 52.203125 43.703125 52.203125 31.203125 
z
" id="DejaVuSans-61"/>
      <path d="M 44.28125 53.078125 
L 44.28125 44.578125 
Q 40.484375 46.53125 36.375 47.5 
Q 32.28125 48.484375 27.875 48.484375 
Q 21.1875 48.484375 17.84375 46.4375 
Q 14.5 44.390625 14.5 40.28125 
Q 14.5 37.15625 16.890625 35.375 
Q 19.28125 33.59375 26.515625 31.984375 
L 29.59375 31.296875 
Q 39.15625 29.25 43.1875 25.515625 
Q 47.21875 21.78125 47.21875 15.09375 
Q 47.21875 7.46875 41.1875 3.015625 
Q 35.15625 -1.421875 24.609375 -1.421875 
Q 20.21875 -1.421875 15.453125 -0.5625 
Q 10.6875 0.296875 5.421875 2 
L 5.421875 11.28125 
Q 10.40625 8.6875 15.234375 7.390625 
Q 20.0625 6.109375 24.8125 6.109375 
Q 31.15625 6.109375 34.5625 8.28125 
Q 37.984375 10.453125 37.984375 14.40625 
Q 37.984375 18.0625 35.515625 20.015625 
Q 33.0625 21.96875 24.703125 23.78125 
L 21.578125 24.515625 
Q 13.234375 26.265625 9.515625 29.90625 
Q 5.8125 33.546875 5.8125 39.890625 
Q 5.8125 47.609375 11.28125 51.796875 
Q 16.75 56 26.8125 56 
Q 31.78125 56 36.171875 55.265625 
Q 40.578125 54.546875 44.28125 53.078125 
z
" id="DejaVuSans-73"/>
     </defs>
     <g transform="translate(170.012344 316.706687)scale(0.1 -0.1)">
      <use xlink:href="#DejaVuSans-63"/>
      <use x="54.980469" xlink:href="#DejaVuSans-6f"/>
      <use x="116.162109" xlink:href="#DejaVuSans-75"/>
      <use x="179.541016" xlink:href="#DejaVuSans-6e"/>
      <use x="242.919922" xlink:href="#DejaVuSans-74"/>
      <use x="282.128906" xlink:href="#DejaVuSans-20"/>
      <use x="313.916016" xlink:href="#DejaVuSans-6f"/>
      <use x="375.097656" xlink:href="#DejaVuSans-66"/>
      <use x="410.302734" xlink:href="#DejaVuSans-20"/>
      <use x="442.089844" xlink:href="#DejaVuSans-68"/>
      <use x="505.46875" xlink:href="#DejaVuSans-61"/>
      <use x="566.748047" xlink:href="#DejaVuSans-73"/>
      <use x="618.847656" xlink:href="#DejaVuSans-68"/>
      <use x="682.226562" xlink:href="#DejaVuSans-20"/>
      <use x="714.013672" xlink:href="#DejaVuSans-66"/>
      <use x="749.21875" xlink:href="#DejaVuSans-75"/>
      <use x="812.597656" xlink:href="#DejaVuSans-6e"/>
      <use x="875.976562" xlink:href="#DejaVuSans-63"/>
      <use x="930.957031" xlink:href="#DejaVuSans-73"/>
     </g>
    </g>
   </g>
   <g id="matplotlib.axis_2">
    <g id="ytick_1">
     <g id="line2d_17">
      <path clip-path="url(#p6691c4cd51)" d="M 40.603125 274.187394 
L 397.723125 274.187394 
" style="fill:none;stroke:#b0b0b0;stroke-linecap:square;stroke-width:0.8;"/>
     </g>
     <g id="line2d_18">
      <defs>
       <path d="M 0 0 
L -3.5 0 
" id="m2eebad228a" style="stroke:#000000;stroke-width:0.8;"/>
      </defs>
      <g>
       <use style="stroke:#000000;stroke-width:0.8;" x="40.603125" xlink:href="#m2eebad228a" y="274.187394"/>
      </g>
     </g>
     <g id="text_10">
      <!-- 0 -->
      <g transform="translate(27.240625 277.986613)scale(0.1 -0.1)">
       <use xlink:href="#DejaVuSans-30"/>
      </g>
     </g>
    </g>
    <g id="ytick_2">
     <g id="line2d_19">
      <path clip-path="url(#p6691c4cd51)" d="M 40.603125 234.483659 
L 397.723125 234.483659 
" style="fill:none;stroke:#b0b0b0;stroke-linecap:square;stroke-width:0.8;"/>
     </g>
     <g id="line2d_20">
      <g>
       <use style="stroke:#000000;stroke-width:0.8;" x="40.603125" xlink:href="#m2eebad228a" y="234.483659"/>
      </g>
     </g>
     <g id="text_11">
      <!-- 10 -->
      <g transform="translate(20.878125 238.282878)scale(0.1 -0.1)">
       <use xlink:href="#DejaVuSans-31"/>
       <use x="63.623047" xlink:href="#DejaVuSans-30"/>
      </g>
     </g>
    </g>
    <g id="ytick_3">
     <g id="line2d_21">
      <path clip-path="url(#p6691c4cd51)" d="M 40.603125 194.779923 
L 397.723125 194.779923 
" style="fill:none;stroke:#b0b0b0;stroke-linecap:square;stroke-width:0.8;"/>
     </g>
     <g id="line2d_22">
      <g>
       <use style="stroke:#000000;stroke-width:0.8;" x="40.603125" xlink:href="#m2eebad228a" y="194.779923"/>
      </g>
     </g>
     <g id="text_12">
      <!-- 20 -->
      <g transform="translate(20.878125 198.579142)scale(0.1 -0.1)">
       <use xlink:href="#DejaVuSans-32"/>
       <use x="63.623047" xlink:href="#DejaVuSans-30"/>
      </g>
     </g>
    </g>
    <g id="ytick_4">
     <g id="line2d_23">
      <path clip-path="url(#p6691c4cd51)" d="M 40.603125 155.076187 
L 397.723125 155.076187 
" style="fill:none;stroke:#b0b0b0;stroke-linecap:square;stroke-width:0.8;"/>
     </g>
     <g id="line2d_24">
      <g>
       <use style="stroke:#000000;stroke-width:0.8;" x="40.603125" xlink:href="#m2eebad228a" y="155.076187"/>
      </g>
     </g>
     <g id="text_13">
      <!-- 30 -->
      <defs>
       <path d="M 40.578125 39.3125 
Q 47.65625 37.796875 51.625 33 
Q 55.609375 28.21875 55.609375 21.1875 
Q 55.609375 10.40625 48.1875 4.484375 
Q 40.765625 -1.421875 27.09375 -1.421875 
Q 22.515625 -1.421875 17.65625 -0.515625 
Q 12.796875 0.390625 7.625 2.203125 
L 7.625 11.71875 
Q 11.71875 9.328125 16.59375 8.109375 
Q 21.484375 6.890625 26.8125 6.890625 
Q 36.078125 6.890625 40.9375 10.546875 
Q 45.796875 14.203125 45.796875 21.1875 
Q 45.796875 27.640625 41.28125 31.265625 
Q 36.765625 34.90625 28.71875 34.90625 
L 20.21875 34.90625 
L 20.21875 43.015625 
L 29.109375 43.015625 
Q 36.375 43.015625 40.234375 45.921875 
Q 44.09375 48.828125 44.09375 54.296875 
Q 44.09375 59.90625 40.109375 62.90625 
Q 36.140625 65.921875 28.71875 65.921875 
Q 24.65625 65.921875 20.015625 65.03125 
Q 15.375 64.15625 9.8125 62.3125 
L 9.8125 71.09375 
Q 15.4375 72.65625 20.34375 73.4375 
Q 25.25 74.21875 29.59375 74.21875 
Q 40.828125 74.21875 47.359375 69.109375 
Q 53.90625 64.015625 53.90625 55.328125 
Q 53.90625 49.265625 50.4375 45.09375 
Q 46.96875 40.921875 40.578125 39.3125 
z
" id="DejaVuSans-33"/>
      </defs>
      <g transform="translate(20.878125 158.875406)scale(0.1 -0.1)">
       <use xlink:href="#DejaVuSans-33"/>
       <use x="63.623047" xlink:href="#DejaVuSans-30"/>
      </g>
     </g>
    </g>
    <g id="ytick_5">
     <g id="line2d_25">
      <path clip-path="url(#p6691c4cd51)" d="M 40.603125 115.372452 
L 397.723125 115.372452 
" style="fill:none;stroke:#b0b0b0;stroke-linecap:square;stroke-width:0.8;"/>
     </g>
     <g id="line2d_26">
      <g>
       <use style="stroke:#000000;stroke-width:0.8;" x="40.603125" xlink:href="#m2eebad228a" y="115.372452"/>
      </g>
     </g>
     <g id="text_14">
      <!-- 40 -->
      <defs>
       <path d="M 37.796875 64.3125 
L 12.890625 25.390625 
L 37.796875 25.390625 
z
M 35.203125 72.90625 
L 47.609375 72.90625 
L 47.609375 25.390625 
L 58.015625 25.390625 
L 58.015625 17.1875 
L 47.609375 17.1875 
L 47.609375 0 
L 37.796875 0 
L 37.796875 17.1875 
L 4.890625 17.1875 
L 4.890625 26.703125 
z
" id="DejaVuSans-34"/>
      </defs>
      <g transform="translate(20.878125 119.17167)scale(0.1 -0.1)">
       <use xlink:href="#DejaVuSans-34"/>
       <use x="63.623047" xlink:href="#DejaVuSans-30"/>
      </g>
     </g>
    </g>
    <g id="ytick_6">
     <g id="line2d_27">
      <path clip-path="url(#p6691c4cd51)" d="M 40.603125 75.668716 
L 397.723125 75.668716 
" style="fill:none;stroke:#b0b0b0;stroke-linecap:square;stroke-width:0.8;"/>
     </g>
     <g id="line2d_28">
      <g>
       <use style="stroke:#000000;stroke-width:0.8;" x="40.603125" xlink:href="#m2eebad228a" y="75.668716"/>
      </g>
     </g>
     <g id="text_15">
      <!-- 50 -->
      <g transform="translate(20.878125 79.467935)scale(0.1 -0.1)">
       <use xlink:href="#DejaVuSans-35"/>
       <use x="63.623047" xlink:href="#DejaVuSans-30"/>
      </g>
     </g>
    </g>
    <g id="ytick_7">
     <g id="line2d_29">
      <path clip-path="url(#p6691c4cd51)" d="M 40.603125 35.96498 
L 397.723125 35.96498 
" style="fill:none;stroke:#b0b0b0;stroke-linecap:square;stroke-width:0.8;"/>
     </g>
     <g id="line2d_30">
      <g>
       <use style="stroke:#000000;stroke-width:0.8;" x="40.603125" xlink:href="#m2eebad228a" y="35.96498"/>
      </g>
     </g>
     <g id="text_16">
      <!-- 60 -->
      <defs>
       <path d="M 33.015625 40.375 
Q 26.375 40.375 22.484375 35.828125 
Q 18.609375 31.296875 18.609375 23.390625 
Q 18.609375 15.53125 22.484375 10.953125 
Q 26.375 6.390625 33.015625 6.390625 
Q 39.65625 6.390625 43.53125 10.953125 
Q 47.40625 15.53125 47.40625 23.390625 
Q 47.40625 31.296875 43.53125 35.828125 
Q 39.65625 40.375 33.015625 40.375 
z
M 52.59375 71.296875 
L 52.59375 62.3125 
Q 48.875 64.0625 45.09375 64.984375 
Q 41.3125 65.921875 37.59375 65.921875 
Q 27.828125 65.921875 22.671875 59.328125 
Q 17.53125 52.734375 16.796875 39.40625 
Q 19.671875 43.65625 24.015625 45.921875 
Q 28.375 48.1875 33.59375 48.1875 
Q 44.578125 48.1875 50.953125 41.515625 
Q 57.328125 34.859375 57.328125 23.390625 
Q 57.328125 12.15625 50.6875 5.359375 
Q 44.046875 -1.421875 33.015625 -1.421875 
Q 20.359375 -1.421875 13.671875 8.265625 
Q 6.984375 17.96875 6.984375 36.375 
Q 6.984375 53.65625 15.1875 63.9375 
Q 23.390625 74.21875 37.203125 74.21875 
Q 40.921875 74.21875 44.703125 73.484375 
Q 48.484375 72.75 52.59375 71.296875 
z
" id="DejaVuSans-36"/>
      </defs>
      <g transform="translate(20.878125 39.764199)scale(0.1 -0.1)">
       <use xlink:href="#DejaVuSans-36"/>
       <use x="63.623047" xlink:href="#DejaVuSans-30"/>
      </g>
     </g>
    </g>
    <g id="text_17">
     <!-- count -->
     <g transform="translate(14.798438 169.480375)rotate(-90)scale(0.1 -0.1)">
      <use xlink:href="#DejaVuSans-63"/>
      <use x="54.980469" xlink:href="#DejaVuSans-6f"/>
      <use x="116.162109" xlink:href="#DejaVuSans-75"/>
      <use x="179.541016" xlink:href="#DejaVuSans-6e"/>
      <use x="242.919922" xlink:href="#DejaVuSans-74"/>
     </g>
    </g>
   </g>
   <g id="patch_3">
    <path d="M 40.603125 288.430125 
L 40.603125 22.318125 
" style="fill:none;stroke:#000000;stroke-linecap:square;stroke-linejoin:miter;stroke-width:0.8;"/>
   </g>
   <g id="patch_4">
    <path d="M 397.723125 288.430125 
L 397.723125 22.318125 
" style="fill:none;stroke:#000000;stroke-linecap:square;stroke-linejoin:miter;stroke-width:0.8;"/>
   </g>
   <g id="patch_5">
    <path d="M 40.603125 288.430125 
L 397.723125 288.430125 
" style="fill:none;stroke:#000000;stroke-linecap:square;stroke-linejoin:miter;stroke-width:0.8;"/>
   </g>
   <g id="patch_6">
    <path d="M 40.603125 22.318125 
L 397.723125 22.318125 
" style="fill:none;stroke:#000000;stroke-linecap:square;stroke-linejoin:miter;stroke-width:0.8;"/>
   </g>
   <g id="text_18">
    <!-- Count by metric: number of hash funcs -->
    <defs>
     <path d="M 64.40625 67.28125 
L 64.40625 56.890625 
Q 59.421875 61.53125 53.78125 63.8125 
Q 48.140625 66.109375 41.796875 66.109375 
Q 29.296875 66.109375 22.65625 58.46875 
Q 16.015625 50.828125 16.015625 36.375 
Q 16.015625 21.96875 22.65625 14.328125 
Q 29.296875 6.6875 41.796875 6.6875 
Q 48.140625 6.6875 53.78125 8.984375 
Q 59.421875 11.28125 64.40625 15.921875 
L 64.40625 5.609375 
Q 59.234375 2.09375 53.4375 0.328125 
Q 47.65625 -1.421875 41.21875 -1.421875 
Q 24.65625 -1.421875 15.125 8.703125 
Q 5.609375 18.84375 5.609375 36.375 
Q 5.609375 53.953125 15.125 64.078125 
Q 24.65625 74.21875 41.21875 74.21875 
Q 47.75 74.21875 53.53125 72.484375 
Q 59.328125 70.75 64.40625 67.28125 
z
" id="DejaVuSans-43"/>
     <path d="M 48.6875 27.296875 
Q 48.6875 37.203125 44.609375 42.84375 
Q 40.53125 48.484375 33.40625 48.484375 
Q 26.265625 48.484375 22.1875 42.84375 
Q 18.109375 37.203125 18.109375 27.296875 
Q 18.109375 17.390625 22.1875 11.75 
Q 26.265625 6.109375 33.40625 6.109375 
Q 40.53125 6.109375 44.609375 11.75 
Q 48.6875 17.390625 48.6875 27.296875 
z
M 18.109375 46.390625 
Q 20.953125 51.265625 25.265625 53.625 
Q 29.59375 56 35.59375 56 
Q 45.5625 56 51.78125 48.09375 
Q 58.015625 40.1875 58.015625 27.296875 
Q 58.015625 14.40625 51.78125 6.484375 
Q 45.5625 -1.421875 35.59375 -1.421875 
Q 29.59375 -1.421875 25.265625 0.953125 
Q 20.953125 3.328125 18.109375 8.203125 
L 18.109375 0 
L 9.078125 0 
L 9.078125 75.984375 
L 18.109375 75.984375 
z
" id="DejaVuSans-62"/>
     <path d="M 32.171875 -5.078125 
Q 28.375 -14.84375 24.75 -17.8125 
Q 21.140625 -20.796875 15.09375 -20.796875 
L 7.90625 -20.796875 
L 7.90625 -13.28125 
L 13.1875 -13.28125 
Q 16.890625 -13.28125 18.9375 -11.515625 
Q 21 -9.765625 23.484375 -3.21875 
L 25.09375 0.875 
L 2.984375 54.6875 
L 12.5 54.6875 
L 29.59375 11.921875 
L 46.6875 54.6875 
L 56.203125 54.6875 
z
" id="DejaVuSans-79"/>
     <path d="M 52 44.1875 
Q 55.375 50.25 60.0625 53.125 
Q 64.75 56 71.09375 56 
Q 79.640625 56 84.28125 50.015625 
Q 88.921875 44.046875 88.921875 33.015625 
L 88.921875 0 
L 79.890625 0 
L 79.890625 32.71875 
Q 79.890625 40.578125 77.09375 44.375 
Q 74.3125 48.1875 68.609375 48.1875 
Q 61.625 48.1875 57.5625 43.546875 
Q 53.515625 38.921875 53.515625 30.90625 
L 53.515625 0 
L 44.484375 0 
L 44.484375 32.71875 
Q 44.484375 40.625 41.703125 44.40625 
Q 38.921875 48.1875 33.109375 48.1875 
Q 26.21875 48.1875 22.15625 43.53125 
Q 18.109375 38.875 18.109375 30.90625 
L 18.109375 0 
L 9.078125 0 
L 9.078125 54.6875 
L 18.109375 54.6875 
L 18.109375 46.1875 
Q 21.1875 51.21875 25.484375 53.609375 
Q 29.78125 56 35.6875 56 
Q 41.65625 56 45.828125 52.96875 
Q 50 49.953125 52 44.1875 
z
" id="DejaVuSans-6d"/>
     <path d="M 56.203125 29.59375 
L 56.203125 25.203125 
L 14.890625 25.203125 
Q 15.484375 15.921875 20.484375 11.0625 
Q 25.484375 6.203125 34.421875 6.203125 
Q 39.59375 6.203125 44.453125 7.46875 
Q 49.3125 8.734375 54.109375 11.28125 
L 54.109375 2.78125 
Q 49.265625 0.734375 44.1875 -0.34375 
Q 39.109375 -1.421875 33.890625 -1.421875 
Q 20.796875 -1.421875 13.15625 6.1875 
Q 5.515625 13.8125 5.515625 26.8125 
Q 5.515625 40.234375 12.765625 48.109375 
Q 20.015625 56 32.328125 56 
Q 43.359375 56 49.78125 48.890625 
Q 56.203125 41.796875 56.203125 29.59375 
z
M 47.21875 32.234375 
Q 47.125 39.59375 43.09375 43.984375 
Q 39.0625 48.390625 32.421875 48.390625 
Q 24.90625 48.390625 20.390625 44.140625 
Q 15.875 39.890625 15.1875 32.171875 
z
" id="DejaVuSans-65"/>
     <path d="M 41.109375 46.296875 
Q 39.59375 47.171875 37.8125 47.578125 
Q 36.03125 48 33.890625 48 
Q 26.265625 48 22.1875 43.046875 
Q 18.109375 38.09375 18.109375 28.8125 
L 18.109375 0 
L 9.078125 0 
L 9.078125 54.6875 
L 18.109375 54.6875 
L 18.109375 46.1875 
Q 20.953125 51.171875 25.484375 53.578125 
Q 30.03125 56 36.53125 56 
Q 37.453125 56 38.578125 55.875 
Q 39.703125 55.765625 41.0625 55.515625 
z
" id="DejaVuSans-72"/>
     <path d="M 9.421875 54.6875 
L 18.40625 54.6875 
L 18.40625 0 
L 9.421875 0 
z
M 9.421875 75.984375 
L 18.40625 75.984375 
L 18.40625 64.59375 
L 9.421875 64.59375 
z
" id="DejaVuSans-69"/>
     <path d="M 11.71875 12.40625 
L 22.015625 12.40625 
L 22.015625 0 
L 11.71875 0 
z
M 11.71875 51.703125 
L 22.015625 51.703125 
L 22.015625 39.3125 
L 11.71875 39.3125 
z
" id="DejaVuSans-3a"/>
    </defs>
    <g transform="translate(101.451563 16.318125)scale(0.12 -0.12)">
     <use xlink:href="#DejaVuSans-43"/>
     <use x="69.824219" xlink:href="#DejaVuSans-6f"/>
     <use x="131.005859" xlink:href="#DejaVuSans-75"/>
     <use x="194.384766" xlink:href="#DejaVuSans-6e"/>
     <use x="257.763672" xlink:href="#DejaVuSans-74"/>
     <use x="296.972656" xlink:href="#DejaVuSans-20"/>
     <use x="328.759766" xlink:href="#DejaVuSans-62"/>
     <use x="392.236328" xlink:href="#DejaVuSans-79"/>
     <use x="451.416016" xlink:href="#DejaVuSans-20"/>
     <use x="483.203125" xlink:href="#DejaVuSans-6d"/>
     <use x="580.615234" xlink:href="#DejaVuSans-65"/>
     <use x="642.138672" xlink:href="#DejaVuSans-74"/>
     <use x="681.347656" xlink:href="#DejaVuSans-72"/>
     <use x="722.460938" xlink:href="#DejaVuSans-69"/>
     <use x="750.244141" xlink:href="#DejaVuSans-63"/>
     <use x="805.224609" xlink:href="#DejaVuSans-3a"/>
     <use x="838.916016" xlink:href="#DejaVuSans-20"/>
     <use x="870.703125" xlink:href="#DejaVuSans-6e"/>
     <use x="934.082031" xlink:href="#DejaVuSans-75"/>
     <use x="997.460938" xlink:href="#DejaVuSans-6d"/>
     <use x="1094.873047" xlink:href="#DejaVuSans-62"/>
     <use x="1158.349609" xlink:href="#DejaVuSans-65"/>
     <use x="1219.873047" xlink:href="#DejaVuSans-72"/>
     <use x="1260.986328" xlink:href="#DejaVuSans-20"/>
     <use x="1292.773438" xlink:href="#DejaVuSans-6f"/>
     <use x="1353.955078" xlink:href="#DejaVuSans-66"/>
     <use x="1389.160156" xlink:href="#DejaVuSans-20"/>
     <use x="1420.947266" xlink:href="#DejaVuSans-68"/>
     <use x="1484.326172" xlink:href="#DejaVuSans-61"/>
     <use x="1545.605469" xlink:href="#DejaVuSans-73"/>
     <use x="1597.705078" xlink:href="#DejaVuSans-68"/>
     <use x="1661.083984" xlink:href="#DejaVuSans-20"/>
     <use x="1692.871094" xlink:href="#DejaVuSans-66"/>
     <use x="1728.076172" xlink:href="#DejaVuSans-75"/>
     <use x="1791.455078" xlink:href="#DejaVuSans-6e"/>
     <use x="1854.833984" xlink:href="#DejaVuSans-63"/>
     <use x="1909.814453" xlink:href="#DejaVuSans-73"/>
    </g>
   </g>
   <g id="legend_1">
    <g id="patch_7">
     <path d="M 47.603125 147.743125 
L 174.532813 147.743125 
Q 176.532813 147.743125 176.532813 145.743125 
L 176.532813 29.318125 
Q 176.532813 27.318125 174.532813 27.318125 
L 47.603125 27.318125 
Q 45.603125 27.318125 45.603125 29.318125 
L 45.603125 145.743125 
Q 45.603125 147.743125 47.603125 147.743125 
z
" style="fill:#ffffff;opacity:0.8;stroke:#cccccc;stroke-linejoin:miter;"/>
    </g>
    <g id="PathCollection_9">
     <path d="M 59.603125 39.291562 
C 60.398734 39.291562 61.161865 38.975464 61.724445 38.412883 
C 62.287026 37.850302 62.603125 37.087172 62.603125 36.291562 
C 62.603125 35.495953 62.287026 34.732823 61.724445 34.170242 
C 61.161865 33.607661 60.398734 33.291562 59.603125 33.291562 
C 58.807516 33.291562 58.044385 33.607661 57.481805 34.170242 
C 56.919224 34.732823 56.603125 35.495953 56.603125 36.291562 
C 56.603125 37.087172 56.919224 37.850302 57.481805 38.412883 
C 58.044385 38.975464 58.807516 39.291562 59.603125 39.291562 
z
" style="fill:#ff0000;fill-opacity:0.5;"/>
    </g>
    <g id="text_19">
     <!-- bit lookups linear -->
     <defs>
      <path d="M 9.421875 75.984375 
L 18.40625 75.984375 
L 18.40625 0 
L 9.421875 0 
z
" id="DejaVuSans-6c"/>
      <path d="M 9.078125 75.984375 
L 18.109375 75.984375 
L 18.109375 31.109375 
L 44.921875 54.6875 
L 56.390625 54.6875 
L 27.390625 29.109375 
L 57.625 0 
L 45.90625 0 
L 18.109375 26.703125 
L 18.109375 0 
L 9.078125 0 
z
" id="DejaVuSans-6b"/>
      <path d="M 18.109375 8.203125 
L 18.109375 -20.796875 
L 9.078125 -20.796875 
L 9.078125 54.6875 
L 18.109375 54.6875 
L 18.109375 46.390625 
Q 20.953125 51.265625 25.265625 53.625 
Q 29.59375 56 35.59375 56 
Q 45.5625 56 51.78125 48.09375 
Q 58.015625 40.1875 58.015625 27.296875 
Q 58.015625 14.40625 51.78125 6.484375 
Q 45.5625 -1.421875 35.59375 -1.421875 
Q 29.59375 -1.421875 25.265625 0.953125 
Q 20.953125 3.328125 18.109375 8.203125 
z
M 48.6875 27.296875 
Q 48.6875 37.203125 44.609375 42.84375 
Q 40.53125 48.484375 33.40625 48.484375 
Q 26.265625 48.484375 22.1875 42.84375 
Q 18.109375 37.203125 18.109375 27.296875 
Q 18.109375 17.390625 22.1875 11.75 
Q 26.265625 6.109375 33.40625 6.109375 
Q 40.53125 6.109375 44.609375 11.75 
Q 48.6875 17.390625 48.6875 27.296875 
z
" id="DejaVuSans-70"/>
     </defs>
     <g transform="translate(77.603125 38.916562)scale(0.1 -0.1)">
      <use xlink:href="#DejaVuSans-62"/>
      <use x="63.476562" xlink:href="#DejaVuSans-69"/>
      <use x="91.259766" xlink:href="#DejaVuSans-74"/>
      <use x="130.46875" xlink:href="#DejaVuSans-20"/>
      <use x="162.255859" xlink:href="#DejaVuSans-6c"/>
      <use x="190.039062" xlink:href="#DejaVuSans-6f"/>
      <use x="251.220703" xlink:href="#DejaVuSans-6f"/>
      <use x="312.402344" xlink:href="#DejaVuSans-6b"/>
      <use x="370.265625" xlink:href="#DejaVuSans-75"/>
      <use x="433.644531" xlink:href="#DejaVuSans-70"/>
      <use x="497.121094" xlink:href="#DejaVuSans-73"/>
      <use x="549.220703" xlink:href="#DejaVuSans-20"/>
      <use x="581.007812" xlink:href="#DejaVuSans-6c"/>
      <use x="608.791016" xlink:href="#DejaVuSans-69"/>
      <use x="636.574219" xlink:href="#DejaVuSans-6e"/>
      <use x="699.953125" xlink:href="#DejaVuSans-65"/>
      <use x="761.476562" xlink:href="#DejaVuSans-61"/>
      <use x="822.755859" xlink:href="#DejaVuSans-72"/>
     </g>
    </g>
    <g id="PathCollection_10">
     <path d="M 59.603125 53.969688 
C 60.398734 53.969688 61.161865 53.653589 61.724445 53.091008 
C 62.287026 52.528427 62.603125 51.765297 62.603125 50.969688 
C 62.603125 50.174078 62.287026 49.410948 61.724445 48.848367 
C 61.161865 48.285786 60.398734 47.969688 59.603125 47.969688 
C 58.807516 47.969688 58.044385 48.285786 57.481805 48.848367 
C 56.919224 49.410948 56.603125 50.174078 56.603125 50.969688 
C 56.603125 51.765297 56.919224 52.528427 57.481805 53.091008 
C 58.044385 53.653589 58.807516 53.969688 59.603125 53.969688 
z
" style="fill:#0000ff;fill-opacity:0.8;"/>
    </g>
    <g id="text_20">
     <!-- bit lookups guided -->
     <defs>
      <path d="M 45.40625 27.984375 
Q 45.40625 37.75 41.375 43.109375 
Q 37.359375 48.484375 30.078125 48.484375 
Q 22.859375 48.484375 18.828125 43.109375 
Q 14.796875 37.75 14.796875 27.984375 
Q 14.796875 18.265625 18.828125 12.890625 
Q 22.859375 7.515625 30.078125 7.515625 
Q 37.359375 7.515625 41.375 12.890625 
Q 45.40625 18.265625 45.40625 27.984375 
z
M 54.390625 6.78125 
Q 54.390625 -7.171875 48.1875 -13.984375 
Q 42 -20.796875 29.203125 -20.796875 
Q 24.46875 -20.796875 20.265625 -20.09375 
Q 16.0625 -19.390625 12.109375 -17.921875 
L 12.109375 -9.1875 
Q 16.0625 -11.328125 19.921875 -12.34375 
Q 23.78125 -13.375 27.78125 -13.375 
Q 36.625 -13.375 41.015625 -8.765625 
Q 45.40625 -4.15625 45.40625 5.171875 
L 45.40625 9.625 
Q 42.625 4.78125 38.28125 2.390625 
Q 33.9375 0 27.875 0 
Q 17.828125 0 11.671875 7.65625 
Q 5.515625 15.328125 5.515625 27.984375 
Q 5.515625 40.671875 11.671875 48.328125 
Q 17.828125 56 27.875 56 
Q 33.9375 56 38.28125 53.609375 
Q 42.625 51.21875 45.40625 46.390625 
L 45.40625 54.6875 
L 54.390625 54.6875 
z
" id="DejaVuSans-67"/>
      <path d="M 45.40625 46.390625 
L 45.40625 75.984375 
L 54.390625 75.984375 
L 54.390625 0 
L 45.40625 0 
L 45.40625 8.203125 
Q 42.578125 3.328125 38.25 0.953125 
Q 33.9375 -1.421875 27.875 -1.421875 
Q 17.96875 -1.421875 11.734375 6.484375 
Q 5.515625 14.40625 5.515625 27.296875 
Q 5.515625 40.1875 11.734375 48.09375 
Q 17.96875 56 27.875 56 
Q 33.9375 56 38.25 53.625 
Q 42.578125 51.265625 45.40625 46.390625 
z
M 14.796875 27.296875 
Q 14.796875 17.390625 18.875 11.75 
Q 22.953125 6.109375 30.078125 6.109375 
Q 37.203125 6.109375 41.296875 11.75 
Q 45.40625 17.390625 45.40625 27.296875 
Q 45.40625 37.203125 41.296875 42.84375 
Q 37.203125 48.484375 30.078125 48.484375 
Q 22.953125 48.484375 18.875 42.84375 
Q 14.796875 37.203125 14.796875 27.296875 
z
" id="DejaVuSans-64"/>
     </defs>
     <g transform="translate(77.603125 53.594688)scale(0.1 -0.1)">
      <use xlink:href="#DejaVuSans-62"/>
      <use x="63.476562" xlink:href="#DejaVuSans-69"/>
      <use x="91.259766" xlink:href="#DejaVuSans-74"/>
      <use x="130.46875" xlink:href="#DejaVuSans-20"/>
      <use x="162.255859" xlink:href="#DejaVuSans-6c"/>
      <use x="190.039062" xlink:href="#DejaVuSans-6f"/>
      <use x="251.220703" xlink:href="#DejaVuSans-6f"/>
      <use x="312.402344" xlink:href="#DejaVuSans-6b"/>
      <use x="370.265625" xlink:href="#DejaVuSans-75"/>
      <use x="433.644531" xlink:href="#DejaVuSans-70"/>
      <use x="497.121094" xlink:href="#DejaVuSans-73"/>
      <use x="549.220703" xlink:href="#DejaVuSans-20"/>
      <use x="581.007812" xlink:href="#DejaVuSans-67"/>
      <use x="644.484375" xlink:href="#DejaVuSans-75"/>
      <use x="707.863281" xlink:href="#DejaVuSans-69"/>
      <use x="735.646484" xlink:href="#DejaVuSans-64"/>
      <use x="799.123047" xlink:href="#DejaVuSans-65"/>
      <use x="860.646484" xlink:href="#DejaVuSans-64"/>
     </g>
    </g>
    <g id="PathCollection_11">
     <path d="M 59.603125 68.647812 
C 60.398734 68.647812 61.161865 68.331714 61.724445 67.769133 
C 62.287026 67.206552 62.603125 66.443422 62.603125 65.647812 
C 62.603125 64.852203 62.287026 64.089073 61.724445 63.526492 
C 61.161865 62.963911 60.398734 62.647812 59.603125 62.647812 
C 58.807516 62.647812 58.044385 62.963911 57.481805 63.526492 
C 56.919224 64.089073 56.603125 64.852203 56.603125 65.647812 
C 56.603125 66.443422 56.919224 67.206552 57.481805 67.769133 
C 58.044385 68.331714 58.807516 68.647812 59.603125 68.647812 
z
" style="fill:#a0522d;fill-opacity:0.5;"/>
    </g>
    <g id="text_21">
     <!-- hash() linear -->
     <defs>
      <path d="M 31 75.875 
Q 24.46875 64.65625 21.28125 53.65625 
Q 18.109375 42.671875 18.109375 31.390625 
Q 18.109375 20.125 21.3125 9.0625 
Q 24.515625 -2 31 -13.1875 
L 23.1875 -13.1875 
Q 15.875 -1.703125 12.234375 9.375 
Q 8.59375 20.453125 8.59375 31.390625 
Q 8.59375 42.28125 12.203125 53.3125 
Q 15.828125 64.359375 23.1875 75.875 
z
" id="DejaVuSans-28"/>
      <path d="M 8.015625 75.875 
L 15.828125 75.875 
Q 23.140625 64.359375 26.78125 53.3125 
Q 30.421875 42.28125 30.421875 31.390625 
Q 30.421875 20.453125 26.78125 9.375 
Q 23.140625 -1.703125 15.828125 -13.1875 
L 8.015625 -13.1875 
Q 14.5 -2 17.703125 9.0625 
Q 20.90625 20.125 20.90625 31.390625 
Q 20.90625 42.671875 17.703125 53.65625 
Q 14.5 64.65625 8.015625 75.875 
z
" id="DejaVuSans-29"/>
     </defs>
     <g transform="translate(77.603125 68.272812)scale(0.1 -0.1)">
      <use xlink:href="#DejaVuSans-68"/>
      <use x="63.378906" xlink:href="#DejaVuSans-61"/>
      <use x="124.658203" xlink:href="#DejaVuSans-73"/>
      <use x="176.757812" xlink:href="#DejaVuSans-68"/>
      <use x="240.136719" xlink:href="#DejaVuSans-28"/>
      <use x="279.150391" xlink:href="#DejaVuSans-29"/>
      <use x="318.164062" xlink:href="#DejaVuSans-20"/>
      <use x="349.951172" xlink:href="#DejaVuSans-6c"/>
      <use x="377.734375" xlink:href="#DejaVuSans-69"/>
      <use x="405.517578" xlink:href="#DejaVuSans-6e"/>
      <use x="468.896484" xlink:href="#DejaVuSans-65"/>
      <use x="530.419922" xlink:href="#DejaVuSans-61"/>
      <use x="591.699219" xlink:href="#DejaVuSans-72"/>
     </g>
    </g>
    <g id="PathCollection_12">
     <path d="M 59.603125 83.325938 
C 60.398734 83.325938 61.161865 83.009839 61.724445 82.447258 
C 62.287026 81.884677 62.603125 81.121547 62.603125 80.325938 
C 62.603125 79.530328 62.287026 78.767198 61.724445 78.204617 
C 61.161865 77.642036 60.398734 77.325938 59.603125 77.325938 
C 58.807516 77.325938 58.044385 77.642036 57.481805 78.204617 
C 56.919224 78.767198 56.603125 79.530328 56.603125 80.325938 
C 56.603125 81.121547 56.919224 81.884677 57.481805 82.447258 
C 58.044385 83.009839 58.807516 83.325938 59.603125 83.325938 
z
" style="fill:#00ffff;fill-opacity:0.8;"/>
    </g>
    <g id="text_22">
     <!-- hash() guided -->
     <g transform="translate(77.603125 82.950938)scale(0.1 -0.1)">
      <use xlink:href="#DejaVuSans-68"/>
      <use x="63.378906" xlink:href="#DejaVuSans-61"/>
      <use x="124.658203" xlink:href="#DejaVuSans-73"/>
      <use x="176.757812" xlink:href="#DejaVuSans-68"/>
      <use x="240.136719" xlink:href="#DejaVuSans-28"/>
      <use x="279.150391" xlink:href="#DejaVuSans-29"/>
      <use x="318.164062" xlink:href="#DejaVuSans-20"/>
      <use x="349.951172" xlink:href="#DejaVuSans-67"/>
      <use x="413.427734" xlink:href="#DejaVuSans-75"/>
      <use x="476.806641" xlink:href="#DejaVuSans-69"/>
      <use x="504.589844" xlink:href="#DejaVuSans-64"/>
      <use x="568.066406" xlink:href="#DejaVuSans-65"/>
      <use x="629.589844" xlink:href="#DejaVuSans-64"/>
     </g>
    </g>
    <g id="PathCollection_13">
     <path d="M 59.603125 98.004063 
C 60.398734 98.004063 61.161865 97.687964 61.724445 97.125383 
C 62.287026 96.562802 62.603125 95.799672 62.603125 95.004063 
C 62.603125 94.208453 62.287026 93.445323 61.724445 92.882742 
C 61.161865 92.320161 60.398734 92.004063 59.603125 92.004063 
C 58.807516 92.004063 58.044385 92.320161 57.481805 92.882742 
C 56.919224 93.445323 56.603125 94.208453 56.603125 95.004063 
C 56.603125 95.799672 56.919224 96.562802 57.481805 97.125383 
C 58.044385 97.687964 58.807516 98.004063 59.603125 98.004063 
z
" style="fill:#dda0dd;fill-opacity:0.5;"/>
    </g>
    <g id="text_23">
     <!-- FIB lookups linear -->
     <defs>
      <path d="M 9.8125 72.90625 
L 51.703125 72.90625 
L 51.703125 64.59375 
L 19.671875 64.59375 
L 19.671875 43.109375 
L 48.578125 43.109375 
L 48.578125 34.8125 
L 19.671875 34.8125 
L 19.671875 0 
L 9.8125 0 
z
" id="DejaVuSans-46"/>
      <path d="M 9.8125 72.90625 
L 19.671875 72.90625 
L 19.671875 0 
L 9.8125 0 
z
" id="DejaVuSans-49"/>
      <path d="M 19.671875 34.8125 
L 19.671875 8.109375 
L 35.5 8.109375 
Q 43.453125 8.109375 47.28125 11.40625 
Q 51.125 14.703125 51.125 21.484375 
Q 51.125 28.328125 47.28125 31.5625 
Q 43.453125 34.8125 35.5 34.8125 
z
M 19.671875 64.796875 
L 19.671875 42.828125 
L 34.28125 42.828125 
Q 41.5 42.828125 45.03125 45.53125 
Q 48.578125 48.25 48.578125 53.8125 
Q 48.578125 59.328125 45.03125 62.0625 
Q 41.5 64.796875 34.28125 64.796875 
z
M 9.8125 72.90625 
L 35.015625 72.90625 
Q 46.296875 72.90625 52.390625 68.21875 
Q 58.5 63.53125 58.5 54.890625 
Q 58.5 48.1875 55.375 44.234375 
Q 52.25 40.28125 46.1875 39.3125 
Q 53.46875 37.75 57.5 32.78125 
Q 61.53125 27.828125 61.53125 20.40625 
Q 61.53125 10.640625 54.890625 5.3125 
Q 48.25 0 35.984375 0 
L 9.8125 0 
z
" id="DejaVuSans-42"/>
     </defs>
     <g transform="translate(77.603125 97.629063)scale(0.1 -0.1)">
      <use xlink:href="#DejaVuSans-46"/>
      <use x="57.519531" xlink:href="#DejaVuSans-49"/>
      <use x="87.011719" xlink:href="#DejaVuSans-42"/>
      <use x="155.615234" xlink:href="#DejaVuSans-20"/>
      <use x="187.402344" xlink:href="#DejaVuSans-6c"/>
      <use x="215.185547" xlink:href="#DejaVuSans-6f"/>
      <use x="276.367188" xlink:href="#DejaVuSans-6f"/>
      <use x="337.548828" xlink:href="#DejaVuSans-6b"/>
      <use x="395.412109" xlink:href="#DejaVuSans-75"/>
      <use x="458.791016" xlink:href="#DejaVuSans-70"/>
      <use x="522.267578" xlink:href="#DejaVuSans-73"/>
      <use x="574.367188" xlink:href="#DejaVuSans-20"/>
      <use x="606.154297" xlink:href="#DejaVuSans-6c"/>
      <use x="633.9375" xlink:href="#DejaVuSans-69"/>
      <use x="661.720703" xlink:href="#DejaVuSans-6e"/>
      <use x="725.099609" xlink:href="#DejaVuSans-65"/>
      <use x="786.623047" xlink:href="#DejaVuSans-61"/>
      <use x="847.902344" xlink:href="#DejaVuSans-72"/>
     </g>
    </g>
    <g id="PathCollection_14">
     <path d="M 59.603125 112.682187 
C 60.398734 112.682187 61.161865 112.366089 61.724445 111.803508 
C 62.287026 111.240927 62.603125 110.477797 62.603125 109.682187 
C 62.603125 108.886578 62.287026 108.123448 61.724445 107.560867 
C 61.161865 106.998286 60.398734 106.682187 59.603125 106.682187 
C 58.807516 106.682187 58.044385 106.998286 57.481805 107.560867 
C 56.919224 108.123448 56.603125 108.886578 56.603125 109.682187 
C 56.603125 110.477797 56.919224 111.240927 57.481805 111.803508 
C 58.044385 112.366089 58.807516 112.682187 59.603125 112.682187 
z
" style="fill:#008080;fill-opacity:0.8;"/>
    </g>
    <g id="text_24">
     <!-- FIB lookups guided -->
     <g transform="translate(77.603125 112.307187)scale(0.1 -0.1)">
      <use xlink:href="#DejaVuSans-46"/>
      <use x="57.519531" xlink:href="#DejaVuSans-49"/>
      <use x="87.011719" xlink:href="#DejaVuSans-42"/>
      <use x="155.615234" xlink:href="#DejaVuSans-20"/>
      <use x="187.402344" xlink:href="#DejaVuSans-6c"/>
      <use x="215.185547" xlink:href="#DejaVuSans-6f"/>
      <use x="276.367188" xlink:href="#DejaVuSans-6f"/>
      <use x="337.548828" xlink:href="#DejaVuSans-6b"/>
      <use x="395.412109" xlink:href="#DejaVuSans-75"/>
      <use x="458.791016" xlink:href="#DejaVuSans-70"/>
      <use x="522.267578" xlink:href="#DejaVuSans-73"/>
      <use x="574.367188" xlink:href="#DejaVuSans-20"/>
      <use x="606.154297" xlink:href="#DejaVuSans-67"/>
      <use x="669.630859" xlink:href="#DejaVuSans-75"/>
      <use x="733.009766" xlink:href="#DejaVuSans-69"/>
      <use x="760.792969" xlink:href="#DejaVuSans-64"/>
      <use x="824.269531" xlink:href="#DejaVuSans-65"/>
      <use x="885.792969" xlink:href="#DejaVuSans-64"/>
     </g>
    </g>
    <g id="PathCollection_15">
     <path d="M 59.603125 127.360312 
C 60.398734 127.360312 61.161865 127.044214 61.724445 126.481633 
C 62.287026 125.919052 62.603125 125.155922 62.603125 124.360312 
C 62.603125 123.564703 62.287026 122.801573 61.724445 122.238992 
C 61.161865 121.676411 60.398734 121.360312 59.603125 121.360312 
C 58.807516 121.360312 58.044385 121.676411 57.481805 122.238992 
C 56.919224 122.801573 56.603125 123.564703 56.603125 124.360312 
C 56.603125 125.155922 56.919224 125.919052 57.481805 126.481633 
C 58.044385 127.044214 58.807516 127.360312 59.603125 127.360312 
z
" style="fill:#dc143c;fill-opacity:0.5;"/>
    </g>
    <g id="text_25">
     <!-- defaults linear -->
     <g transform="translate(77.603125 126.985312)scale(0.1 -0.1)">
      <use xlink:href="#DejaVuSans-64"/>
      <use x="63.476562" xlink:href="#DejaVuSans-65"/>
      <use x="125" xlink:href="#DejaVuSans-66"/>
      <use x="160.205078" xlink:href="#DejaVuSans-61"/>
      <use x="221.484375" xlink:href="#DejaVuSans-75"/>
      <use x="284.863281" xlink:href="#DejaVuSans-6c"/>
      <use x="312.646484" xlink:href="#DejaVuSans-74"/>
      <use x="351.855469" xlink:href="#DejaVuSans-73"/>
      <use x="403.955078" xlink:href="#DejaVuSans-20"/>
      <use x="435.742188" xlink:href="#DejaVuSans-6c"/>
      <use x="463.525391" xlink:href="#DejaVuSans-69"/>
      <use x="491.308594" xlink:href="#DejaVuSans-6e"/>
      <use x="554.6875" xlink:href="#DejaVuSans-65"/>
      <use x="616.210938" xlink:href="#DejaVuSans-61"/>
      <use x="677.490234" xlink:href="#DejaVuSans-72"/>
     </g>
    </g>
    <g id="PathCollection_16">
     <path d="M 59.603125 142.038437 
C 60.398734 142.038437 61.161865 141.722339 61.724445 141.159758 
C 62.287026 140.597177 62.603125 139.834047 62.603125 139.038437 
C 62.603125 138.242828 62.287026 137.479698 61.724445 136.917117 
C 61.161865 136.354536 60.398734 136.038437 59.603125 136.038437 
C 58.807516 136.038437 58.044385 136.354536 57.481805 136.917117 
C 56.919224 137.479698 56.603125 138.242828 56.603125 139.038437 
C 56.603125 139.834047 56.919224 140.597177 57.481805 141.159758 
C 58.044385 141.722339 58.807516 142.038437 59.603125 142.038437 
z
" style="fill:#87ceeb;fill-opacity:0.8;"/>
    </g>
    <g id="text_26">
     <!-- defaults guided -->
     <g transform="translate(77.603125 141.663437)scale(0.1 -0.1)">
      <use xlink:href="#DejaVuSans-64"/>
      <use x="63.476562" xlink:href="#DejaVuSans-65"/>
      <use x="125" xlink:href="#DejaVuSans-66"/>
      <use x="160.205078" xlink:href="#DejaVuSans-61"/>
      <use x="221.484375" xlink:href="#DejaVuSans-75"/>
      <use x="284.863281" xlink:href="#DejaVuSans-6c"/>
      <use x="312.646484" xlink:href="#DejaVuSans-74"/>
      <use x="351.855469" xlink:href="#DejaVuSans-73"/>
      <use x="403.955078" xlink:href="#DejaVuSans-20"/>
      <use x="435.742188" xlink:href="#DejaVuSans-67"/>
      <use x="499.21875" xlink:href="#DejaVuSans-75"/>
      <use x="562.597656" xlink:href="#DejaVuSans-69"/>
      <use x="590.380859" xlink:href="#DejaVuSans-64"/>
      <use x="653.857422" xlink:href="#DejaVuSans-65"/>
      <use x="715.380859" xlink:href="#DejaVuSans-64"/>
     </g>
    </g>
   </g>
  </g>
 </g>
 <defs>
  <clipPath id="p6691c4cd51">
   <rect height="266.112" width="357.12" x="40.603125" y="22.318125"/>
  </clipPath>
 </defs>
</svg>
