<?xml version="1.0" encoding="UTF-8" standalone="no"?>
<!DOCTYPE svg PUBLIC "-//W3C//DTD SVG 1.1//EN"
 "http://www.w3.org/Graphics/SVG/1.1/DTD/svg11.dtd">
<!-- Generated by graphviz version 2.40.1 (20161225.0304)
 -->
<!-- Title: BST Pages: 1 -->
<svg width="854pt" height="332pt"
 viewBox="0.00 0.00 854.00 332.00" xmlns="http://www.w3.org/2000/svg" xmlns:xlink="http://www.w3.org/1999/xlink">
<g id="graph0" class="graph" transform="scale(1 1) rotate(0) translate(4 328)">
<title>BST</title>
<polygon fill="#ffffff" stroke="transparent" points="-4,4 -4,-328 850,-328 850,4 -4,4"/>
<!-- 17 -->
<g id="node1" class="node">
<title>17</title>
<ellipse fill="none" stroke="#000000" cx="351" cy="-306" rx="27" ry="18"/>
<text text-anchor="middle" x="351" y="-302.3" font-family="Arial" font-size="14.00" fill="#000000">17</text>
</g>
<!-- 11 -->
<g id="node2" class="node">
<title>11</title>
<ellipse fill="none" stroke="#000000" cx="207" cy="-234" rx="27" ry="18"/>
<text text-anchor="middle" x="207" y="-230.3" font-family="Arial" font-size="14.00" fill="#000000">11</text>
</g>
<!-- 17&#45;&gt;11 -->
<g id="edge1" class="edge">
<title>17&#45;&gt;11</title>
<path fill="none" stroke="#000000" d="M329.1295,-295.0647C304.7778,-282.8889 265.238,-263.119 237.7715,-249.3858"/>
<polygon fill="#000000" stroke="#000000" points="239.114,-246.1439 228.6045,-244.8022 235.9835,-252.4049 239.114,-246.1439"/>
</g>
<!-- 25 -->
<g id="node11" class="node">
<title>25</title>
<ellipse fill="none" stroke="#000000" cx="423" cy="-234" rx="27" ry="18"/>
<text text-anchor="middle" x="423" y="-230.3" font-family="Arial" font-size="14.00" fill="#000000">25</text>
</g>
<!-- 17&#45;&gt;25 -->
<g id="edge10" class="edge">
<title>17&#45;&gt;25</title>
<path fill="none" stroke="#000000" d="M366.2693,-290.7307C376.197,-280.803 389.3153,-267.6847 400.4363,-256.5637"/>
<polygon fill="#000000" stroke="#000000" points="403.1564,-258.7933 407.7527,-249.2473 398.2067,-253.8436 403.1564,-258.7933"/>
</g>
<!-- 9 -->
<g id="node3" class="node">
<title>9</title>
<ellipse fill="none" stroke="#000000" cx="99" cy="-162" rx="27" ry="18"/>
<text text-anchor="middle" x="99" y="-158.3" font-family="Arial" font-size="14.00" fill="#000000">9</text>
</g>
<!-- 11&#45;&gt;9 -->
<g id="edge2" class="edge">
<title>11&#45;&gt;9</title>
<path fill="none" stroke="#000000" d="M187.6918,-221.1278C170.6445,-209.763 145.5981,-193.0654 126.4656,-180.3104"/>
<polygon fill="#000000" stroke="#000000" points="128.4031,-177.3956 118.1411,-174.7607 124.5201,-183.2199 128.4031,-177.3956"/>
</g>
<!-- 13 -->
<g id="node6" class="node">
<title>13</title>
<ellipse fill="none" stroke="#000000" cx="207" cy="-162" rx="27" ry="18"/>
<text text-anchor="middle" x="207" y="-158.3" font-family="Arial" font-size="14.00" fill="#000000">13</text>
</g>
<!-- 11&#45;&gt;13 -->
<g id="edge5" class="edge">
<title>11&#45;&gt;13</title>
<path fill="none" stroke="#000000" d="M207,-215.8314C207,-208.131 207,-198.9743 207,-190.4166"/>
<polygon fill="#000000" stroke="#000000" points="210.5001,-190.4132 207,-180.4133 203.5001,-190.4133 210.5001,-190.4132"/>
</g>
<!-- 8 -->
<g id="node4" class="node">
<title>8</title>
<ellipse fill="none" stroke="#000000" cx="27" cy="-90" rx="27" ry="18"/>
<text text-anchor="middle" x="27" y="-86.3" font-family="Arial" font-size="14.00" fill="#000000">8</text>
</g>
<!-- 9&#45;&gt;8 -->
<g id="edge3" class="edge">
<title>9&#45;&gt;8</title>
<path fill="none" stroke="#000000" d="M83.7307,-146.7307C73.803,-136.803 60.6847,-123.6847 49.5637,-112.5637"/>
<polygon fill="#000000" stroke="#000000" points="51.7933,-109.8436 42.2473,-105.2473 46.8436,-114.7933 51.7933,-109.8436"/>
</g>
<!-- 10 -->
<g id="node5" class="node">
<title>10</title>
<ellipse fill="none" stroke="#000000" cx="99" cy="-90" rx="27" ry="18"/>
<text text-anchor="middle" x="99" y="-86.3" font-family="Arial" font-size="14.00" fill="#000000">10</text>
</g>
<!-- 9&#45;&gt;10 -->
<g id="edge4" class="edge">
<title>9&#45;&gt;10</title>
<path fill="none" stroke="#000000" d="M99,-143.8314C99,-136.131 99,-126.9743 99,-118.4166"/>
<polygon fill="#000000" stroke="#000000" points="102.5001,-118.4132 99,-108.4133 95.5001,-118.4133 102.5001,-118.4132"/>
</g>
<!-- 12 -->
<g id="node7" class="node">
<title>12</title>
<ellipse fill="none" stroke="#000000" cx="171" cy="-90" rx="27" ry="18"/>
<text text-anchor="middle" x="171" y="-86.3" font-family="Arial" font-size="14.00" fill="#000000">12</text>
</g>
<!-- 13&#45;&gt;12 -->
<g id="edge6" class="edge">
<title>13&#45;&gt;12</title>
<path fill="none" stroke="#000000" d="M198.2854,-144.5708C194.0403,-136.0807 188.8464,-125.6929 184.1337,-116.2674"/>
<polygon fill="#000000" stroke="#000000" points="187.237,-114.6477 179.6343,-107.2687 180.976,-117.7782 187.237,-114.6477"/>
</g>
<!-- 15 -->
<g id="node8" class="node">
<title>15</title>
<ellipse fill="none" stroke="#000000" cx="243" cy="-90" rx="27" ry="18"/>
<text text-anchor="middle" x="243" y="-86.3" font-family="Arial" font-size="14.00" fill="#000000">15</text>
</g>
<!-- 13&#45;&gt;15 -->
<g id="edge7" class="edge">
<title>13&#45;&gt;15</title>
<path fill="none" stroke="#000000" d="M215.7146,-144.5708C219.9597,-136.0807 225.1536,-125.6929 229.8663,-116.2674"/>
<polygon fill="#000000" stroke="#000000" points="233.024,-117.7782 234.3657,-107.2687 226.763,-114.6477 233.024,-117.7782"/>
</g>
<!-- 14 -->
<g id="node9" class="node">
<title>14</title>
<ellipse fill="none" stroke="#000000" cx="171" cy="-18" rx="27" ry="18"/>
<text text-anchor="middle" x="171" y="-14.3" font-family="Arial" font-size="14.00" fill="#000000">14</text>
</g>
<!-- 15&#45;&gt;14 -->
<g id="edge8" class="edge">
<title>15&#45;&gt;14</title>
<path fill="none" stroke="#000000" d="M227.7307,-74.7307C217.803,-64.803 204.6847,-51.6847 193.5637,-40.5637"/>
<polygon fill="#000000" stroke="#000000" points="195.7933,-37.8436 186.2473,-33.2473 190.8436,-42.7933 195.7933,-37.8436"/>
</g>
<!-- 16 -->
<g id="node10" class="node">
<title>16</title>
<ellipse fill="none" stroke="#000000" cx="243" cy="-18" rx="27" ry="18"/>
<text text-anchor="middle" x="243" y="-14.3" font-family="Arial" font-size="14.00" fill="#000000">16</text>
</g>
<!-- 15&#45;&gt;16 -->
<g id="edge9" class="edge">
<title>15&#45;&gt;16</title>
<path fill="none" stroke="#000000" d="M243,-71.8314C243,-64.131 243,-54.9743 243,-46.4166"/>
<polygon fill="#000000" stroke="#000000" points="246.5001,-46.4132 243,-36.4133 239.5001,-46.4133 246.5001,-46.4132"/>
</g>
<!-- 21 -->
<g id="node12" class="node">
<title>21</title>
<ellipse fill="none" stroke="#000000" cx="423" cy="-162" rx="27" ry="18"/>
<text text-anchor="middle" x="423" y="-158.3" font-family="Arial" font-size="14.00" fill="#000000">21</text>
</g>
<!-- 25&#45;&gt;21 -->
<g id="edge11" class="edge">
<title>25&#45;&gt;21</title>
<path fill="none" stroke="#000000" d="M423,-215.8314C423,-208.131 423,-198.9743 423,-190.4166"/>
<polygon fill="#000000" stroke="#000000" points="426.5001,-190.4132 423,-180.4133 419.5001,-190.4133 426.5001,-190.4132"/>
</g>
<!-- 29 -->
<g id="node19" class="node">
<title>29</title>
<ellipse fill="none" stroke="#000000" cx="639" cy="-162" rx="27" ry="18"/>
<text text-anchor="middle" x="639" y="-158.3" font-family="Arial" font-size="14.00" fill="#000000">29</text>
</g>
<!-- 25&#45;&gt;29 -->
<g id="edge18" class="edge">
<title>25&#45;&gt;29</title>
<path fill="none" stroke="#000000" d="M447.3581,-225.8806C485.947,-213.0177 561.2439,-187.9187 605.0896,-173.3035"/>
<polygon fill="#000000" stroke="#000000" points="606.3509,-176.5724 614.7309,-170.0897 604.1373,-169.9316 606.3509,-176.5724"/>
</g>
<!-- 19 -->
<g id="node13" class="node">
<title>19</title>
<ellipse fill="none" stroke="#000000" cx="387" cy="-90" rx="27" ry="18"/>
<text text-anchor="middle" x="387" y="-86.3" font-family="Arial" font-size="14.00" fill="#000000">19</text>
</g>
<!-- 21&#45;&gt;19 -->
<g id="edge12" class="edge">
<title>21&#45;&gt;19</title>
<path fill="none" stroke="#000000" d="M414.2854,-144.5708C410.0403,-136.0807 404.8464,-125.6929 400.1337,-116.2674"/>
<polygon fill="#000000" stroke="#000000" points="403.237,-114.6477 395.6343,-107.2687 396.976,-117.7782 403.237,-114.6477"/>
</g>
<!-- 23 -->
<g id="node16" class="node">
<title>23</title>
<ellipse fill="none" stroke="#000000" cx="459" cy="-90" rx="27" ry="18"/>
<text text-anchor="middle" x="459" y="-86.3" font-family="Arial" font-size="14.00" fill="#000000">23</text>
</g>
<!-- 21&#45;&gt;23 -->
<g id="edge15" class="edge">
<title>21&#45;&gt;23</title>
<path fill="none" stroke="#000000" d="M431.7146,-144.5708C435.9597,-136.0807 441.1536,-125.6929 445.8663,-116.2674"/>
<polygon fill="#000000" stroke="#000000" points="449.024,-117.7782 450.3657,-107.2687 442.763,-114.6477 449.024,-117.7782"/>
</g>
<!-- 18 -->
<g id="node14" class="node">
<title>18</title>
<ellipse fill="none" stroke="#000000" cx="315" cy="-18" rx="27" ry="18"/>
<text text-anchor="middle" x="315" y="-14.3" font-family="Arial" font-size="14.00" fill="#000000">18</text>
</g>
<!-- 19&#45;&gt;18 -->
<g id="edge13" class="edge">
<title>19&#45;&gt;18</title>
<path fill="none" stroke="#000000" d="M371.7307,-74.7307C361.803,-64.803 348.6847,-51.6847 337.5637,-40.5637"/>
<polygon fill="#000000" stroke="#000000" points="339.7933,-37.8436 330.2473,-33.2473 334.8436,-42.7933 339.7933,-37.8436"/>
</g>
<!-- 20 -->
<g id="node15" class="node">
<title>20</title>
<ellipse fill="none" stroke="#000000" cx="387" cy="-18" rx="27" ry="18"/>
<text text-anchor="middle" x="387" y="-14.3" font-family="Arial" font-size="14.00" fill="#000000">20</text>
</g>
<!-- 19&#45;&gt;20 -->
<g id="edge14" class="edge">
<title>19&#45;&gt;20</title>
<path fill="none" stroke="#000000" d="M387,-71.8314C387,-64.131 387,-54.9743 387,-46.4166"/>
<polygon fill="#000000" stroke="#000000" points="390.5001,-46.4132 387,-36.4133 383.5001,-46.4133 390.5001,-46.4132"/>
</g>
<!-- 22 -->
<g id="node17" class="node">
<title>22</title>
<ellipse fill="none" stroke="#000000" cx="459" cy="-18" rx="27" ry="18"/>
<text text-anchor="middle" x="459" y="-14.3" font-family="Arial" font-size="14.00" fill="#000000">22</text>
</g>
<!-- 23&#45;&gt;22 -->
<g id="edge16" class="edge">
<title>23&#45;&gt;22</title>
<path fill="none" stroke="#000000" d="M459,-71.8314C459,-64.131 459,-54.9743 459,-46.4166"/>
<polygon fill="#000000" stroke="#000000" points="462.5001,-46.4132 459,-36.4133 455.5001,-46.4133 462.5001,-46.4132"/>
</g>
<!-- 24 -->
<g id="node18" class="node">
<title>24</title>
<ellipse fill="none" stroke="#000000" cx="531" cy="-18" rx="27" ry="18"/>
<text text-anchor="middle" x="531" y="-14.3" font-family="Arial" font-size="14.00" fill="#000000">24</text>
</g>
<!-- 23&#45;&gt;24 -->
<g id="edge17" class="edge">
<title>23&#45;&gt;24</title>
<path fill="none" stroke="#000000" d="M474.2693,-74.7307C484.197,-64.803 497.3153,-51.6847 508.4363,-40.5637"/>
<polygon fill="#000000" stroke="#000000" points="511.1564,-42.7933 515.7527,-33.2473 506.2067,-37.8436 511.1564,-42.7933"/>
</g>
<!-- 27 -->
<g id="node20" class="node">
<title>27</title>
<ellipse fill="none" stroke="#000000" cx="639" cy="-90" rx="27" ry="18"/>
<text text-anchor="middle" x="639" y="-86.3" font-family="Arial" font-size="14.00" fill="#000000">27</text>
</g>
<!-- 29&#45;&gt;27 -->
<g id="edge19" class="edge">
<title>29&#45;&gt;27</title>
<path fill="none" stroke="#000000" d="M639,-143.8314C639,-136.131 639,-126.9743 639,-118.4166"/>
<polygon fill="#000000" stroke="#000000" points="642.5001,-118.4132 639,-108.4133 635.5001,-118.4133 642.5001,-118.4132"/>
</g>
<!-- 31 -->
<g id="node23" class="node">
<title>31</title>
<ellipse fill="none" stroke="#000000" cx="747" cy="-90" rx="27" ry="18"/>
<text text-anchor="middle" x="747" y="-86.3" font-family="Arial" font-size="14.00" fill="#000000">31</text>
</g>
<!-- 29&#45;&gt;31 -->
<g id="edge22" class="edge">
<title>29&#45;&gt;31</title>
<path fill="none" stroke="#000000" d="M658.3082,-149.1278C675.3555,-137.763 700.4019,-121.0654 719.5344,-108.3104"/>
<polygon fill="#000000" stroke="#000000" points="721.4799,-111.2199 727.8589,-102.7607 717.5969,-105.3956 721.4799,-111.2199"/>
</g>
<!-- 26 -->
<g id="node21" class="node">
<title>26</title>
<ellipse fill="none" stroke="#000000" cx="603" cy="-18" rx="27" ry="18"/>
<text text-anchor="middle" x="603" y="-14.3" font-family="Arial" font-size="14.00" fill="#000000">26</text>
</g>
<!-- 27&#45;&gt;26 -->
<g id="edge20" class="edge">
<title>27&#45;&gt;26</title>
<path fill="none" stroke="#000000" d="M630.2854,-72.5708C626.0403,-64.0807 620.8464,-53.6929 616.1337,-44.2674"/>
<polygon fill="#000000" stroke="#000000" points="619.237,-42.6477 611.6343,-35.2687 612.976,-45.7782 619.237,-42.6477"/>
</g>
<!-- 28 -->
<g id="node22" class="node">
<title>28</title>
<ellipse fill="none" stroke="#000000" cx="675" cy="-18" rx="27" ry="18"/>
<text text-anchor="middle" x="675" y="-14.3" font-family="Arial" font-size="14.00" fill="#000000">28</text>
</g>
<!-- 27&#45;&gt;28 -->
<g id="edge21" class="edge">
<title>27&#45;&gt;28</title>
<path fill="none" stroke="#000000" d="M647.7146,-72.5708C651.9597,-64.0807 657.1536,-53.6929 661.8663,-44.2674"/>
<polygon fill="#000000" stroke="#000000" points="665.024,-45.7782 666.3657,-35.2687 658.763,-42.6477 665.024,-45.7782"/>
</g>
<!-- 30 -->
<g id="node24" class="node">
<title>30</title>
<ellipse fill="none" stroke="#000000" cx="747" cy="-18" rx="27" ry="18"/>
<text text-anchor="middle" x="747" y="-14.3" font-family="Arial" font-size="14.00" fill="#000000">30</text>
</g>
<!-- 31&#45;&gt;30 -->
<g id="edge23" class="edge">
<title>31&#45;&gt;30</title>
<path fill="none" stroke="#000000" d="M747,-71.8314C747,-64.131 747,-54.9743 747,-46.4166"/>
<polygon fill="#000000" stroke="#000000" points="750.5001,-46.4132 747,-36.4133 743.5001,-46.4133 750.5001,-46.4132"/>
</g>
<!-- 32 -->
<g id="node25" class="node">
<title>32</title>
<ellipse fill="none" stroke="#000000" cx="819" cy="-18" rx="27" ry="18"/>
<text text-anchor="middle" x="819" y="-14.3" font-family="Arial" font-size="14.00" fill="#000000">32</text>
</g>
<!-- 31&#45;&gt;32 -->
<g id="edge24" class="edge">
<title>31&#45;&gt;32</title>
<path fill="none" stroke="#000000" d="M762.2693,-74.7307C772.197,-64.803 785.3153,-51.6847 796.4363,-40.5637"/>
<polygon fill="#000000" stroke="#000000" points="799.1564,-42.7933 803.7527,-33.2473 794.2067,-37.8436 799.1564,-42.7933"/>
</g>
</g>
</svg>
