<?xml version="1.0" encoding="UTF-8" standalone="no"?>
<!DOCTYPE svg PUBLIC "-//W3C//DTD SVG 1.1//EN"
 "http://www.w3.org/Graphics/SVG/1.1/DTD/svg11.dtd">
<!-- Generated by graphviz version 2.40.1 (20161225.0304)
 -->
<!-- Title: BST Pages: 1 -->
<svg width="458pt" height="836pt"
 viewBox="0.00 0.00 458.00 836.00" xmlns="http://www.w3.org/2000/svg" xmlns:xlink="http://www.w3.org/1999/xlink">
<g id="graph0" class="graph" transform="scale(1 1) rotate(0) translate(4 832)">
<title>BST</title>
<polygon fill="#ffffff" stroke="transparent" points="-4,4 -4,-832 454,-832 454,4 -4,4"/>
<!-- 24 -->
<g id="node1" class="node">
<title>24</title>
<ellipse fill="none" stroke="#000000" cx="315" cy="-810" rx="27" ry="18"/>
<text text-anchor="middle" x="315" y="-806.3" font-family="Arial" font-size="14.00" fill="#000000">24</text>
</g>
<!-- 22 -->
<g id="node2" class="node">
<title>22</title>
<ellipse fill="none" stroke="#000000" cx="279" cy="-738" rx="27" ry="18"/>
<text text-anchor="middle" x="279" y="-734.3" font-family="Arial" font-size="14.00" fill="#000000">22</text>
</g>
<!-- 24&#45;&gt;22 -->
<g id="edge1" class="edge">
<title>24&#45;&gt;22</title>
<path fill="none" stroke="#000000" d="M306.2854,-792.5708C302.0403,-784.0807 296.8464,-773.6929 292.1337,-764.2674"/>
<polygon fill="#000000" stroke="#000000" points="295.237,-762.6477 287.6343,-755.2687 288.976,-765.7782 295.237,-762.6477"/>
</g>
<!-- 29 -->
<g id="node18" class="node">
<title>29</title>
<ellipse fill="none" stroke="#000000" cx="351" cy="-738" rx="27" ry="18"/>
<text text-anchor="middle" x="351" y="-734.3" font-family="Arial" font-size="14.00" fill="#000000">29</text>
</g>
<!-- 24&#45;&gt;29 -->
<g id="edge17" class="edge">
<title>24&#45;&gt;29</title>
<path fill="none" stroke="#000000" d="M323.7146,-792.5708C327.9597,-784.0807 333.1536,-773.6929 337.8663,-764.2674"/>
<polygon fill="#000000" stroke="#000000" points="341.024,-765.7782 342.3657,-755.2687 334.763,-762.6477 341.024,-765.7782"/>
</g>
<!-- 20 -->
<g id="node3" class="node">
<title>20</title>
<ellipse fill="none" stroke="#000000" cx="207" cy="-666" rx="27" ry="18"/>
<text text-anchor="middle" x="207" y="-662.3" font-family="Arial" font-size="14.00" fill="#000000">20</text>
</g>
<!-- 22&#45;&gt;20 -->
<g id="edge2" class="edge">
<title>22&#45;&gt;20</title>
<path fill="none" stroke="#000000" d="M263.7307,-722.7307C253.803,-712.803 240.6847,-699.6847 229.5637,-688.5637"/>
<polygon fill="#000000" stroke="#000000" points="231.7933,-685.8436 222.2473,-681.2473 226.8436,-690.7933 231.7933,-685.8436"/>
</g>
<!-- 23 -->
<g id="node17" class="node">
<title>23</title>
<ellipse fill="none" stroke="#000000" cx="279" cy="-666" rx="27" ry="18"/>
<text text-anchor="middle" x="279" y="-662.3" font-family="Arial" font-size="14.00" fill="#000000">23</text>
</g>
<!-- 22&#45;&gt;23 -->
<g id="edge16" class="edge">
<title>22&#45;&gt;23</title>
<path fill="none" stroke="#000000" d="M279,-719.8314C279,-712.131 279,-702.9743 279,-694.4166"/>
<polygon fill="#000000" stroke="#000000" points="282.5001,-694.4132 279,-684.4133 275.5001,-694.4133 282.5001,-694.4132"/>
</g>
<!-- 18 -->
<g id="node4" class="node">
<title>18</title>
<ellipse fill="none" stroke="#000000" cx="135" cy="-594" rx="27" ry="18"/>
<text text-anchor="middle" x="135" y="-590.3" font-family="Arial" font-size="14.00" fill="#000000">18</text>
</g>
<!-- 20&#45;&gt;18 -->
<g id="edge3" class="edge">
<title>20&#45;&gt;18</title>
<path fill="none" stroke="#000000" d="M191.7307,-650.7307C181.803,-640.803 168.6847,-627.6847 157.5637,-616.5637"/>
<polygon fill="#000000" stroke="#000000" points="159.7933,-613.8436 150.2473,-609.2473 154.8436,-618.7933 159.7933,-613.8436"/>
</g>
<!-- 21 -->
<g id="node16" class="node">
<title>21</title>
<ellipse fill="none" stroke="#000000" cx="207" cy="-594" rx="27" ry="18"/>
<text text-anchor="middle" x="207" y="-590.3" font-family="Arial" font-size="14.00" fill="#000000">21</text>
</g>
<!-- 20&#45;&gt;21 -->
<g id="edge15" class="edge">
<title>20&#45;&gt;21</title>
<path fill="none" stroke="#000000" d="M207,-647.8314C207,-640.131 207,-630.9743 207,-622.4166"/>
<polygon fill="#000000" stroke="#000000" points="210.5001,-622.4132 207,-612.4133 203.5001,-622.4133 210.5001,-622.4132"/>
</g>
<!-- 16 -->
<g id="node5" class="node">
<title>16</title>
<ellipse fill="none" stroke="#000000" cx="99" cy="-522" rx="27" ry="18"/>
<text text-anchor="middle" x="99" y="-518.3" font-family="Arial" font-size="14.00" fill="#000000">16</text>
</g>
<!-- 18&#45;&gt;16 -->
<g id="edge4" class="edge">
<title>18&#45;&gt;16</title>
<path fill="none" stroke="#000000" d="M126.2854,-576.5708C122.0403,-568.0807 116.8464,-557.6929 112.1337,-548.2674"/>
<polygon fill="#000000" stroke="#000000" points="115.237,-546.6477 107.6343,-539.2687 108.976,-549.7782 115.237,-546.6477"/>
</g>
<!-- 19 -->
<g id="node15" class="node">
<title>19</title>
<ellipse fill="none" stroke="#000000" cx="171" cy="-522" rx="27" ry="18"/>
<text text-anchor="middle" x="171" y="-518.3" font-family="Arial" font-size="14.00" fill="#000000">19</text>
</g>
<!-- 18&#45;&gt;19 -->
<g id="edge14" class="edge">
<title>18&#45;&gt;19</title>
<path fill="none" stroke="#000000" d="M143.7146,-576.5708C147.9597,-568.0807 153.1536,-557.6929 157.8663,-548.2674"/>
<polygon fill="#000000" stroke="#000000" points="161.024,-549.7782 162.3657,-539.2687 154.763,-546.6477 161.024,-549.7782"/>
</g>
<!-- 14 -->
<g id="node6" class="node">
<title>14</title>
<ellipse fill="none" stroke="#000000" cx="63" cy="-450" rx="27" ry="18"/>
<text text-anchor="middle" x="63" y="-446.3" font-family="Arial" font-size="14.00" fill="#000000">14</text>
</g>
<!-- 16&#45;&gt;14 -->
<g id="edge5" class="edge">
<title>16&#45;&gt;14</title>
<path fill="none" stroke="#000000" d="M90.2854,-504.5708C86.0403,-496.0807 80.8464,-485.6929 76.1337,-476.2674"/>
<polygon fill="#000000" stroke="#000000" points="79.237,-474.6477 71.6343,-467.2687 72.976,-477.7782 79.237,-474.6477"/>
</g>
<!-- 17 -->
<g id="node14" class="node">
<title>17</title>
<ellipse fill="none" stroke="#000000" cx="135" cy="-450" rx="27" ry="18"/>
<text text-anchor="middle" x="135" y="-446.3" font-family="Arial" font-size="14.00" fill="#000000">17</text>
</g>
<!-- 16&#45;&gt;17 -->
<g id="edge13" class="edge">
<title>16&#45;&gt;17</title>
<path fill="none" stroke="#000000" d="M107.7146,-504.5708C111.9597,-496.0807 117.1536,-485.6929 121.8663,-476.2674"/>
<polygon fill="#000000" stroke="#000000" points="125.024,-477.7782 126.3657,-467.2687 118.763,-474.6477 125.024,-477.7782"/>
</g>
<!-- 13 -->
<g id="node7" class="node">
<title>13</title>
<ellipse fill="none" stroke="#000000" cx="27" cy="-378" rx="27" ry="18"/>
<text text-anchor="middle" x="27" y="-374.3" font-family="Arial" font-size="14.00" fill="#000000">13</text>
</g>
<!-- 14&#45;&gt;13 -->
<g id="edge6" class="edge">
<title>14&#45;&gt;13</title>
<path fill="none" stroke="#000000" d="M54.2854,-432.5708C50.0403,-424.0807 44.8464,-413.6929 40.1337,-404.2674"/>
<polygon fill="#000000" stroke="#000000" points="43.237,-402.6477 35.6343,-395.2687 36.976,-405.7782 43.237,-402.6477"/>
</g>
<!-- 15 -->
<g id="node13" class="node">
<title>15</title>
<ellipse fill="none" stroke="#000000" cx="99" cy="-378" rx="27" ry="18"/>
<text text-anchor="middle" x="99" y="-374.3" font-family="Arial" font-size="14.00" fill="#000000">15</text>
</g>
<!-- 14&#45;&gt;15 -->
<g id="edge12" class="edge">
<title>14&#45;&gt;15</title>
<path fill="none" stroke="#000000" d="M71.7146,-432.5708C75.9597,-424.0807 81.1536,-413.6929 85.8663,-404.2674"/>
<polygon fill="#000000" stroke="#000000" points="89.024,-405.7782 90.3657,-395.2687 82.763,-402.6477 89.024,-405.7782"/>
</g>
<!-- 12 -->
<g id="node8" class="node">
<title>12</title>
<ellipse fill="none" stroke="#000000" cx="27" cy="-306" rx="27" ry="18"/>
<text text-anchor="middle" x="27" y="-302.3" font-family="Arial" font-size="14.00" fill="#000000">12</text>
</g>
<!-- 13&#45;&gt;12 -->
<g id="edge7" class="edge">
<title>13&#45;&gt;12</title>
<path fill="none" stroke="#000000" d="M27,-359.8314C27,-352.131 27,-342.9743 27,-334.4166"/>
<polygon fill="#000000" stroke="#000000" points="30.5001,-334.4132 27,-324.4133 23.5001,-334.4133 30.5001,-334.4132"/>
</g>
<!-- 11 -->
<g id="node9" class="node">
<title>11</title>
<ellipse fill="none" stroke="#000000" cx="27" cy="-234" rx="27" ry="18"/>
<text text-anchor="middle" x="27" y="-230.3" font-family="Arial" font-size="14.00" fill="#000000">11</text>
</g>
<!-- 12&#45;&gt;11 -->
<g id="edge8" class="edge">
<title>12&#45;&gt;11</title>
<path fill="none" stroke="#000000" d="M27,-287.8314C27,-280.131 27,-270.9743 27,-262.4166"/>
<polygon fill="#000000" stroke="#000000" points="30.5001,-262.4132 27,-252.4133 23.5001,-262.4133 30.5001,-262.4132"/>
</g>
<!-- 10 -->
<g id="node10" class="node">
<title>10</title>
<ellipse fill="none" stroke="#000000" cx="27" cy="-162" rx="27" ry="18"/>
<text text-anchor="middle" x="27" y="-158.3" font-family="Arial" font-size="14.00" fill="#000000">10</text>
</g>
<!-- 11&#45;&gt;10 -->
<g id="edge9" class="edge">
<title>11&#45;&gt;10</title>
<path fill="none" stroke="#000000" d="M27,-215.8314C27,-208.131 27,-198.9743 27,-190.4166"/>
<polygon fill="#000000" stroke="#000000" points="30.5001,-190.4132 27,-180.4133 23.5001,-190.4133 30.5001,-190.4132"/>
</g>
<!-- 8 -->
<g id="node11" class="node">
<title>8</title>
<ellipse fill="none" stroke="#000000" cx="27" cy="-90" rx="27" ry="18"/>
<text text-anchor="middle" x="27" y="-86.3" font-family="Arial" font-size="14.00" fill="#000000">8</text>
</g>
<!-- 10&#45;&gt;8 -->
<g id="edge10" class="edge">
<title>10&#45;&gt;8</title>
<path fill="none" stroke="#000000" d="M27,-143.8314C27,-136.131 27,-126.9743 27,-118.4166"/>
<polygon fill="#000000" stroke="#000000" points="30.5001,-118.4132 27,-108.4133 23.5001,-118.4133 30.5001,-118.4132"/>
</g>
<!-- 9 -->
<g id="node12" class="node">
<title>9</title>
<ellipse fill="none" stroke="#000000" cx="27" cy="-18" rx="27" ry="18"/>
<text text-anchor="middle" x="27" y="-14.3" font-family="Arial" font-size="14.00" fill="#000000">9</text>
</g>
<!-- 8&#45;&gt;9 -->
<g id="edge11" class="edge">
<title>8&#45;&gt;9</title>
<path fill="none" stroke="#000000" d="M27,-71.8314C27,-64.131 27,-54.9743 27,-46.4166"/>
<polygon fill="#000000" stroke="#000000" points="30.5001,-46.4132 27,-36.4133 23.5001,-46.4133 30.5001,-46.4132"/>
</g>
<!-- 26 -->
<g id="node19" class="node">
<title>26</title>
<ellipse fill="none" stroke="#000000" cx="351" cy="-666" rx="27" ry="18"/>
<text text-anchor="middle" x="351" y="-662.3" font-family="Arial" font-size="14.00" fill="#000000">26</text>
</g>
<!-- 29&#45;&gt;26 -->
<g id="edge18" class="edge">
<title>29&#45;&gt;26</title>
<path fill="none" stroke="#000000" d="M351,-719.8314C351,-712.131 351,-702.9743 351,-694.4166"/>
<polygon fill="#000000" stroke="#000000" points="354.5001,-694.4132 351,-684.4133 347.5001,-694.4133 354.5001,-694.4132"/>
</g>
<!-- 32 -->
<g id="node23" class="node">
<title>32</title>
<ellipse fill="none" stroke="#000000" cx="423" cy="-666" rx="27" ry="18"/>
<text text-anchor="middle" x="423" y="-662.3" font-family="Arial" font-size="14.00" fill="#000000">32</text>
</g>
<!-- 29&#45;&gt;32 -->
<g id="edge22" class="edge">
<title>29&#45;&gt;32</title>
<path fill="none" stroke="#000000" d="M366.2693,-722.7307C376.197,-712.803 389.3153,-699.6847 400.4363,-688.5637"/>
<polygon fill="#000000" stroke="#000000" points="403.1564,-690.7933 407.7527,-681.2473 398.2067,-685.8436 403.1564,-690.7933"/>
</g>
<!-- 25 -->
<g id="node20" class="node">
<title>25</title>
<ellipse fill="none" stroke="#000000" cx="279" cy="-594" rx="27" ry="18"/>
<text text-anchor="middle" x="279" y="-590.3" font-family="Arial" font-size="14.00" fill="#000000">25</text>
</g>
<!-- 26&#45;&gt;25 -->
<g id="edge19" class="edge">
<title>26&#45;&gt;25</title>
<path fill="none" stroke="#000000" d="M335.7307,-650.7307C325.803,-640.803 312.6847,-627.6847 301.5637,-616.5637"/>
<polygon fill="#000000" stroke="#000000" points="303.7933,-613.8436 294.2473,-609.2473 298.8436,-618.7933 303.7933,-613.8436"/>
</g>
<!-- 27 -->
<g id="node21" class="node">
<title>27</title>
<ellipse fill="none" stroke="#000000" cx="351" cy="-594" rx="27" ry="18"/>
<text text-anchor="middle" x="351" y="-590.3" font-family="Arial" font-size="14.00" fill="#000000">27</text>
</g>
<!-- 26&#45;&gt;27 -->
<g id="edge20" class="edge">
<title>26&#45;&gt;27</title>
<path fill="none" stroke="#000000" d="M351,-647.8314C351,-640.131 351,-630.9743 351,-622.4166"/>
<polygon fill="#000000" stroke="#000000" points="354.5001,-622.4132 351,-612.4133 347.5001,-622.4133 354.5001,-622.4132"/>
</g>
<!-- 28 -->
<g id="node22" class="node">
<title>28</title>
<ellipse fill="none" stroke="#000000" cx="351" cy="-522" rx="27" ry="18"/>
<text text-anchor="middle" x="351" y="-518.3" font-family="Arial" font-size="14.00" fill="#000000">28</text>
</g>
<!-- 27&#45;&gt;28 -->
<g id="edge21" class="edge">
<title>27&#45;&gt;28</title>
<path fill="none" stroke="#000000" d="M351,-575.8314C351,-568.131 351,-558.9743 351,-550.4166"/>
<polygon fill="#000000" stroke="#000000" points="354.5001,-550.4132 351,-540.4133 347.5001,-550.4133 354.5001,-550.4132"/>
</g>
<!-- 30 -->
<g id="node24" class="node">
<title>30</title>
<ellipse fill="none" stroke="#000000" cx="423" cy="-594" rx="27" ry="18"/>
<text text-anchor="middle" x="423" y="-590.3" font-family="Arial" font-size="14.00" fill="#000000">30</text>
</g>
<!-- 32&#45;&gt;30 -->
<g id="edge23" class="edge">
<title>32&#45;&gt;30</title>
<path fill="none" stroke="#000000" d="M423,-647.8314C423,-640.131 423,-630.9743 423,-622.4166"/>
<polygon fill="#000000" stroke="#000000" points="426.5001,-622.4132 423,-612.4133 419.5001,-622.4133 426.5001,-622.4132"/>
</g>
<!-- 31 -->
<g id="node25" class="node">
<title>31</title>
<ellipse fill="none" stroke="#000000" cx="423" cy="-522" rx="27" ry="18"/>
<text text-anchor="middle" x="423" y="-518.3" font-family="Arial" font-size="14.00" fill="#000000">31</text>
</g>
<!-- 30&#45;&gt;31 -->
<g id="edge24" class="edge">
<title>30&#45;&gt;31</title>
<path fill="none" stroke="#000000" d="M423,-575.8314C423,-568.131 423,-558.9743 423,-550.4166"/>
<polygon fill="#000000" stroke="#000000" points="426.5001,-550.4132 423,-540.4133 419.5001,-550.4133 426.5001,-550.4132"/>
</g>
</g>
</svg>
