<?xml version="1.0" encoding="UTF-8" standalone="no"?>
<!DOCTYPE svg PUBLIC "-//W3C//DTD SVG 1.1//EN"
 "http://www.w3.org/Graphics/SVG/1.1/DTD/svg11.dtd">
<!-- Generated by graphviz version 2.40.1 (20161225.0304)
 -->
<!-- Title: BST Pages: 1 -->
<svg width="602pt" height="764pt"
 viewBox="0.00 0.00 602.00 764.00" xmlns="http://www.w3.org/2000/svg" xmlns:xlink="http://www.w3.org/1999/xlink">
<g id="graph0" class="graph" transform="scale(1 1) rotate(0) translate(4 760)">
<title>BST</title>
<polygon fill="#ffffff" stroke="transparent" points="-4,4 -4,-760 598,-760 598,4 -4,4"/>
<!-- 16 -->
<g id="node1" class="node">
<title>16</title>
<ellipse fill="none" stroke="#000000" cx="279" cy="-738" rx="27" ry="18"/>
<text text-anchor="middle" x="279" y="-734.3" font-family="Arial" font-size="14.00" fill="#000000">16</text>
</g>
<!-- 12 -->
<g id="node2" class="node">
<title>12</title>
<ellipse fill="none" stroke="#000000" cx="207" cy="-666" rx="27" ry="18"/>
<text text-anchor="middle" x="207" y="-662.3" font-family="Arial" font-size="14.00" fill="#000000">12</text>
</g>
<!-- 16&#45;&gt;12 -->
<g id="edge1" class="edge">
<title>16&#45;&gt;12</title>
<path fill="none" stroke="#000000" d="M263.7307,-722.7307C253.803,-712.803 240.6847,-699.6847 229.5637,-688.5637"/>
<polygon fill="#000000" stroke="#000000" points="231.7933,-685.8436 222.2473,-681.2473 226.8436,-690.7933 231.7933,-685.8436"/>
</g>
<!-- 19 -->
<g id="node10" class="node">
<title>19</title>
<ellipse fill="none" stroke="#000000" cx="315" cy="-666" rx="27" ry="18"/>
<text text-anchor="middle" x="315" y="-662.3" font-family="Arial" font-size="14.00" fill="#000000">19</text>
</g>
<!-- 16&#45;&gt;19 -->
<g id="edge9" class="edge">
<title>16&#45;&gt;19</title>
<path fill="none" stroke="#000000" d="M287.7146,-720.5708C291.9597,-712.0807 297.1536,-701.6929 301.8663,-692.2674"/>
<polygon fill="#000000" stroke="#000000" points="305.024,-693.7782 306.3657,-683.2687 298.763,-690.6477 305.024,-693.7782"/>
</g>
<!-- 10 -->
<g id="node3" class="node">
<title>10</title>
<ellipse fill="none" stroke="#000000" cx="99" cy="-594" rx="27" ry="18"/>
<text text-anchor="middle" x="99" y="-590.3" font-family="Arial" font-size="14.00" fill="#000000">10</text>
</g>
<!-- 12&#45;&gt;10 -->
<g id="edge2" class="edge">
<title>12&#45;&gt;10</title>
<path fill="none" stroke="#000000" d="M187.6918,-653.1278C170.6445,-641.763 145.5981,-625.0654 126.4656,-612.3104"/>
<polygon fill="#000000" stroke="#000000" points="128.4031,-609.3956 118.1411,-606.7607 124.5201,-615.2199 128.4031,-609.3956"/>
</g>
<!-- 14 -->
<g id="node7" class="node">
<title>14</title>
<ellipse fill="none" stroke="#000000" cx="207" cy="-594" rx="27" ry="18"/>
<text text-anchor="middle" x="207" y="-590.3" font-family="Arial" font-size="14.00" fill="#000000">14</text>
</g>
<!-- 12&#45;&gt;14 -->
<g id="edge6" class="edge">
<title>12&#45;&gt;14</title>
<path fill="none" stroke="#000000" d="M207,-647.8314C207,-640.131 207,-630.9743 207,-622.4166"/>
<polygon fill="#000000" stroke="#000000" points="210.5001,-622.4132 207,-612.4133 203.5001,-622.4133 210.5001,-622.4132"/>
</g>
<!-- 8 -->
<g id="node4" class="node">
<title>8</title>
<ellipse fill="none" stroke="#000000" cx="27" cy="-522" rx="27" ry="18"/>
<text text-anchor="middle" x="27" y="-518.3" font-family="Arial" font-size="14.00" fill="#000000">8</text>
</g>
<!-- 10&#45;&gt;8 -->
<g id="edge3" class="edge">
<title>10&#45;&gt;8</title>
<path fill="none" stroke="#000000" d="M83.7307,-578.7307C73.803,-568.803 60.6847,-555.6847 49.5637,-544.5637"/>
<polygon fill="#000000" stroke="#000000" points="51.7933,-541.8436 42.2473,-537.2473 46.8436,-546.7933 51.7933,-541.8436"/>
</g>
<!-- 11 -->
<g id="node6" class="node">
<title>11</title>
<ellipse fill="none" stroke="#000000" cx="99" cy="-522" rx="27" ry="18"/>
<text text-anchor="middle" x="99" y="-518.3" font-family="Arial" font-size="14.00" fill="#000000">11</text>
</g>
<!-- 10&#45;&gt;11 -->
<g id="edge5" class="edge">
<title>10&#45;&gt;11</title>
<path fill="none" stroke="#000000" d="M99,-575.8314C99,-568.131 99,-558.9743 99,-550.4166"/>
<polygon fill="#000000" stroke="#000000" points="102.5001,-550.4132 99,-540.4133 95.5001,-550.4133 102.5001,-550.4132"/>
</g>
<!-- 9 -->
<g id="node5" class="node">
<title>9</title>
<ellipse fill="none" stroke="#000000" cx="27" cy="-450" rx="27" ry="18"/>
<text text-anchor="middle" x="27" y="-446.3" font-family="Arial" font-size="14.00" fill="#000000">9</text>
</g>
<!-- 8&#45;&gt;9 -->
<g id="edge4" class="edge">
<title>8&#45;&gt;9</title>
<path fill="none" stroke="#000000" d="M27,-503.8314C27,-496.131 27,-486.9743 27,-478.4166"/>
<polygon fill="#000000" stroke="#000000" points="30.5001,-478.4132 27,-468.4133 23.5001,-478.4133 30.5001,-478.4132"/>
</g>
<!-- 13 -->
<g id="node8" class="node">
<title>13</title>
<ellipse fill="none" stroke="#000000" cx="171" cy="-522" rx="27" ry="18"/>
<text text-anchor="middle" x="171" y="-518.3" font-family="Arial" font-size="14.00" fill="#000000">13</text>
</g>
<!-- 14&#45;&gt;13 -->
<g id="edge7" class="edge">
<title>14&#45;&gt;13</title>
<path fill="none" stroke="#000000" d="M198.2854,-576.5708C194.0403,-568.0807 188.8464,-557.6929 184.1337,-548.2674"/>
<polygon fill="#000000" stroke="#000000" points="187.237,-546.6477 179.6343,-539.2687 180.976,-549.7782 187.237,-546.6477"/>
</g>
<!-- 15 -->
<g id="node9" class="node">
<title>15</title>
<ellipse fill="none" stroke="#000000" cx="243" cy="-522" rx="27" ry="18"/>
<text text-anchor="middle" x="243" y="-518.3" font-family="Arial" font-size="14.00" fill="#000000">15</text>
</g>
<!-- 14&#45;&gt;15 -->
<g id="edge8" class="edge">
<title>14&#45;&gt;15</title>
<path fill="none" stroke="#000000" d="M215.7146,-576.5708C219.9597,-568.0807 225.1536,-557.6929 229.8663,-548.2674"/>
<polygon fill="#000000" stroke="#000000" points="233.024,-549.7782 234.3657,-539.2687 226.763,-546.6477 233.024,-549.7782"/>
</g>
<!-- 17 -->
<g id="node11" class="node">
<title>17</title>
<ellipse fill="none" stroke="#000000" cx="315" cy="-594" rx="27" ry="18"/>
<text text-anchor="middle" x="315" y="-590.3" font-family="Arial" font-size="14.00" fill="#000000">17</text>
</g>
<!-- 19&#45;&gt;17 -->
<g id="edge10" class="edge">
<title>19&#45;&gt;17</title>
<path fill="none" stroke="#000000" d="M315,-647.8314C315,-640.131 315,-630.9743 315,-622.4166"/>
<polygon fill="#000000" stroke="#000000" points="318.5001,-622.4132 315,-612.4133 311.5001,-622.4133 318.5001,-622.4132"/>
</g>
<!-- 22 -->
<g id="node13" class="node">
<title>22</title>
<ellipse fill="none" stroke="#000000" cx="387" cy="-594" rx="27" ry="18"/>
<text text-anchor="middle" x="387" y="-590.3" font-family="Arial" font-size="14.00" fill="#000000">22</text>
</g>
<!-- 19&#45;&gt;22 -->
<g id="edge12" class="edge">
<title>19&#45;&gt;22</title>
<path fill="none" stroke="#000000" d="M330.2693,-650.7307C340.197,-640.803 353.3153,-627.6847 364.4363,-616.5637"/>
<polygon fill="#000000" stroke="#000000" points="367.1564,-618.7933 371.7527,-609.2473 362.2067,-613.8436 367.1564,-618.7933"/>
</g>
<!-- 18 -->
<g id="node12" class="node">
<title>18</title>
<ellipse fill="none" stroke="#000000" cx="315" cy="-522" rx="27" ry="18"/>
<text text-anchor="middle" x="315" y="-518.3" font-family="Arial" font-size="14.00" fill="#000000">18</text>
</g>
<!-- 17&#45;&gt;18 -->
<g id="edge11" class="edge">
<title>17&#45;&gt;18</title>
<path fill="none" stroke="#000000" d="M315,-575.8314C315,-568.131 315,-558.9743 315,-550.4166"/>
<polygon fill="#000000" stroke="#000000" points="318.5001,-550.4132 315,-540.4133 311.5001,-550.4133 318.5001,-550.4132"/>
</g>
<!-- 20 -->
<g id="node14" class="node">
<title>20</title>
<ellipse fill="none" stroke="#000000" cx="387" cy="-522" rx="27" ry="18"/>
<text text-anchor="middle" x="387" y="-518.3" font-family="Arial" font-size="14.00" fill="#000000">20</text>
</g>
<!-- 22&#45;&gt;20 -->
<g id="edge13" class="edge">
<title>22&#45;&gt;20</title>
<path fill="none" stroke="#000000" d="M387,-575.8314C387,-568.131 387,-558.9743 387,-550.4166"/>
<polygon fill="#000000" stroke="#000000" points="390.5001,-550.4132 387,-540.4133 383.5001,-550.4133 390.5001,-550.4132"/>
</g>
<!-- 24 -->
<g id="node16" class="node">
<title>24</title>
<ellipse fill="none" stroke="#000000" cx="459" cy="-522" rx="27" ry="18"/>
<text text-anchor="middle" x="459" y="-518.3" font-family="Arial" font-size="14.00" fill="#000000">24</text>
</g>
<!-- 22&#45;&gt;24 -->
<g id="edge15" class="edge">
<title>22&#45;&gt;24</title>
<path fill="none" stroke="#000000" d="M402.2693,-578.7307C412.197,-568.803 425.3153,-555.6847 436.4363,-544.5637"/>
<polygon fill="#000000" stroke="#000000" points="439.1564,-546.7933 443.7527,-537.2473 434.2067,-541.8436 439.1564,-546.7933"/>
</g>
<!-- 21 -->
<g id="node15" class="node">
<title>21</title>
<ellipse fill="none" stroke="#000000" cx="387" cy="-450" rx="27" ry="18"/>
<text text-anchor="middle" x="387" y="-446.3" font-family="Arial" font-size="14.00" fill="#000000">21</text>
</g>
<!-- 20&#45;&gt;21 -->
<g id="edge14" class="edge">
<title>20&#45;&gt;21</title>
<path fill="none" stroke="#000000" d="M387,-503.8314C387,-496.131 387,-486.9743 387,-478.4166"/>
<polygon fill="#000000" stroke="#000000" points="390.5001,-478.4132 387,-468.4133 383.5001,-478.4133 390.5001,-478.4132"/>
</g>
<!-- 23 -->
<g id="node17" class="node">
<title>23</title>
<ellipse fill="none" stroke="#000000" cx="459" cy="-450" rx="27" ry="18"/>
<text text-anchor="middle" x="459" y="-446.3" font-family="Arial" font-size="14.00" fill="#000000">23</text>
</g>
<!-- 24&#45;&gt;23 -->
<g id="edge16" class="edge">
<title>24&#45;&gt;23</title>
<path fill="none" stroke="#000000" d="M459,-503.8314C459,-496.131 459,-486.9743 459,-478.4166"/>
<polygon fill="#000000" stroke="#000000" points="462.5001,-478.4132 459,-468.4133 455.5001,-478.4133 462.5001,-478.4132"/>
</g>
<!-- 25 -->
<g id="node18" class="node">
<title>25</title>
<ellipse fill="none" stroke="#000000" cx="531" cy="-450" rx="27" ry="18"/>
<text text-anchor="middle" x="531" y="-446.3" font-family="Arial" font-size="14.00" fill="#000000">25</text>
</g>
<!-- 24&#45;&gt;25 -->
<g id="edge17" class="edge">
<title>24&#45;&gt;25</title>
<path fill="none" stroke="#000000" d="M474.2693,-506.7307C484.197,-496.803 497.3153,-483.6847 508.4363,-472.5637"/>
<polygon fill="#000000" stroke="#000000" points="511.1564,-474.7933 515.7527,-465.2473 506.2067,-469.8436 511.1564,-474.7933"/>
</g>
<!-- 26 -->
<g id="node19" class="node">
<title>26</title>
<ellipse fill="none" stroke="#000000" cx="531" cy="-378" rx="27" ry="18"/>
<text text-anchor="middle" x="531" y="-374.3" font-family="Arial" font-size="14.00" fill="#000000">26</text>
</g>
<!-- 25&#45;&gt;26 -->
<g id="edge18" class="edge">
<title>25&#45;&gt;26</title>
<path fill="none" stroke="#000000" d="M531,-431.8314C531,-424.131 531,-414.9743 531,-406.4166"/>
<polygon fill="#000000" stroke="#000000" points="534.5001,-406.4132 531,-396.4133 527.5001,-406.4133 534.5001,-406.4132"/>
</g>
<!-- 27 -->
<g id="node20" class="node">
<title>27</title>
<ellipse fill="none" stroke="#000000" cx="531" cy="-306" rx="27" ry="18"/>
<text text-anchor="middle" x="531" y="-302.3" font-family="Arial" font-size="14.00" fill="#000000">27</text>
</g>
<!-- 26&#45;&gt;27 -->
<g id="edge19" class="edge">
<title>26&#45;&gt;27</title>
<path fill="none" stroke="#000000" d="M531,-359.8314C531,-352.131 531,-342.9743 531,-334.4166"/>
<polygon fill="#000000" stroke="#000000" points="534.5001,-334.4132 531,-324.4133 527.5001,-334.4133 534.5001,-334.4132"/>
</g>
<!-- 29 -->
<g id="node21" class="node">
<title>29</title>
<ellipse fill="none" stroke="#000000" cx="531" cy="-234" rx="27" ry="18"/>
<text text-anchor="middle" x="531" y="-230.3" font-family="Arial" font-size="14.00" fill="#000000">29</text>
</g>
<!-- 27&#45;&gt;29 -->
<g id="edge20" class="edge">
<title>27&#45;&gt;29</title>
<path fill="none" stroke="#000000" d="M531,-287.8314C531,-280.131 531,-270.9743 531,-262.4166"/>
<polygon fill="#000000" stroke="#000000" points="534.5001,-262.4132 531,-252.4133 527.5001,-262.4133 534.5001,-262.4132"/>
</g>
<!-- 28 -->
<g id="node22" class="node">
<title>28</title>
<ellipse fill="none" stroke="#000000" cx="495" cy="-162" rx="27" ry="18"/>
<text text-anchor="middle" x="495" y="-158.3" font-family="Arial" font-size="14.00" fill="#000000">28</text>
</g>
<!-- 29&#45;&gt;28 -->
<g id="edge21" class="edge">
<title>29&#45;&gt;28</title>
<path fill="none" stroke="#000000" d="M522.2854,-216.5708C518.0403,-208.0807 512.8464,-197.6929 508.1337,-188.2674"/>
<polygon fill="#000000" stroke="#000000" points="511.237,-186.6477 503.6343,-179.2687 504.976,-189.7782 511.237,-186.6477"/>
</g>
<!-- 32 -->
<g id="node23" class="node">
<title>32</title>
<ellipse fill="none" stroke="#000000" cx="567" cy="-162" rx="27" ry="18"/>
<text text-anchor="middle" x="567" y="-158.3" font-family="Arial" font-size="14.00" fill="#000000">32</text>
</g>
<!-- 29&#45;&gt;32 -->
<g id="edge22" class="edge">
<title>29&#45;&gt;32</title>
<path fill="none" stroke="#000000" d="M539.7146,-216.5708C543.9597,-208.0807 549.1536,-197.6929 553.8663,-188.2674"/>
<polygon fill="#000000" stroke="#000000" points="557.024,-189.7782 558.3657,-179.2687 550.763,-186.6477 557.024,-189.7782"/>
</g>
<!-- 30 -->
<g id="node24" class="node">
<title>30</title>
<ellipse fill="none" stroke="#000000" cx="567" cy="-90" rx="27" ry="18"/>
<text text-anchor="middle" x="567" y="-86.3" font-family="Arial" font-size="14.00" fill="#000000">30</text>
</g>
<!-- 32&#45;&gt;30 -->
<g id="edge23" class="edge">
<title>32&#45;&gt;30</title>
<path fill="none" stroke="#000000" d="M567,-143.8314C567,-136.131 567,-126.9743 567,-118.4166"/>
<polygon fill="#000000" stroke="#000000" points="570.5001,-118.4132 567,-108.4133 563.5001,-118.4133 570.5001,-118.4132"/>
</g>
<!-- 31 -->
<g id="node25" class="node">
<title>31</title>
<ellipse fill="none" stroke="#000000" cx="567" cy="-18" rx="27" ry="18"/>
<text text-anchor="middle" x="567" y="-14.3" font-family="Arial" font-size="14.00" fill="#000000">31</text>
</g>
<!-- 30&#45;&gt;31 -->
<g id="edge24" class="edge">
<title>30&#45;&gt;31</title>
<path fill="none" stroke="#000000" d="M567,-71.8314C567,-64.131 567,-54.9743 567,-46.4166"/>
<polygon fill="#000000" stroke="#000000" points="570.5001,-46.4132 567,-36.4133 563.5001,-46.4133 570.5001,-46.4132"/>
</g>
</g>
</svg>
