<?xml version="1.0" encoding="utf-8" standalone="no"?>
<!DOCTYPE svg PUBLIC "-//W3C//DTD SVG 1.1//EN"
  "http://www.w3.org/Graphics/SVG/1.1/DTD/svg11.dtd">
<!-- Created with matplotlib (http://matplotlib.org/) -->
<svg height="325pt" version="1.1" viewBox="0 0 414 325" width="414pt" xmlns="http://www.w3.org/2000/svg" xmlns:xlink="http://www.w3.org/1999/xlink">
 <defs>
  <style type="text/css">
*{stroke-linecap:butt;stroke-linejoin:round;}
  </style>
 </defs>
 <g id="figure_1">
  <g id="patch_1">
   <path d="M 0 325.986375 
L 414.785625 325.986375 
L 414.785625 0 
L 0 0 
z
" style="fill:#ffffff;"/>
  </g>
  <g id="axes_1">
   <g id="patch_2">
    <path d="M 46.965625 288.430125 
L 404.085625 288.430125 
L 404.085625 22.318125 
L 46.965625 22.318125 
z
" style="fill:#ffffff;"/>
   </g>
   <g id="PathCollection_1">
    <defs>
     <path d="M 0 3 
C 0.795609 3 1.55874 2.683901 2.12132 2.12132 
C 2.683901 1.55874 3 0.795609 3 0 
C 3 -0.795609 2.683901 -1.55874 2.12132 -2.12132 
C 1.55874 -2.683901 0.795609 -3 0 -3 
C -0.795609 -3 -1.55874 -2.683901 -2.12132 -2.12132 
C -2.683901 -1.55874 -3 -0.795609 -3 0 
C -3 0.795609 -2.683901 1.55874 -2.12132 2.12132 
C -1.55874 2.683901 -0.795609 3 0 3 
z
" id="C0_0_d4bdb445f4"/>
    </defs>
    <g clip-path="url(#p8be47537e5)">
     <use style="fill:#ff0000;fill-opacity:0.5;" x="386.946836" xlink:href="#C0_0_d4bdb445f4" y="48.999399"/>
    </g>
    <g clip-path="url(#p8be47537e5)">
     <use style="fill:#ff0000;fill-opacity:0.5;" x="339.393946" xlink:href="#C0_0_d4bdb445f4" y="230.394806"/>
    </g>
    <g clip-path="url(#p8be47537e5)">
     <use style="fill:#ff0000;fill-opacity:0.5;" x="253.668826" xlink:href="#C0_0_d4bdb445f4" y="239.895148"/>
    </g>
    <g clip-path="url(#p8be47537e5)">
     <use style="fill:#ff0000;fill-opacity:0.5;" x="162.507307" xlink:href="#C0_0_d4bdb445f4" y="240.6643"/>
    </g>
    <g clip-path="url(#p8be47537e5)">
     <use style="fill:#ff0000;fill-opacity:0.5;" x="70.814029" xlink:href="#C0_0_d4bdb445f4" y="240.753944"/>
    </g>
   </g>
   <g id="PathCollection_2">
    <defs>
     <path d="M 0 3 
C 0.795609 3 1.55874 2.683901 2.12132 2.12132 
C 2.683901 1.55874 3 0.795609 3 0 
C 3 -0.795609 2.683901 -1.55874 2.12132 -2.12132 
C 1.55874 -2.683901 0.795609 -3 0 -3 
C -0.795609 -3 -1.55874 -2.683901 -2.12132 -2.12132 
C -2.683901 -1.55874 -3 -0.795609 -3 0 
C -3 0.795609 -2.683901 1.55874 -2.12132 2.12132 
C -1.55874 2.683901 -0.795609 3 0 3 
z
" id="C1_0_1e60b6e70b"/>
    </defs>
    <g clip-path="url(#p8be47537e5)">
     <use style="fill:#0000ff;fill-opacity:0.8;" x="387.585178" xlink:href="#C1_0_1e60b6e70b" y="36.126406"/>
    </g>
    <g clip-path="url(#p8be47537e5)">
     <use style="fill:#0000ff;fill-opacity:0.8;" x="344.345" xlink:href="#C1_0_1e60b6e70b" y="245.595243"/>
    </g>
    <g clip-path="url(#p8be47537e5)">
     <use style="fill:#0000ff;fill-opacity:0.8;" x="259.578114" xlink:href="#C1_0_1e60b6e70b" y="258.046715"/>
    </g>
    <g clip-path="url(#p8be47537e5)">
     <use style="fill:#0000ff;fill-opacity:0.8;" x="168.515409" xlink:href="#C1_0_1e60b6e70b" y="259.409448"/>
    </g>
    <g clip-path="url(#p8be47537e5)">
     <use style="fill:#0000ff;fill-opacity:0.8;" x="76.832657" xlink:href="#C1_0_1e60b6e70b" y="259.552372"/>
    </g>
   </g>
   <g id="PathCollection_3">
    <defs>
     <path d="M 0 3 
C 0.795609 3 1.55874 2.683901 2.12132 2.12132 
C 2.683901 1.55874 3 0.795609 3 0 
C 3 -0.795609 2.683901 -1.55874 2.12132 -2.12132 
C 1.55874 -2.683901 0.795609 -3 0 -3 
C -0.795609 -3 -1.55874 -2.683901 -2.12132 -2.12132 
C -2.683901 -1.55874 -3 -0.795609 -3 0 
C -3 0.795609 -2.683901 1.55874 -2.12132 2.12132 
C -1.55874 2.683901 -0.795609 3 0 3 
z
" id="C2_0_49b42225fe"/>
    </defs>
    <g clip-path="url(#p8be47537e5)">
     <use style="fill:#a0522d;fill-opacity:0.5;" x="386.946836" xlink:href="#C2_0_49b42225fe" y="248.480898"/>
    </g>
    <g clip-path="url(#p8be47537e5)">
     <use style="fill:#a0522d;fill-opacity:0.5;" x="339.393946" xlink:href="#C2_0_49b42225fe" y="248.480898"/>
    </g>
    <g clip-path="url(#p8be47537e5)">
     <use style="fill:#a0522d;fill-opacity:0.5;" x="253.668826" xlink:href="#C2_0_49b42225fe" y="248.480898"/>
    </g>
    <g clip-path="url(#p8be47537e5)">
     <use style="fill:#a0522d;fill-opacity:0.5;" x="162.507307" xlink:href="#C2_0_49b42225fe" y="248.480898"/>
    </g>
    <g clip-path="url(#p8be47537e5)">
     <use style="fill:#a0522d;fill-opacity:0.5;" x="70.814029" xlink:href="#C2_0_49b42225fe" y="248.480898"/>
    </g>
   </g>
   <g id="PathCollection_4">
    <defs>
     <path d="M 0 3 
C 0.795609 3 1.55874 2.683901 2.12132 2.12132 
C 2.683901 1.55874 3 0.795609 3 0 
C 3 -0.795609 2.683901 -1.55874 2.12132 -2.12132 
C 1.55874 -2.683901 0.795609 -3 0 -3 
C -0.795609 -3 -1.55874 -2.683901 -2.12132 -2.12132 
C -2.683901 -1.55874 -3 -0.795609 -3 0 
C -3 0.795609 -2.683901 1.55874 -2.12132 2.12132 
C -1.55874 2.683901 -0.795609 3 0 3 
z
" id="C3_0_6d861845b5"/>
    </defs>
    <g clip-path="url(#p8be47537e5)">
     <use style="fill:#00ffff;fill-opacity:0.8;" x="387.585178" xlink:href="#C3_0_6d861845b5" y="242.407932"/>
    </g>
    <g clip-path="url(#p8be47537e5)">
     <use style="fill:#00ffff;fill-opacity:0.8;" x="344.345" xlink:href="#C3_0_6d861845b5" y="259.717052"/>
    </g>
    <g clip-path="url(#p8be47537e5)">
     <use style="fill:#00ffff;fill-opacity:0.8;" x="259.578114" xlink:href="#C3_0_6d861845b5" y="264.648046"/>
    </g>
    <g clip-path="url(#p8be47537e5)">
     <use style="fill:#00ffff;fill-opacity:0.8;" x="168.515409" xlink:href="#C3_0_6d861845b5" y="265.188966"/>
    </g>
    <g clip-path="url(#p8be47537e5)">
     <use style="fill:#00ffff;fill-opacity:0.8;" x="76.832657" xlink:href="#C3_0_6d861845b5" y="265.245176"/>
    </g>
   </g>
   <g id="PathCollection_5">
    <defs>
     <path d="M 0 3 
C 0.795609 3 1.55874 2.683901 2.12132 2.12132 
C 2.683901 1.55874 3 0.795609 3 0 
C 3 -0.795609 2.683901 -1.55874 2.12132 -2.12132 
C 1.55874 -2.683901 0.795609 -3 0 -3 
C -0.795609 -3 -1.55874 -2.683901 -2.12132 -2.12132 
C -2.683901 -1.55874 -3 -0.795609 -3 0 
C -3 0.795609 -2.683901 1.55874 -2.12132 2.12132 
C -1.55874 2.683901 -0.795609 3 0 3 
z
" id="C4_0_3e7b08683d"/>
    </defs>
    <g clip-path="url(#p8be47537e5)">
     <use style="fill:#dda0dd;fill-opacity:0.5;" x="386.946836" xlink:href="#C4_0_3e7b08683d" y="255.22296"/>
    </g>
    <g clip-path="url(#p8be47537e5)">
     <use style="fill:#dda0dd;fill-opacity:0.5;" x="339.393946" xlink:href="#C4_0_3e7b08683d" y="273.324472"/>
    </g>
    <g clip-path="url(#p8be47537e5)">
     <use style="fill:#dda0dd;fill-opacity:0.5;" x="253.668826" xlink:href="#C4_0_3e7b08683d" y="273.324602"/>
    </g>
    <g clip-path="url(#p8be47537e5)">
     <use style="fill:#dda0dd;fill-opacity:0.5;" x="162.507307" xlink:href="#C4_0_3e7b08683d" y="273.324602"/>
    </g>
    <g clip-path="url(#p8be47537e5)">
     <use style="fill:#dda0dd;fill-opacity:0.5;" x="70.814029" xlink:href="#C4_0_3e7b08683d" y="273.324602"/>
    </g>
   </g>
   <g id="PathCollection_6">
    <defs>
     <path d="M 0 3 
C 0.795609 3 1.55874 2.683901 2.12132 2.12132 
C 2.683901 1.55874 3 0.795609 3 0 
C 3 -0.795609 2.683901 -1.55874 2.12132 -2.12132 
C 1.55874 -2.683901 0.795609 -3 0 -3 
C -0.795609 -3 -1.55874 -2.683901 -2.12132 -2.12132 
C -2.683901 -1.55874 -3 -0.795609 -3 0 
C -3 0.795609 -2.683901 1.55874 -2.12132 2.12132 
C -1.55874 2.683901 -0.795609 3 0 3 
z
" id="C5_0_db7f4b9910"/>
    </defs>
    <g clip-path="url(#p8be47537e5)">
     <use style="fill:#008080;fill-opacity:0.8;" x="387.585178" xlink:href="#C5_0_db7f4b9910" y="253.361748"/>
    </g>
    <g clip-path="url(#p8be47537e5)">
     <use style="fill:#008080;fill-opacity:0.8;" x="344.345" xlink:href="#C5_0_db7f4b9910" y="273.27056"/>
    </g>
    <g clip-path="url(#p8be47537e5)">
     <use style="fill:#008080;fill-opacity:0.8;" x="259.578114" xlink:href="#C5_0_db7f4b9910" y="273.324589"/>
    </g>
    <g clip-path="url(#p8be47537e5)">
     <use style="fill:#008080;fill-opacity:0.8;" x="168.515409" xlink:href="#C5_0_db7f4b9910" y="273.324602"/>
    </g>
    <g clip-path="url(#p8be47537e5)">
     <use style="fill:#008080;fill-opacity:0.8;" x="76.832657" xlink:href="#C5_0_db7f4b9910" y="273.324602"/>
    </g>
   </g>
   <g id="PathCollection_7">
    <defs>
     <path d="M 0 3 
C 0.795609 3 1.55874 2.683901 2.12132 2.12132 
C 2.683901 1.55874 3 0.795609 3 0 
C 3 -0.795609 2.683901 -1.55874 2.12132 -2.12132 
C 1.55874 -2.683901 0.795609 -3 0 -3 
C -0.795609 -3 -1.55874 -2.683901 -2.12132 -2.12132 
C -2.683901 -1.55874 -3 -0.795609 -3 0 
C -3 0.795609 -2.683901 1.55874 -2.12132 2.12132 
C -1.55874 2.683901 -0.795609 3 0 3 
z
" id="C6_0_d28faf219d"/>
    </defs>
    <g clip-path="url(#p8be47537e5)">
     <use style="fill:#dc143c;fill-opacity:0.5;" x="386.946836" xlink:href="#C6_0_d28faf219d" y="274.181784"/>
    </g>
    <g clip-path="url(#p8be47537e5)">
     <use style="fill:#dc143c;fill-opacity:0.5;" x="339.393946" xlink:href="#C6_0_d28faf219d" y="274.181784"/>
    </g>
    <g clip-path="url(#p8be47537e5)">
     <use style="fill:#dc143c;fill-opacity:0.5;" x="253.668826" xlink:href="#C6_0_d28faf219d" y="274.181784"/>
    </g>
    <g clip-path="url(#p8be47537e5)">
     <use style="fill:#dc143c;fill-opacity:0.5;" x="162.507307" xlink:href="#C6_0_d28faf219d" y="274.181784"/>
    </g>
    <g clip-path="url(#p8be47537e5)">
     <use style="fill:#dc143c;fill-opacity:0.5;" x="70.814029" xlink:href="#C6_0_d28faf219d" y="274.181784"/>
    </g>
   </g>
   <g id="PathCollection_8">
    <defs>
     <path d="M 0 3 
C 0.795609 3 1.55874 2.683901 2.12132 2.12132 
C 2.683901 1.55874 3 0.795609 3 0 
C 3 -0.795609 2.683901 -1.55874 2.12132 -2.12132 
C 1.55874 -2.683901 0.795609 -3 0 -3 
C -0.795609 -3 -1.55874 -2.683901 -2.12132 -2.12132 
C -2.683901 -1.55874 -3 -0.795609 -3 0 
C -3 0.795609 -2.683901 1.55874 -2.12132 2.12132 
C -1.55874 2.683901 -0.795609 3 0 3 
z
" id="C7_0_e43a7f3a70"/>
    </defs>
    <g clip-path="url(#p8be47537e5)">
     <use style="fill:#87ceeb;fill-opacity:0.8;" x="387.585178" xlink:href="#C7_0_e43a7f3a70" y="272.894036"/>
    </g>
    <g clip-path="url(#p8be47537e5)">
     <use style="fill:#87ceeb;fill-opacity:0.8;" x="344.345" xlink:href="#C7_0_e43a7f3a70" y="273.300303"/>
    </g>
    <g clip-path="url(#p8be47537e5)">
     <use style="fill:#87ceeb;fill-opacity:0.8;" x="259.578114" xlink:href="#C7_0_e43a7f3a70" y="273.89453"/>
    </g>
    <g clip-path="url(#p8be47537e5)">
     <use style="fill:#87ceeb;fill-opacity:0.8;" x="168.515409" xlink:href="#C7_0_e43a7f3a70" y="274.013001"/>
    </g>
    <g clip-path="url(#p8be47537e5)">
     <use style="fill:#87ceeb;fill-opacity:0.8;" x="76.832657" xlink:href="#C7_0_e43a7f3a70" y="274.025466"/>
    </g>
   </g>
   <g id="matplotlib.axis_1">
    <g id="xtick_1">
     <g id="line2d_1">
      <path clip-path="url(#p8be47537e5)" d="M 112.913041 288.430125 
L 112.913041 22.318125 
" style="fill:none;stroke:#b0b0b0;stroke-linecap:square;stroke-width:0.8;"/>
     </g>
     <g id="line2d_2">
      <defs>
       <path d="M 0 0 
L 0 3.5 
" id="mf8ce92a431" style="stroke:#000000;stroke-width:0.8;"/>
      </defs>
      <g>
       <use style="stroke:#000000;stroke-width:0.8;" x="112.913041" xlink:href="#mf8ce92a431" y="288.430125"/>
      </g>
     </g>
     <g id="text_1">
      <!-- $\mathdefault{10^{-1}}$ -->
      <defs>
       <path d="M 12.40625 8.296875 
L 28.515625 8.296875 
L 28.515625 63.921875 
L 10.984375 60.40625 
L 10.984375 69.390625 
L 28.421875 72.90625 
L 38.28125 72.90625 
L 38.28125 8.296875 
L 54.390625 8.296875 
L 54.390625 0 
L 12.40625 0 
z
" id="DejaVuSans-31"/>
       <path d="M 31.78125 66.40625 
Q 24.171875 66.40625 20.328125 58.90625 
Q 16.5 51.421875 16.5 36.375 
Q 16.5 21.390625 20.328125 13.890625 
Q 24.171875 6.390625 31.78125 6.390625 
Q 39.453125 6.390625 43.28125 13.890625 
Q 47.125 21.390625 47.125 36.375 
Q 47.125 51.421875 43.28125 58.90625 
Q 39.453125 66.40625 31.78125 66.40625 
z
M 31.78125 74.21875 
Q 44.046875 74.21875 50.515625 64.515625 
Q 56.984375 54.828125 56.984375 36.375 
Q 56.984375 17.96875 50.515625 8.265625 
Q 44.046875 -1.421875 31.78125 -1.421875 
Q 19.53125 -1.421875 13.0625 8.265625 
Q 6.59375 17.96875 6.59375 36.375 
Q 6.59375 54.828125 13.0625 64.515625 
Q 19.53125 74.21875 31.78125 74.21875 
z
" id="DejaVuSans-30"/>
       <path d="M 10.59375 35.5 
L 73.1875 35.5 
L 73.1875 27.203125 
L 10.59375 27.203125 
z
" id="DejaVuSans-2212"/>
      </defs>
      <g transform="translate(101.163041 303.028562)scale(0.1 -0.1)">
       <use transform="translate(0 0.684375)" xlink:href="#DejaVuSans-31"/>
       <use transform="translate(63.623047 0.684375)" xlink:href="#DejaVuSans-30"/>
       <use transform="translate(128.203125 38.965625)scale(0.7)" xlink:href="#DejaVuSans-2212"/>
       <use transform="translate(186.855469 38.965625)scale(0.7)" xlink:href="#DejaVuSans-31"/>
      </g>
     </g>
    </g>
    <g id="xtick_2">
     <g id="line2d_3">
      <path clip-path="url(#p8be47537e5)" d="M 204.674065 288.430125 
L 204.674065 22.318125 
" style="fill:none;stroke:#b0b0b0;stroke-linecap:square;stroke-width:0.8;"/>
     </g>
     <g id="line2d_4">
      <g>
       <use style="stroke:#000000;stroke-width:0.8;" x="204.674065" xlink:href="#mf8ce92a431" y="288.430125"/>
      </g>
     </g>
     <g id="text_2">
      <!-- $\mathdefault{10^{0}}$ -->
      <g transform="translate(195.874065 303.028562)scale(0.1 -0.1)">
       <use transform="translate(0 0.765625)" xlink:href="#DejaVuSans-31"/>
       <use transform="translate(63.623047 0.765625)" xlink:href="#DejaVuSans-30"/>
       <use transform="translate(128.203125 39.046875)scale(0.7)" xlink:href="#DejaVuSans-30"/>
      </g>
     </g>
    </g>
    <g id="xtick_3">
     <g id="line2d_5">
      <path clip-path="url(#p8be47537e5)" d="M 296.435089 288.430125 
L 296.435089 22.318125 
" style="fill:none;stroke:#b0b0b0;stroke-linecap:square;stroke-width:0.8;"/>
     </g>
     <g id="line2d_6">
      <g>
       <use style="stroke:#000000;stroke-width:0.8;" x="296.435089" xlink:href="#mf8ce92a431" y="288.430125"/>
      </g>
     </g>
     <g id="text_3">
      <!-- $\mathdefault{10^{1}}$ -->
      <g transform="translate(287.635089 303.028562)scale(0.1 -0.1)">
       <use transform="translate(0 0.684375)" xlink:href="#DejaVuSans-31"/>
       <use transform="translate(63.623047 0.684375)" xlink:href="#DejaVuSans-30"/>
       <use transform="translate(128.203125 38.965625)scale(0.7)" xlink:href="#DejaVuSans-31"/>
      </g>
     </g>
    </g>
    <g id="xtick_4">
     <g id="line2d_7">
      <path clip-path="url(#p8be47537e5)" d="M 388.196113 288.430125 
L 388.196113 22.318125 
" style="fill:none;stroke:#b0b0b0;stroke-linecap:square;stroke-width:0.8;"/>
     </g>
     <g id="line2d_8">
      <g>
       <use style="stroke:#000000;stroke-width:0.8;" x="388.196113" xlink:href="#mf8ce92a431" y="288.430125"/>
      </g>
     </g>
     <g id="text_4">
      <!-- $\mathdefault{10^{2}}$ -->
      <defs>
       <path d="M 19.1875 8.296875 
L 53.609375 8.296875 
L 53.609375 0 
L 7.328125 0 
L 7.328125 8.296875 
Q 12.9375 14.109375 22.625 23.890625 
Q 32.328125 33.6875 34.8125 36.53125 
Q 39.546875 41.84375 41.421875 45.53125 
Q 43.3125 49.21875 43.3125 52.78125 
Q 43.3125 58.59375 39.234375 62.25 
Q 35.15625 65.921875 28.609375 65.921875 
Q 23.96875 65.921875 18.8125 64.3125 
Q 13.671875 62.703125 7.8125 59.421875 
L 7.8125 69.390625 
Q 13.765625 71.78125 18.9375 73 
Q 24.125 74.21875 28.421875 74.21875 
Q 39.75 74.21875 46.484375 68.546875 
Q 53.21875 62.890625 53.21875 53.421875 
Q 53.21875 48.921875 51.53125 44.890625 
Q 49.859375 40.875 45.40625 35.40625 
Q 44.1875 33.984375 37.640625 27.21875 
Q 31.109375 20.453125 19.1875 8.296875 
z
" id="DejaVuSans-32"/>
      </defs>
      <g transform="translate(379.396113 303.028562)scale(0.1 -0.1)">
       <use transform="translate(0 0.765625)" xlink:href="#DejaVuSans-31"/>
       <use transform="translate(63.623047 0.765625)" xlink:href="#DejaVuSans-30"/>
       <use transform="translate(128.203125 39.046875)scale(0.7)" xlink:href="#DejaVuSans-32"/>
      </g>
     </g>
    </g>
    <g id="xtick_5">
     <g id="line2d_9">
      <defs>
       <path d="M 0 0 
L 0 2 
" id="m67327e8d0d" style="stroke:#000000;stroke-width:0.6;"/>
      </defs>
      <g>
       <use style="stroke:#000000;stroke-width:0.6;" x="48.774838" xlink:href="#m67327e8d0d" y="288.430125"/>
      </g>
     </g>
    </g>
    <g id="xtick_6">
     <g id="line2d_10">
      <g>
       <use style="stroke:#000000;stroke-width:0.6;" x="64.933152" xlink:href="#m67327e8d0d" y="288.430125"/>
      </g>
     </g>
    </g>
    <g id="xtick_7">
     <g id="line2d_11">
      <g>
       <use style="stroke:#000000;stroke-width:0.6;" x="76.397659" xlink:href="#m67327e8d0d" y="288.430125"/>
      </g>
     </g>
    </g>
    <g id="xtick_8">
     <g id="line2d_12">
      <g>
       <use style="stroke:#000000;stroke-width:0.6;" x="85.290221" xlink:href="#m67327e8d0d" y="288.430125"/>
      </g>
     </g>
    </g>
    <g id="xtick_9">
     <g id="line2d_13">
      <g>
       <use style="stroke:#000000;stroke-width:0.6;" x="92.555973" xlink:href="#m67327e8d0d" y="288.430125"/>
      </g>
     </g>
    </g>
    <g id="xtick_10">
     <g id="line2d_14">
      <g>
       <use style="stroke:#000000;stroke-width:0.6;" x="98.699079" xlink:href="#m67327e8d0d" y="288.430125"/>
      </g>
     </g>
    </g>
    <g id="xtick_11">
     <g id="line2d_15">
      <g>
       <use style="stroke:#000000;stroke-width:0.6;" x="104.020479" xlink:href="#m67327e8d0d" y="288.430125"/>
      </g>
     </g>
    </g>
    <g id="xtick_12">
     <g id="line2d_16">
      <g>
       <use style="stroke:#000000;stroke-width:0.6;" x="108.714287" xlink:href="#m67327e8d0d" y="288.430125"/>
      </g>
     </g>
    </g>
    <g id="xtick_13">
     <g id="line2d_17">
      <g>
       <use style="stroke:#000000;stroke-width:0.6;" x="140.535862" xlink:href="#m67327e8d0d" y="288.430125"/>
      </g>
     </g>
    </g>
    <g id="xtick_14">
     <g id="line2d_18">
      <g>
       <use style="stroke:#000000;stroke-width:0.6;" x="156.694176" xlink:href="#m67327e8d0d" y="288.430125"/>
      </g>
     </g>
    </g>
    <g id="xtick_15">
     <g id="line2d_19">
      <g>
       <use style="stroke:#000000;stroke-width:0.6;" x="168.158683" xlink:href="#m67327e8d0d" y="288.430125"/>
      </g>
     </g>
    </g>
    <g id="xtick_16">
     <g id="line2d_20">
      <g>
       <use style="stroke:#000000;stroke-width:0.6;" x="177.051245" xlink:href="#m67327e8d0d" y="288.430125"/>
      </g>
     </g>
    </g>
    <g id="xtick_17">
     <g id="line2d_21">
      <g>
       <use style="stroke:#000000;stroke-width:0.6;" x="184.316997" xlink:href="#m67327e8d0d" y="288.430125"/>
      </g>
     </g>
    </g>
    <g id="xtick_18">
     <g id="line2d_22">
      <g>
       <use style="stroke:#000000;stroke-width:0.6;" x="190.460103" xlink:href="#m67327e8d0d" y="288.430125"/>
      </g>
     </g>
    </g>
    <g id="xtick_19">
     <g id="line2d_23">
      <g>
       <use style="stroke:#000000;stroke-width:0.6;" x="195.781503" xlink:href="#m67327e8d0d" y="288.430125"/>
      </g>
     </g>
    </g>
    <g id="xtick_20">
     <g id="line2d_24">
      <g>
       <use style="stroke:#000000;stroke-width:0.6;" x="200.475311" xlink:href="#m67327e8d0d" y="288.430125"/>
      </g>
     </g>
    </g>
    <g id="xtick_21">
     <g id="line2d_25">
      <g>
       <use style="stroke:#000000;stroke-width:0.6;" x="232.296886" xlink:href="#m67327e8d0d" y="288.430125"/>
      </g>
     </g>
    </g>
    <g id="xtick_22">
     <g id="line2d_26">
      <g>
       <use style="stroke:#000000;stroke-width:0.6;" x="248.4552" xlink:href="#m67327e8d0d" y="288.430125"/>
      </g>
     </g>
    </g>
    <g id="xtick_23">
     <g id="line2d_27">
      <g>
       <use style="stroke:#000000;stroke-width:0.6;" x="259.919707" xlink:href="#m67327e8d0d" y="288.430125"/>
      </g>
     </g>
    </g>
    <g id="xtick_24">
     <g id="line2d_28">
      <g>
       <use style="stroke:#000000;stroke-width:0.6;" x="268.812269" xlink:href="#m67327e8d0d" y="288.430125"/>
      </g>
     </g>
    </g>
    <g id="xtick_25">
     <g id="line2d_29">
      <g>
       <use style="stroke:#000000;stroke-width:0.6;" x="276.078021" xlink:href="#m67327e8d0d" y="288.430125"/>
      </g>
     </g>
    </g>
    <g id="xtick_26">
     <g id="line2d_30">
      <g>
       <use style="stroke:#000000;stroke-width:0.6;" x="282.221127" xlink:href="#m67327e8d0d" y="288.430125"/>
      </g>
     </g>
    </g>
    <g id="xtick_27">
     <g id="line2d_31">
      <g>
       <use style="stroke:#000000;stroke-width:0.6;" x="287.542527" xlink:href="#m67327e8d0d" y="288.430125"/>
      </g>
     </g>
    </g>
    <g id="xtick_28">
     <g id="line2d_32">
      <g>
       <use style="stroke:#000000;stroke-width:0.6;" x="292.236335" xlink:href="#m67327e8d0d" y="288.430125"/>
      </g>
     </g>
    </g>
    <g id="xtick_29">
     <g id="line2d_33">
      <g>
       <use style="stroke:#000000;stroke-width:0.6;" x="324.05791" xlink:href="#m67327e8d0d" y="288.430125"/>
      </g>
     </g>
    </g>
    <g id="xtick_30">
     <g id="line2d_34">
      <g>
       <use style="stroke:#000000;stroke-width:0.6;" x="340.216224" xlink:href="#m67327e8d0d" y="288.430125"/>
      </g>
     </g>
    </g>
    <g id="xtick_31">
     <g id="line2d_35">
      <g>
       <use style="stroke:#000000;stroke-width:0.6;" x="351.680731" xlink:href="#m67327e8d0d" y="288.430125"/>
      </g>
     </g>
    </g>
    <g id="xtick_32">
     <g id="line2d_36">
      <g>
       <use style="stroke:#000000;stroke-width:0.6;" x="360.573293" xlink:href="#m67327e8d0d" y="288.430125"/>
      </g>
     </g>
    </g>
    <g id="xtick_33">
     <g id="line2d_37">
      <g>
       <use style="stroke:#000000;stroke-width:0.6;" x="367.839045" xlink:href="#m67327e8d0d" y="288.430125"/>
      </g>
     </g>
    </g>
    <g id="xtick_34">
     <g id="line2d_38">
      <g>
       <use style="stroke:#000000;stroke-width:0.6;" x="373.982151" xlink:href="#m67327e8d0d" y="288.430125"/>
      </g>
     </g>
    </g>
    <g id="xtick_35">
     <g id="line2d_39">
      <g>
       <use style="stroke:#000000;stroke-width:0.6;" x="379.303551" xlink:href="#m67327e8d0d" y="288.430125"/>
      </g>
     </g>
    </g>
    <g id="xtick_36">
     <g id="line2d_40">
      <g>
       <use style="stroke:#000000;stroke-width:0.6;" x="383.997359" xlink:href="#m67327e8d0d" y="288.430125"/>
      </g>
     </g>
    </g>
    <g id="text_5">
     <!-- % bitarray full -->
     <defs>
      <path d="M 72.703125 32.078125 
Q 68.453125 32.078125 66.03125 28.46875 
Q 63.625 24.859375 63.625 18.40625 
Q 63.625 12.0625 66.03125 8.421875 
Q 68.453125 4.78125 72.703125 4.78125 
Q 76.859375 4.78125 79.265625 8.421875 
Q 81.6875 12.0625 81.6875 18.40625 
Q 81.6875 24.8125 79.265625 28.4375 
Q 76.859375 32.078125 72.703125 32.078125 
z
M 72.703125 38.28125 
Q 80.421875 38.28125 84.953125 32.90625 
Q 89.5 27.546875 89.5 18.40625 
Q 89.5 9.28125 84.9375 3.921875 
Q 80.375 -1.421875 72.703125 -1.421875 
Q 64.890625 -1.421875 60.34375 3.921875 
Q 55.8125 9.28125 55.8125 18.40625 
Q 55.8125 27.59375 60.375 32.9375 
Q 64.9375 38.28125 72.703125 38.28125 
z
M 22.3125 68.015625 
Q 18.109375 68.015625 15.6875 64.375 
Q 13.28125 60.75 13.28125 54.390625 
Q 13.28125 47.953125 15.671875 44.328125 
Q 18.0625 40.71875 22.3125 40.71875 
Q 26.5625 40.71875 28.96875 44.328125 
Q 31.390625 47.953125 31.390625 54.390625 
Q 31.390625 60.6875 28.953125 64.34375 
Q 26.515625 68.015625 22.3125 68.015625 
z
M 66.40625 74.21875 
L 74.21875 74.21875 
L 28.609375 -1.421875 
L 20.796875 -1.421875 
z
M 22.3125 74.21875 
Q 30.03125 74.21875 34.609375 68.875 
Q 39.203125 63.53125 39.203125 54.390625 
Q 39.203125 45.171875 34.640625 39.84375 
Q 30.078125 34.515625 22.3125 34.515625 
Q 14.546875 34.515625 10.03125 39.859375 
Q 5.515625 45.21875 5.515625 54.390625 
Q 5.515625 63.484375 10.046875 68.84375 
Q 14.59375 74.21875 22.3125 74.21875 
z
" id="DejaVuSans-25"/>
      <path id="DejaVuSans-20"/>
      <path d="M 48.6875 27.296875 
Q 48.6875 37.203125 44.609375 42.84375 
Q 40.53125 48.484375 33.40625 48.484375 
Q 26.265625 48.484375 22.1875 42.84375 
Q 18.109375 37.203125 18.109375 27.296875 
Q 18.109375 17.390625 22.1875 11.75 
Q 26.265625 6.109375 33.40625 6.109375 
Q 40.53125 6.109375 44.609375 11.75 
Q 48.6875 17.390625 48.6875 27.296875 
z
M 18.109375 46.390625 
Q 20.953125 51.265625 25.265625 53.625 
Q 29.59375 56 35.59375 56 
Q 45.5625 56 51.78125 48.09375 
Q 58.015625 40.1875 58.015625 27.296875 
Q 58.015625 14.40625 51.78125 6.484375 
Q 45.5625 -1.421875 35.59375 -1.421875 
Q 29.59375 -1.421875 25.265625 0.953125 
Q 20.953125 3.328125 18.109375 8.203125 
L 18.109375 0 
L 9.078125 0 
L 9.078125 75.984375 
L 18.109375 75.984375 
z
" id="DejaVuSans-62"/>
      <path d="M 9.421875 54.6875 
L 18.40625 54.6875 
L 18.40625 0 
L 9.421875 0 
z
M 9.421875 75.984375 
L 18.40625 75.984375 
L 18.40625 64.59375 
L 9.421875 64.59375 
z
" id="DejaVuSans-69"/>
      <path d="M 18.3125 70.21875 
L 18.3125 54.6875 
L 36.8125 54.6875 
L 36.8125 47.703125 
L 18.3125 47.703125 
L 18.3125 18.015625 
Q 18.3125 11.328125 20.140625 9.421875 
Q 21.96875 7.515625 27.59375 7.515625 
L 36.8125 7.515625 
L 36.8125 0 
L 27.59375 0 
Q 17.1875 0 13.234375 3.875 
Q 9.28125 7.765625 9.28125 18.015625 
L 9.28125 47.703125 
L 2.6875 47.703125 
L 2.6875 54.6875 
L 9.28125 54.6875 
L 9.28125 70.21875 
z
" id="DejaVuSans-74"/>
      <path d="M 34.28125 27.484375 
Q 23.390625 27.484375 19.1875 25 
Q 14.984375 22.515625 14.984375 16.5 
Q 14.984375 11.71875 18.140625 8.90625 
Q 21.296875 6.109375 26.703125 6.109375 
Q 34.1875 6.109375 38.703125 11.40625 
Q 43.21875 16.703125 43.21875 25.484375 
L 43.21875 27.484375 
z
M 52.203125 31.203125 
L 52.203125 0 
L 43.21875 0 
L 43.21875 8.296875 
Q 40.140625 3.328125 35.546875 0.953125 
Q 30.953125 -1.421875 24.3125 -1.421875 
Q 15.921875 -1.421875 10.953125 3.296875 
Q 6 8.015625 6 15.921875 
Q 6 25.140625 12.171875 29.828125 
Q 18.359375 34.515625 30.609375 34.515625 
L 43.21875 34.515625 
L 43.21875 35.40625 
Q 43.21875 41.609375 39.140625 45 
Q 35.0625 48.390625 27.6875 48.390625 
Q 23 48.390625 18.546875 47.265625 
Q 14.109375 46.140625 10.015625 43.890625 
L 10.015625 52.203125 
Q 14.9375 54.109375 19.578125 55.046875 
Q 24.21875 56 28.609375 56 
Q 40.484375 56 46.34375 49.84375 
Q 52.203125 43.703125 52.203125 31.203125 
z
" id="DejaVuSans-61"/>
      <path d="M 41.109375 46.296875 
Q 39.59375 47.171875 37.8125 47.578125 
Q 36.03125 48 33.890625 48 
Q 26.265625 48 22.1875 43.046875 
Q 18.109375 38.09375 18.109375 28.8125 
L 18.109375 0 
L 9.078125 0 
L 9.078125 54.6875 
L 18.109375 54.6875 
L 18.109375 46.1875 
Q 20.953125 51.171875 25.484375 53.578125 
Q 30.03125 56 36.53125 56 
Q 37.453125 56 38.578125 55.875 
Q 39.703125 55.765625 41.0625 55.515625 
z
" id="DejaVuSans-72"/>
      <path d="M 32.171875 -5.078125 
Q 28.375 -14.84375 24.75 -17.8125 
Q 21.140625 -20.796875 15.09375 -20.796875 
L 7.90625 -20.796875 
L 7.90625 -13.28125 
L 13.1875 -13.28125 
Q 16.890625 -13.28125 18.9375 -11.515625 
Q 21 -9.765625 23.484375 -3.21875 
L 25.09375 0.875 
L 2.984375 54.6875 
L 12.5 54.6875 
L 29.59375 11.921875 
L 46.6875 54.6875 
L 56.203125 54.6875 
z
" id="DejaVuSans-79"/>
      <path d="M 37.109375 75.984375 
L 37.109375 68.5 
L 28.515625 68.5 
Q 23.6875 68.5 21.796875 66.546875 
Q 19.921875 64.59375 19.921875 59.515625 
L 19.921875 54.6875 
L 34.71875 54.6875 
L 34.71875 47.703125 
L 19.921875 47.703125 
L 19.921875 0 
L 10.890625 0 
L 10.890625 47.703125 
L 2.296875 47.703125 
L 2.296875 54.6875 
L 10.890625 54.6875 
L 10.890625 58.5 
Q 10.890625 67.625 15.140625 71.796875 
Q 19.390625 75.984375 28.609375 75.984375 
z
" id="DejaVuSans-66"/>
      <path d="M 8.5 21.578125 
L 8.5 54.6875 
L 17.484375 54.6875 
L 17.484375 21.921875 
Q 17.484375 14.15625 20.5 10.265625 
Q 23.53125 6.390625 29.59375 6.390625 
Q 36.859375 6.390625 41.078125 11.03125 
Q 45.3125 15.671875 45.3125 23.6875 
L 45.3125 54.6875 
L 54.296875 54.6875 
L 54.296875 0 
L 45.3125 0 
L 45.3125 8.40625 
Q 42.046875 3.421875 37.71875 1 
Q 33.40625 -1.421875 27.6875 -1.421875 
Q 18.265625 -1.421875 13.375 4.4375 
Q 8.5 10.296875 8.5 21.578125 
z
M 31.109375 56 
z
" id="DejaVuSans-75"/>
      <path d="M 9.421875 75.984375 
L 18.40625 75.984375 
L 18.40625 0 
L 9.421875 0 
z
" id="DejaVuSans-6c"/>
     </defs>
     <g transform="translate(190.168594 316.706687)scale(0.1 -0.1)">
      <use xlink:href="#DejaVuSans-25"/>
      <use x="95.019531" xlink:href="#DejaVuSans-20"/>
      <use x="126.806641" xlink:href="#DejaVuSans-62"/>
      <use x="190.283203" xlink:href="#DejaVuSans-69"/>
      <use x="218.066406" xlink:href="#DejaVuSans-74"/>
      <use x="257.275391" xlink:href="#DejaVuSans-61"/>
      <use x="318.554688" xlink:href="#DejaVuSans-72"/>
      <use x="359.652344" xlink:href="#DejaVuSans-72"/>
      <use x="400.765625" xlink:href="#DejaVuSans-61"/>
      <use x="462.044922" xlink:href="#DejaVuSans-79"/>
      <use x="521.224609" xlink:href="#DejaVuSans-20"/>
      <use x="553.011719" xlink:href="#DejaVuSans-66"/>
      <use x="588.216797" xlink:href="#DejaVuSans-75"/>
      <use x="651.595703" xlink:href="#DejaVuSans-6c"/>
      <use x="679.378906" xlink:href="#DejaVuSans-6c"/>
     </g>
    </g>
   </g>
   <g id="matplotlib.axis_2">
    <g id="ytick_1">
     <g id="line2d_41">
      <path clip-path="url(#p8be47537e5)" d="M 46.965625 274.181784 
L 404.085625 274.181784 
" style="fill:none;stroke:#b0b0b0;stroke-linecap:square;stroke-width:0.8;"/>
     </g>
     <g id="line2d_42">
      <defs>
       <path d="M 0 0 
L -3.5 0 
" id="mc0ce2f9c08" style="stroke:#000000;stroke-width:0.8;"/>
      </defs>
      <g>
       <use style="stroke:#000000;stroke-width:0.8;" x="46.965625" xlink:href="#mc0ce2f9c08" y="274.181784"/>
      </g>
     </g>
     <g id="text_6">
      <!-- 0 -->
      <g transform="translate(33.603125 277.981003)scale(0.1 -0.1)">
       <use xlink:href="#DejaVuSans-30"/>
      </g>
     </g>
    </g>
    <g id="ytick_2">
     <g id="line2d_43">
      <path clip-path="url(#p8be47537e5)" d="M 46.965625 241.921944 
L 404.085625 241.921944 
" style="fill:none;stroke:#b0b0b0;stroke-linecap:square;stroke-width:0.8;"/>
     </g>
     <g id="line2d_44">
      <g>
       <use style="stroke:#000000;stroke-width:0.8;" x="46.965625" xlink:href="#mc0ce2f9c08" y="241.921944"/>
      </g>
     </g>
     <g id="text_7">
      <!-- 25 -->
      <defs>
       <path d="M 10.796875 72.90625 
L 49.515625 72.90625 
L 49.515625 64.59375 
L 19.828125 64.59375 
L 19.828125 46.734375 
Q 21.96875 47.46875 24.109375 47.828125 
Q 26.265625 48.1875 28.421875 48.1875 
Q 40.625 48.1875 47.75 41.5 
Q 54.890625 34.8125 54.890625 23.390625 
Q 54.890625 11.625 47.5625 5.09375 
Q 40.234375 -1.421875 26.90625 -1.421875 
Q 22.3125 -1.421875 17.546875 -0.640625 
Q 12.796875 0.140625 7.71875 1.703125 
L 7.71875 11.625 
Q 12.109375 9.234375 16.796875 8.0625 
Q 21.484375 6.890625 26.703125 6.890625 
Q 35.15625 6.890625 40.078125 11.328125 
Q 45.015625 15.765625 45.015625 23.390625 
Q 45.015625 31 40.078125 35.4375 
Q 35.15625 39.890625 26.703125 39.890625 
Q 22.75 39.890625 18.8125 39.015625 
Q 14.890625 38.140625 10.796875 36.28125 
z
" id="DejaVuSans-35"/>
      </defs>
      <g transform="translate(27.240625 245.721162)scale(0.1 -0.1)">
       <use xlink:href="#DejaVuSans-32"/>
       <use x="63.623047" xlink:href="#DejaVuSans-35"/>
      </g>
     </g>
    </g>
    <g id="ytick_3">
     <g id="line2d_45">
      <path clip-path="url(#p8be47537e5)" d="M 46.965625 209.662103 
L 404.085625 209.662103 
" style="fill:none;stroke:#b0b0b0;stroke-linecap:square;stroke-width:0.8;"/>
     </g>
     <g id="line2d_46">
      <g>
       <use style="stroke:#000000;stroke-width:0.8;" x="46.965625" xlink:href="#mc0ce2f9c08" y="209.662103"/>
      </g>
     </g>
     <g id="text_8">
      <!-- 50 -->
      <g transform="translate(27.240625 213.461322)scale(0.1 -0.1)">
       <use xlink:href="#DejaVuSans-35"/>
       <use x="63.623047" xlink:href="#DejaVuSans-30"/>
      </g>
     </g>
    </g>
    <g id="ytick_4">
     <g id="line2d_47">
      <path clip-path="url(#p8be47537e5)" d="M 46.965625 177.402262 
L 404.085625 177.402262 
" style="fill:none;stroke:#b0b0b0;stroke-linecap:square;stroke-width:0.8;"/>
     </g>
     <g id="line2d_48">
      <g>
       <use style="stroke:#000000;stroke-width:0.8;" x="46.965625" xlink:href="#mc0ce2f9c08" y="177.402262"/>
      </g>
     </g>
     <g id="text_9">
      <!-- 75 -->
      <defs>
       <path d="M 8.203125 72.90625 
L 55.078125 72.90625 
L 55.078125 68.703125 
L 28.609375 0 
L 18.3125 0 
L 43.21875 64.59375 
L 8.203125 64.59375 
z
" id="DejaVuSans-37"/>
      </defs>
      <g transform="translate(27.240625 181.201481)scale(0.1 -0.1)">
       <use xlink:href="#DejaVuSans-37"/>
       <use x="63.623047" xlink:href="#DejaVuSans-35"/>
      </g>
     </g>
    </g>
    <g id="ytick_5">
     <g id="line2d_49">
      <path clip-path="url(#p8be47537e5)" d="M 46.965625 145.142421 
L 404.085625 145.142421 
" style="fill:none;stroke:#b0b0b0;stroke-linecap:square;stroke-width:0.8;"/>
     </g>
     <g id="line2d_50">
      <g>
       <use style="stroke:#000000;stroke-width:0.8;" x="46.965625" xlink:href="#mc0ce2f9c08" y="145.142421"/>
      </g>
     </g>
     <g id="text_10">
      <!-- 100 -->
      <g transform="translate(20.878125 148.94164)scale(0.1 -0.1)">
       <use xlink:href="#DejaVuSans-31"/>
       <use x="63.623047" xlink:href="#DejaVuSans-30"/>
       <use x="127.246094" xlink:href="#DejaVuSans-30"/>
      </g>
     </g>
    </g>
    <g id="ytick_6">
     <g id="line2d_51">
      <path clip-path="url(#p8be47537e5)" d="M 46.965625 112.882581 
L 404.085625 112.882581 
" style="fill:none;stroke:#b0b0b0;stroke-linecap:square;stroke-width:0.8;"/>
     </g>
     <g id="line2d_52">
      <g>
       <use style="stroke:#000000;stroke-width:0.8;" x="46.965625" xlink:href="#mc0ce2f9c08" y="112.882581"/>
      </g>
     </g>
     <g id="text_11">
      <!-- 125 -->
      <g transform="translate(20.878125 116.681799)scale(0.1 -0.1)">
       <use xlink:href="#DejaVuSans-31"/>
       <use x="63.623047" xlink:href="#DejaVuSans-32"/>
       <use x="127.246094" xlink:href="#DejaVuSans-35"/>
      </g>
     </g>
    </g>
    <g id="ytick_7">
     <g id="line2d_53">
      <path clip-path="url(#p8be47537e5)" d="M 46.965625 80.62274 
L 404.085625 80.62274 
" style="fill:none;stroke:#b0b0b0;stroke-linecap:square;stroke-width:0.8;"/>
     </g>
     <g id="line2d_54">
      <g>
       <use style="stroke:#000000;stroke-width:0.8;" x="46.965625" xlink:href="#mc0ce2f9c08" y="80.62274"/>
      </g>
     </g>
     <g id="text_12">
      <!-- 150 -->
      <g transform="translate(20.878125 84.421959)scale(0.1 -0.1)">
       <use xlink:href="#DejaVuSans-31"/>
       <use x="63.623047" xlink:href="#DejaVuSans-35"/>
       <use x="127.246094" xlink:href="#DejaVuSans-30"/>
      </g>
     </g>
    </g>
    <g id="ytick_8">
     <g id="line2d_55">
      <path clip-path="url(#p8be47537e5)" d="M 46.965625 48.362899 
L 404.085625 48.362899 
" style="fill:none;stroke:#b0b0b0;stroke-linecap:square;stroke-width:0.8;"/>
     </g>
     <g id="line2d_56">
      <g>
       <use style="stroke:#000000;stroke-width:0.8;" x="46.965625" xlink:href="#mc0ce2f9c08" y="48.362899"/>
      </g>
     </g>
     <g id="text_13">
      <!-- 175 -->
      <g transform="translate(20.878125 52.162118)scale(0.1 -0.1)">
       <use xlink:href="#DejaVuSans-31"/>
       <use x="63.623047" xlink:href="#DejaVuSans-37"/>
       <use x="127.246094" xlink:href="#DejaVuSans-35"/>
      </g>
     </g>
    </g>
    <g id="text_14">
     <!-- count -->
     <defs>
      <path d="M 48.78125 52.59375 
L 48.78125 44.1875 
Q 44.96875 46.296875 41.140625 47.34375 
Q 37.3125 48.390625 33.40625 48.390625 
Q 24.65625 48.390625 19.8125 42.84375 
Q 14.984375 37.3125 14.984375 27.296875 
Q 14.984375 17.28125 19.8125 11.734375 
Q 24.65625 6.203125 33.40625 6.203125 
Q 37.3125 6.203125 41.140625 7.25 
Q 44.96875 8.296875 48.78125 10.40625 
L 48.78125 2.09375 
Q 45.015625 0.34375 40.984375 -0.53125 
Q 36.96875 -1.421875 32.421875 -1.421875 
Q 20.0625 -1.421875 12.78125 6.34375 
Q 5.515625 14.109375 5.515625 27.296875 
Q 5.515625 40.671875 12.859375 48.328125 
Q 20.21875 56 33.015625 56 
Q 37.15625 56 41.109375 55.140625 
Q 45.0625 54.296875 48.78125 52.59375 
z
" id="DejaVuSans-63"/>
      <path d="M 30.609375 48.390625 
Q 23.390625 48.390625 19.1875 42.75 
Q 14.984375 37.109375 14.984375 27.296875 
Q 14.984375 17.484375 19.15625 11.84375 
Q 23.34375 6.203125 30.609375 6.203125 
Q 37.796875 6.203125 41.984375 11.859375 
Q 46.1875 17.53125 46.1875 27.296875 
Q 46.1875 37.015625 41.984375 42.703125 
Q 37.796875 48.390625 30.609375 48.390625 
z
M 30.609375 56 
Q 42.328125 56 49.015625 48.375 
Q 55.71875 40.765625 55.71875 27.296875 
Q 55.71875 13.875 49.015625 6.21875 
Q 42.328125 -1.421875 30.609375 -1.421875 
Q 18.84375 -1.421875 12.171875 6.21875 
Q 5.515625 13.875 5.515625 27.296875 
Q 5.515625 40.765625 12.171875 48.375 
Q 18.84375 56 30.609375 56 
z
" id="DejaVuSans-6f"/>
      <path d="M 54.890625 33.015625 
L 54.890625 0 
L 45.90625 0 
L 45.90625 32.71875 
Q 45.90625 40.484375 42.875 44.328125 
Q 39.84375 48.1875 33.796875 48.1875 
Q 26.515625 48.1875 22.3125 43.546875 
Q 18.109375 38.921875 18.109375 30.90625 
L 18.109375 0 
L 9.078125 0 
L 9.078125 54.6875 
L 18.109375 54.6875 
L 18.109375 46.1875 
Q 21.34375 51.125 25.703125 53.5625 
Q 30.078125 56 35.796875 56 
Q 45.21875 56 50.046875 50.171875 
Q 54.890625 44.34375 54.890625 33.015625 
z
" id="DejaVuSans-6e"/>
     </defs>
     <g transform="translate(14.798438 169.480375)rotate(-90)scale(0.1 -0.1)">
      <use xlink:href="#DejaVuSans-63"/>
      <use x="54.980469" xlink:href="#DejaVuSans-6f"/>
      <use x="116.162109" xlink:href="#DejaVuSans-75"/>
      <use x="179.541016" xlink:href="#DejaVuSans-6e"/>
      <use x="242.919922" xlink:href="#DejaVuSans-74"/>
     </g>
    </g>
   </g>
   <g id="patch_3">
    <path d="M 46.965625 288.430125 
L 46.965625 22.318125 
" style="fill:none;stroke:#000000;stroke-linecap:square;stroke-linejoin:miter;stroke-width:0.8;"/>
   </g>
   <g id="patch_4">
    <path d="M 404.085625 288.430125 
L 404.085625 22.318125 
" style="fill:none;stroke:#000000;stroke-linecap:square;stroke-linejoin:miter;stroke-width:0.8;"/>
   </g>
   <g id="patch_5">
    <path d="M 46.965625 288.430125 
L 404.085625 288.430125 
" style="fill:none;stroke:#000000;stroke-linecap:square;stroke-linejoin:miter;stroke-width:0.8;"/>
   </g>
   <g id="patch_6">
    <path d="M 46.965625 22.318125 
L 404.085625 22.318125 
" style="fill:none;stroke:#000000;stroke-linecap:square;stroke-linejoin:miter;stroke-width:0.8;"/>
   </g>
   <g id="text_15">
    <!-- Count by metric: bitarray size -->
    <defs>
     <path d="M 64.40625 67.28125 
L 64.40625 56.890625 
Q 59.421875 61.53125 53.78125 63.8125 
Q 48.140625 66.109375 41.796875 66.109375 
Q 29.296875 66.109375 22.65625 58.46875 
Q 16.015625 50.828125 16.015625 36.375 
Q 16.015625 21.96875 22.65625 14.328125 
Q 29.296875 6.6875 41.796875 6.6875 
Q 48.140625 6.6875 53.78125 8.984375 
Q 59.421875 11.28125 64.40625 15.921875 
L 64.40625 5.609375 
Q 59.234375 2.09375 53.4375 0.328125 
Q 47.65625 -1.421875 41.21875 -1.421875 
Q 24.65625 -1.421875 15.125 8.703125 
Q 5.609375 18.84375 5.609375 36.375 
Q 5.609375 53.953125 15.125 64.078125 
Q 24.65625 74.21875 41.21875 74.21875 
Q 47.75 74.21875 53.53125 72.484375 
Q 59.328125 70.75 64.40625 67.28125 
z
" id="DejaVuSans-43"/>
     <path d="M 52 44.1875 
Q 55.375 50.25 60.0625 53.125 
Q 64.75 56 71.09375 56 
Q 79.640625 56 84.28125 50.015625 
Q 88.921875 44.046875 88.921875 33.015625 
L 88.921875 0 
L 79.890625 0 
L 79.890625 32.71875 
Q 79.890625 40.578125 77.09375 44.375 
Q 74.3125 48.1875 68.609375 48.1875 
Q 61.625 48.1875 57.5625 43.546875 
Q 53.515625 38.921875 53.515625 30.90625 
L 53.515625 0 
L 44.484375 0 
L 44.484375 32.71875 
Q 44.484375 40.625 41.703125 44.40625 
Q 38.921875 48.1875 33.109375 48.1875 
Q 26.21875 48.1875 22.15625 43.53125 
Q 18.109375 38.875 18.109375 30.90625 
L 18.109375 0 
L 9.078125 0 
L 9.078125 54.6875 
L 18.109375 54.6875 
L 18.109375 46.1875 
Q 21.1875 51.21875 25.484375 53.609375 
Q 29.78125 56 35.6875 56 
Q 41.65625 56 45.828125 52.96875 
Q 50 49.953125 52 44.1875 
z
" id="DejaVuSans-6d"/>
     <path d="M 56.203125 29.59375 
L 56.203125 25.203125 
L 14.890625 25.203125 
Q 15.484375 15.921875 20.484375 11.0625 
Q 25.484375 6.203125 34.421875 6.203125 
Q 39.59375 6.203125 44.453125 7.46875 
Q 49.3125 8.734375 54.109375 11.28125 
L 54.109375 2.78125 
Q 49.265625 0.734375 44.1875 -0.34375 
Q 39.109375 -1.421875 33.890625 -1.421875 
Q 20.796875 -1.421875 13.15625 6.1875 
Q 5.515625 13.8125 5.515625 26.8125 
Q 5.515625 40.234375 12.765625 48.109375 
Q 20.015625 56 32.328125 56 
Q 43.359375 56 49.78125 48.890625 
Q 56.203125 41.796875 56.203125 29.59375 
z
M 47.21875 32.234375 
Q 47.125 39.59375 43.09375 43.984375 
Q 39.0625 48.390625 32.421875 48.390625 
Q 24.90625 48.390625 20.390625 44.140625 
Q 15.875 39.890625 15.1875 32.171875 
z
" id="DejaVuSans-65"/>
     <path d="M 11.71875 12.40625 
L 22.015625 12.40625 
L 22.015625 0 
L 11.71875 0 
z
M 11.71875 51.703125 
L 22.015625 51.703125 
L 22.015625 39.3125 
L 11.71875 39.3125 
z
" id="DejaVuSans-3a"/>
     <path d="M 44.28125 53.078125 
L 44.28125 44.578125 
Q 40.484375 46.53125 36.375 47.5 
Q 32.28125 48.484375 27.875 48.484375 
Q 21.1875 48.484375 17.84375 46.4375 
Q 14.5 44.390625 14.5 40.28125 
Q 14.5 37.15625 16.890625 35.375 
Q 19.28125 33.59375 26.515625 31.984375 
L 29.59375 31.296875 
Q 39.15625 29.25 43.1875 25.515625 
Q 47.21875 21.78125 47.21875 15.09375 
Q 47.21875 7.46875 41.1875 3.015625 
Q 35.15625 -1.421875 24.609375 -1.421875 
Q 20.21875 -1.421875 15.453125 -0.5625 
Q 10.6875 0.296875 5.421875 2 
L 5.421875 11.28125 
Q 10.40625 8.6875 15.234375 7.390625 
Q 20.0625 6.109375 24.8125 6.109375 
Q 31.15625 6.109375 34.5625 8.28125 
Q 37.984375 10.453125 37.984375 14.40625 
Q 37.984375 18.0625 35.515625 20.015625 
Q 33.0625 21.96875 24.703125 23.78125 
L 21.578125 24.515625 
Q 13.234375 26.265625 9.515625 29.90625 
Q 5.8125 33.546875 5.8125 39.890625 
Q 5.8125 47.609375 11.28125 51.796875 
Q 16.75 56 26.8125 56 
Q 31.78125 56 36.171875 55.265625 
Q 40.578125 54.546875 44.28125 53.078125 
z
" id="DejaVuSans-73"/>
     <path d="M 5.515625 54.6875 
L 48.1875 54.6875 
L 48.1875 46.484375 
L 14.40625 7.171875 
L 48.1875 7.171875 
L 48.1875 0 
L 4.296875 0 
L 4.296875 8.203125 
L 38.09375 47.515625 
L 5.515625 47.515625 
z
" id="DejaVuSans-7a"/>
    </defs>
    <g transform="translate(136.07875 16.318125)scale(0.12 -0.12)">
     <use xlink:href="#DejaVuSans-43"/>
     <use x="69.824219" xlink:href="#DejaVuSans-6f"/>
     <use x="131.005859" xlink:href="#DejaVuSans-75"/>
     <use x="194.384766" xlink:href="#DejaVuSans-6e"/>
     <use x="257.763672" xlink:href="#DejaVuSans-74"/>
     <use x="296.972656" xlink:href="#DejaVuSans-20"/>
     <use x="328.759766" xlink:href="#DejaVuSans-62"/>
     <use x="392.236328" xlink:href="#DejaVuSans-79"/>
     <use x="451.416016" xlink:href="#DejaVuSans-20"/>
     <use x="483.203125" xlink:href="#DejaVuSans-6d"/>
     <use x="580.615234" xlink:href="#DejaVuSans-65"/>
     <use x="642.138672" xlink:href="#DejaVuSans-74"/>
     <use x="681.347656" xlink:href="#DejaVuSans-72"/>
     <use x="722.460938" xlink:href="#DejaVuSans-69"/>
     <use x="750.244141" xlink:href="#DejaVuSans-63"/>
     <use x="805.224609" xlink:href="#DejaVuSans-3a"/>
     <use x="838.916016" xlink:href="#DejaVuSans-20"/>
     <use x="870.703125" xlink:href="#DejaVuSans-62"/>
     <use x="934.179688" xlink:href="#DejaVuSans-69"/>
     <use x="961.962891" xlink:href="#DejaVuSans-74"/>
     <use x="1001.171875" xlink:href="#DejaVuSans-61"/>
     <use x="1062.451172" xlink:href="#DejaVuSans-72"/>
     <use x="1103.548828" xlink:href="#DejaVuSans-72"/>
     <use x="1144.662109" xlink:href="#DejaVuSans-61"/>
     <use x="1205.941406" xlink:href="#DejaVuSans-79"/>
     <use x="1265.121094" xlink:href="#DejaVuSans-20"/>
     <use x="1296.908203" xlink:href="#DejaVuSans-73"/>
     <use x="1349.007812" xlink:href="#DejaVuSans-69"/>
     <use x="1376.791016" xlink:href="#DejaVuSans-7a"/>
     <use x="1429.28125" xlink:href="#DejaVuSans-65"/>
    </g>
   </g>
   <g id="legend_1">
    <g id="patch_7">
     <path d="M 53.965625 147.743125 
L 180.895312 147.743125 
Q 182.895312 147.743125 182.895312 145.743125 
L 182.895312 29.318125 
Q 182.895312 27.318125 180.895312 27.318125 
L 53.965625 27.318125 
Q 51.965625 27.318125 51.965625 29.318125 
L 51.965625 145.743125 
Q 51.965625 147.743125 53.965625 147.743125 
z
" style="fill:#ffffff;opacity:0.8;stroke:#cccccc;stroke-linejoin:miter;"/>
    </g>
    <g id="PathCollection_9">
     <path d="M 65.965625 39.291562 
C 66.761234 39.291562 67.524365 38.975464 68.086945 38.412883 
C 68.649526 37.850302 68.965625 37.087172 68.965625 36.291562 
C 68.965625 35.495953 68.649526 34.732823 68.086945 34.170242 
C 67.524365 33.607661 66.761234 33.291562 65.965625 33.291562 
C 65.170016 33.291562 64.406885 33.607661 63.844305 34.170242 
C 63.281724 34.732823 62.965625 35.495953 62.965625 36.291562 
C 62.965625 37.087172 63.281724 37.850302 63.844305 38.412883 
C 64.406885 38.975464 65.170016 39.291562 65.965625 39.291562 
z
" style="fill:#ff0000;fill-opacity:0.5;"/>
    </g>
    <g id="text_16">
     <!-- bit lookups linear -->
     <defs>
      <path d="M 9.078125 75.984375 
L 18.109375 75.984375 
L 18.109375 31.109375 
L 44.921875 54.6875 
L 56.390625 54.6875 
L 27.390625 29.109375 
L 57.625 0 
L 45.90625 0 
L 18.109375 26.703125 
L 18.109375 0 
L 9.078125 0 
z
" id="DejaVuSans-6b"/>
      <path d="M 18.109375 8.203125 
L 18.109375 -20.796875 
L 9.078125 -20.796875 
L 9.078125 54.6875 
L 18.109375 54.6875 
L 18.109375 46.390625 
Q 20.953125 51.265625 25.265625 53.625 
Q 29.59375 56 35.59375 56 
Q 45.5625 56 51.78125 48.09375 
Q 58.015625 40.1875 58.015625 27.296875 
Q 58.015625 14.40625 51.78125 6.484375 
Q 45.5625 -1.421875 35.59375 -1.421875 
Q 29.59375 -1.421875 25.265625 0.953125 
Q 20.953125 3.328125 18.109375 8.203125 
z
M 48.6875 27.296875 
Q 48.6875 37.203125 44.609375 42.84375 
Q 40.53125 48.484375 33.40625 48.484375 
Q 26.265625 48.484375 22.1875 42.84375 
Q 18.109375 37.203125 18.109375 27.296875 
Q 18.109375 17.390625 22.1875 11.75 
Q 26.265625 6.109375 33.40625 6.109375 
Q 40.53125 6.109375 44.609375 11.75 
Q 48.6875 17.390625 48.6875 27.296875 
z
" id="DejaVuSans-70"/>
     </defs>
     <g transform="translate(83.965625 38.916562)scale(0.1 -0.1)">
      <use xlink:href="#DejaVuSans-62"/>
      <use x="63.476562" xlink:href="#DejaVuSans-69"/>
      <use x="91.259766" xlink:href="#DejaVuSans-74"/>
      <use x="130.46875" xlink:href="#DejaVuSans-20"/>
      <use x="162.255859" xlink:href="#DejaVuSans-6c"/>
      <use x="190.039062" xlink:href="#DejaVuSans-6f"/>
      <use x="251.220703" xlink:href="#DejaVuSans-6f"/>
      <use x="312.402344" xlink:href="#DejaVuSans-6b"/>
      <use x="370.265625" xlink:href="#DejaVuSans-75"/>
      <use x="433.644531" xlink:href="#DejaVuSans-70"/>
      <use x="497.121094" xlink:href="#DejaVuSans-73"/>
      <use x="549.220703" xlink:href="#DejaVuSans-20"/>
      <use x="581.007812" xlink:href="#DejaVuSans-6c"/>
      <use x="608.791016" xlink:href="#DejaVuSans-69"/>
      <use x="636.574219" xlink:href="#DejaVuSans-6e"/>
      <use x="699.953125" xlink:href="#DejaVuSans-65"/>
      <use x="761.476562" xlink:href="#DejaVuSans-61"/>
      <use x="822.755859" xlink:href="#DejaVuSans-72"/>
     </g>
    </g>
    <g id="PathCollection_10">
     <path d="M 65.965625 53.969688 
C 66.761234 53.969688 67.524365 53.653589 68.086945 53.091008 
C 68.649526 52.528427 68.965625 51.765297 68.965625 50.969688 
C 68.965625 50.174078 68.649526 49.410948 68.086945 48.848367 
C 67.524365 48.285786 66.761234 47.969688 65.965625 47.969688 
C 65.170016 47.969688 64.406885 48.285786 63.844305 48.848367 
C 63.281724 49.410948 62.965625 50.174078 62.965625 50.969688 
C 62.965625 51.765297 63.281724 52.528427 63.844305 53.091008 
C 64.406885 53.653589 65.170016 53.969688 65.965625 53.969688 
z
" style="fill:#0000ff;fill-opacity:0.8;"/>
    </g>
    <g id="text_17">
     <!-- bit lookups guided -->
     <defs>
      <path d="M 45.40625 27.984375 
Q 45.40625 37.75 41.375 43.109375 
Q 37.359375 48.484375 30.078125 48.484375 
Q 22.859375 48.484375 18.828125 43.109375 
Q 14.796875 37.75 14.796875 27.984375 
Q 14.796875 18.265625 18.828125 12.890625 
Q 22.859375 7.515625 30.078125 7.515625 
Q 37.359375 7.515625 41.375 12.890625 
Q 45.40625 18.265625 45.40625 27.984375 
z
M 54.390625 6.78125 
Q 54.390625 -7.171875 48.1875 -13.984375 
Q 42 -20.796875 29.203125 -20.796875 
Q 24.46875 -20.796875 20.265625 -20.09375 
Q 16.0625 -19.390625 12.109375 -17.921875 
L 12.109375 -9.1875 
Q 16.0625 -11.328125 19.921875 -12.34375 
Q 23.78125 -13.375 27.78125 -13.375 
Q 36.625 -13.375 41.015625 -8.765625 
Q 45.40625 -4.15625 45.40625 5.171875 
L 45.40625 9.625 
Q 42.625 4.78125 38.28125 2.390625 
Q 33.9375 0 27.875 0 
Q 17.828125 0 11.671875 7.65625 
Q 5.515625 15.328125 5.515625 27.984375 
Q 5.515625 40.671875 11.671875 48.328125 
Q 17.828125 56 27.875 56 
Q 33.9375 56 38.28125 53.609375 
Q 42.625 51.21875 45.40625 46.390625 
L 45.40625 54.6875 
L 54.390625 54.6875 
z
" id="DejaVuSans-67"/>
      <path d="M 45.40625 46.390625 
L 45.40625 75.984375 
L 54.390625 75.984375 
L 54.390625 0 
L 45.40625 0 
L 45.40625 8.203125 
Q 42.578125 3.328125 38.25 0.953125 
Q 33.9375 -1.421875 27.875 -1.421875 
Q 17.96875 -1.421875 11.734375 6.484375 
Q 5.515625 14.40625 5.515625 27.296875 
Q 5.515625 40.1875 11.734375 48.09375 
Q 17.96875 56 27.875 56 
Q 33.9375 56 38.25 53.625 
Q 42.578125 51.265625 45.40625 46.390625 
z
M 14.796875 27.296875 
Q 14.796875 17.390625 18.875 11.75 
Q 22.953125 6.109375 30.078125 6.109375 
Q 37.203125 6.109375 41.296875 11.75 
Q 45.40625 17.390625 45.40625 27.296875 
Q 45.40625 37.203125 41.296875 42.84375 
Q 37.203125 48.484375 30.078125 48.484375 
Q 22.953125 48.484375 18.875 42.84375 
Q 14.796875 37.203125 14.796875 27.296875 
z
" id="DejaVuSans-64"/>
     </defs>
     <g transform="translate(83.965625 53.594688)scale(0.1 -0.1)">
      <use xlink:href="#DejaVuSans-62"/>
      <use x="63.476562" xlink:href="#DejaVuSans-69"/>
      <use x="91.259766" xlink:href="#DejaVuSans-74"/>
      <use x="130.46875" xlink:href="#DejaVuSans-20"/>
      <use x="162.255859" xlink:href="#DejaVuSans-6c"/>
      <use x="190.039062" xlink:href="#DejaVuSans-6f"/>
      <use x="251.220703" xlink:href="#DejaVuSans-6f"/>
      <use x="312.402344" xlink:href="#DejaVuSans-6b"/>
      <use x="370.265625" xlink:href="#DejaVuSans-75"/>
      <use x="433.644531" xlink:href="#DejaVuSans-70"/>
      <use x="497.121094" xlink:href="#DejaVuSans-73"/>
      <use x="549.220703" xlink:href="#DejaVuSans-20"/>
      <use x="581.007812" xlink:href="#DejaVuSans-67"/>
      <use x="644.484375" xlink:href="#DejaVuSans-75"/>
      <use x="707.863281" xlink:href="#DejaVuSans-69"/>
      <use x="735.646484" xlink:href="#DejaVuSans-64"/>
      <use x="799.123047" xlink:href="#DejaVuSans-65"/>
      <use x="860.646484" xlink:href="#DejaVuSans-64"/>
     </g>
    </g>
    <g id="PathCollection_11">
     <path d="M 65.965625 68.647812 
C 66.761234 68.647812 67.524365 68.331714 68.086945 67.769133 
C 68.649526 67.206552 68.965625 66.443422 68.965625 65.647812 
C 68.965625 64.852203 68.649526 64.089073 68.086945 63.526492 
C 67.524365 62.963911 66.761234 62.647812 65.965625 62.647812 
C 65.170016 62.647812 64.406885 62.963911 63.844305 63.526492 
C 63.281724 64.089073 62.965625 64.852203 62.965625 65.647812 
C 62.965625 66.443422 63.281724 67.206552 63.844305 67.769133 
C 64.406885 68.331714 65.170016 68.647812 65.965625 68.647812 
z
" style="fill:#a0522d;fill-opacity:0.5;"/>
    </g>
    <g id="text_18">
     <!-- hashing linear -->
     <defs>
      <path d="M 54.890625 33.015625 
L 54.890625 0 
L 45.90625 0 
L 45.90625 32.71875 
Q 45.90625 40.484375 42.875 44.328125 
Q 39.84375 48.1875 33.796875 48.1875 
Q 26.515625 48.1875 22.3125 43.546875 
Q 18.109375 38.921875 18.109375 30.90625 
L 18.109375 0 
L 9.078125 0 
L 9.078125 75.984375 
L 18.109375 75.984375 
L 18.109375 46.1875 
Q 21.34375 51.125 25.703125 53.5625 
Q 30.078125 56 35.796875 56 
Q 45.21875 56 50.046875 50.171875 
Q 54.890625 44.34375 54.890625 33.015625 
z
" id="DejaVuSans-68"/>
     </defs>
     <g transform="translate(83.965625 68.272812)scale(0.1 -0.1)">
      <use xlink:href="#DejaVuSans-68"/>
      <use x="63.378906" xlink:href="#DejaVuSans-61"/>
      <use x="124.658203" xlink:href="#DejaVuSans-73"/>
      <use x="176.757812" xlink:href="#DejaVuSans-68"/>
      <use x="240.136719" xlink:href="#DejaVuSans-69"/>
      <use x="267.919922" xlink:href="#DejaVuSans-6e"/>
      <use x="331.298828" xlink:href="#DejaVuSans-67"/>
      <use x="394.775391" xlink:href="#DejaVuSans-20"/>
      <use x="426.5625" xlink:href="#DejaVuSans-6c"/>
      <use x="454.345703" xlink:href="#DejaVuSans-69"/>
      <use x="482.128906" xlink:href="#DejaVuSans-6e"/>
      <use x="545.507812" xlink:href="#DejaVuSans-65"/>
      <use x="607.03125" xlink:href="#DejaVuSans-61"/>
      <use x="668.310547" xlink:href="#DejaVuSans-72"/>
     </g>
    </g>
    <g id="PathCollection_12">
     <path d="M 65.965625 83.325938 
C 66.761234 83.325938 67.524365 83.009839 68.086945 82.447258 
C 68.649526 81.884677 68.965625 81.121547 68.965625 80.325938 
C 68.965625 79.530328 68.649526 78.767198 68.086945 78.204617 
C 67.524365 77.642036 66.761234 77.325938 65.965625 77.325938 
C 65.170016 77.325938 64.406885 77.642036 63.844305 78.204617 
C 63.281724 78.767198 62.965625 79.530328 62.965625 80.325938 
C 62.965625 81.121547 63.281724 81.884677 63.844305 82.447258 
C 64.406885 83.009839 65.170016 83.325938 65.965625 83.325938 
z
" style="fill:#00ffff;fill-opacity:0.8;"/>
    </g>
    <g id="text_19">
     <!-- hashing guided -->
     <g transform="translate(83.965625 82.950938)scale(0.1 -0.1)">
      <use xlink:href="#DejaVuSans-68"/>
      <use x="63.378906" xlink:href="#DejaVuSans-61"/>
      <use x="124.658203" xlink:href="#DejaVuSans-73"/>
      <use x="176.757812" xlink:href="#DejaVuSans-68"/>
      <use x="240.136719" xlink:href="#DejaVuSans-69"/>
      <use x="267.919922" xlink:href="#DejaVuSans-6e"/>
      <use x="331.298828" xlink:href="#DejaVuSans-67"/>
      <use x="394.775391" xlink:href="#DejaVuSans-20"/>
      <use x="426.5625" xlink:href="#DejaVuSans-67"/>
      <use x="490.039062" xlink:href="#DejaVuSans-75"/>
      <use x="553.417969" xlink:href="#DejaVuSans-69"/>
      <use x="581.201172" xlink:href="#DejaVuSans-64"/>
      <use x="644.677734" xlink:href="#DejaVuSans-65"/>
      <use x="706.201172" xlink:href="#DejaVuSans-64"/>
     </g>
    </g>
    <g id="PathCollection_13">
     <path d="M 65.965625 98.004063 
C 66.761234 98.004063 67.524365 97.687964 68.086945 97.125383 
C 68.649526 96.562802 68.965625 95.799672 68.965625 95.004063 
C 68.965625 94.208453 68.649526 93.445323 68.086945 92.882742 
C 67.524365 92.320161 66.761234 92.004063 65.965625 92.004063 
C 65.170016 92.004063 64.406885 92.320161 63.844305 92.882742 
C 63.281724 93.445323 62.965625 94.208453 62.965625 95.004063 
C 62.965625 95.799672 63.281724 96.562802 63.844305 97.125383 
C 64.406885 97.687964 65.170016 98.004063 65.965625 98.004063 
z
" style="fill:#dda0dd;fill-opacity:0.5;"/>
    </g>
    <g id="text_20">
     <!-- FIB lookups linear -->
     <defs>
      <path d="M 9.8125 72.90625 
L 51.703125 72.90625 
L 51.703125 64.59375 
L 19.671875 64.59375 
L 19.671875 43.109375 
L 48.578125 43.109375 
L 48.578125 34.8125 
L 19.671875 34.8125 
L 19.671875 0 
L 9.8125 0 
z
" id="DejaVuSans-46"/>
      <path d="M 9.8125 72.90625 
L 19.671875 72.90625 
L 19.671875 0 
L 9.8125 0 
z
" id="DejaVuSans-49"/>
      <path d="M 19.671875 34.8125 
L 19.671875 8.109375 
L 35.5 8.109375 
Q 43.453125 8.109375 47.28125 11.40625 
Q 51.125 14.703125 51.125 21.484375 
Q 51.125 28.328125 47.28125 31.5625 
Q 43.453125 34.8125 35.5 34.8125 
z
M 19.671875 64.796875 
L 19.671875 42.828125 
L 34.28125 42.828125 
Q 41.5 42.828125 45.03125 45.53125 
Q 48.578125 48.25 48.578125 53.8125 
Q 48.578125 59.328125 45.03125 62.0625 
Q 41.5 64.796875 34.28125 64.796875 
z
M 9.8125 72.90625 
L 35.015625 72.90625 
Q 46.296875 72.90625 52.390625 68.21875 
Q 58.5 63.53125 58.5 54.890625 
Q 58.5 48.1875 55.375 44.234375 
Q 52.25 40.28125 46.1875 39.3125 
Q 53.46875 37.75 57.5 32.78125 
Q 61.53125 27.828125 61.53125 20.40625 
Q 61.53125 10.640625 54.890625 5.3125 
Q 48.25 0 35.984375 0 
L 9.8125 0 
z
" id="DejaVuSans-42"/>
     </defs>
     <g transform="translate(83.965625 97.629063)scale(0.1 -0.1)">
      <use xlink:href="#DejaVuSans-46"/>
      <use x="57.519531" xlink:href="#DejaVuSans-49"/>
      <use x="87.011719" xlink:href="#DejaVuSans-42"/>
      <use x="155.615234" xlink:href="#DejaVuSans-20"/>
      <use x="187.402344" xlink:href="#DejaVuSans-6c"/>
      <use x="215.185547" xlink:href="#DejaVuSans-6f"/>
      <use x="276.367188" xlink:href="#DejaVuSans-6f"/>
      <use x="337.548828" xlink:href="#DejaVuSans-6b"/>
      <use x="395.412109" xlink:href="#DejaVuSans-75"/>
      <use x="458.791016" xlink:href="#DejaVuSans-70"/>
      <use x="522.267578" xlink:href="#DejaVuSans-73"/>
      <use x="574.367188" xlink:href="#DejaVuSans-20"/>
      <use x="606.154297" xlink:href="#DejaVuSans-6c"/>
      <use x="633.9375" xlink:href="#DejaVuSans-69"/>
      <use x="661.720703" xlink:href="#DejaVuSans-6e"/>
      <use x="725.099609" xlink:href="#DejaVuSans-65"/>
      <use x="786.623047" xlink:href="#DejaVuSans-61"/>
      <use x="847.902344" xlink:href="#DejaVuSans-72"/>
     </g>
    </g>
    <g id="PathCollection_14">
     <path d="M 65.965625 112.682187 
C 66.761234 112.682187 67.524365 112.366089 68.086945 111.803508 
C 68.649526 111.240927 68.965625 110.477797 68.965625 109.682187 
C 68.965625 108.886578 68.649526 108.123448 68.086945 107.560867 
C 67.524365 106.998286 66.761234 106.682187 65.965625 106.682187 
C 65.170016 106.682187 64.406885 106.998286 63.844305 107.560867 
C 63.281724 108.123448 62.965625 108.886578 62.965625 109.682187 
C 62.965625 110.477797 63.281724 111.240927 63.844305 111.803508 
C 64.406885 112.366089 65.170016 112.682187 65.965625 112.682187 
z
" style="fill:#008080;fill-opacity:0.8;"/>
    </g>
    <g id="text_21">
     <!-- FIB lookups guided -->
     <g transform="translate(83.965625 112.307187)scale(0.1 -0.1)">
      <use xlink:href="#DejaVuSans-46"/>
      <use x="57.519531" xlink:href="#DejaVuSans-49"/>
      <use x="87.011719" xlink:href="#DejaVuSans-42"/>
      <use x="155.615234" xlink:href="#DejaVuSans-20"/>
      <use x="187.402344" xlink:href="#DejaVuSans-6c"/>
      <use x="215.185547" xlink:href="#DejaVuSans-6f"/>
      <use x="276.367188" xlink:href="#DejaVuSans-6f"/>
      <use x="337.548828" xlink:href="#DejaVuSans-6b"/>
      <use x="395.412109" xlink:href="#DejaVuSans-75"/>
      <use x="458.791016" xlink:href="#DejaVuSans-70"/>
      <use x="522.267578" xlink:href="#DejaVuSans-73"/>
      <use x="574.367188" xlink:href="#DejaVuSans-20"/>
      <use x="606.154297" xlink:href="#DejaVuSans-67"/>
      <use x="669.630859" xlink:href="#DejaVuSans-75"/>
      <use x="733.009766" xlink:href="#DejaVuSans-69"/>
      <use x="760.792969" xlink:href="#DejaVuSans-64"/>
      <use x="824.269531" xlink:href="#DejaVuSans-65"/>
      <use x="885.792969" xlink:href="#DejaVuSans-64"/>
     </g>
    </g>
    <g id="PathCollection_15">
     <path d="M 65.965625 127.360312 
C 66.761234 127.360312 67.524365 127.044214 68.086945 126.481633 
C 68.649526 125.919052 68.965625 125.155922 68.965625 124.360312 
C 68.965625 123.564703 68.649526 122.801573 68.086945 122.238992 
C 67.524365 121.676411 66.761234 121.360312 65.965625 121.360312 
C 65.170016 121.360312 64.406885 121.676411 63.844305 122.238992 
C 63.281724 122.801573 62.965625 123.564703 62.965625 124.360312 
C 62.965625 125.155922 63.281724 125.919052 63.844305 126.481633 
C 64.406885 127.044214 65.170016 127.360312 65.965625 127.360312 
z
" style="fill:#dc143c;fill-opacity:0.5;"/>
    </g>
    <g id="text_22">
     <!-- defaults linear -->
     <g transform="translate(83.965625 126.985312)scale(0.1 -0.1)">
      <use xlink:href="#DejaVuSans-64"/>
      <use x="63.476562" xlink:href="#DejaVuSans-65"/>
      <use x="125" xlink:href="#DejaVuSans-66"/>
      <use x="160.205078" xlink:href="#DejaVuSans-61"/>
      <use x="221.484375" xlink:href="#DejaVuSans-75"/>
      <use x="284.863281" xlink:href="#DejaVuSans-6c"/>
      <use x="312.646484" xlink:href="#DejaVuSans-74"/>
      <use x="351.855469" xlink:href="#DejaVuSans-73"/>
      <use x="403.955078" xlink:href="#DejaVuSans-20"/>
      <use x="435.742188" xlink:href="#DejaVuSans-6c"/>
      <use x="463.525391" xlink:href="#DejaVuSans-69"/>
      <use x="491.308594" xlink:href="#DejaVuSans-6e"/>
      <use x="554.6875" xlink:href="#DejaVuSans-65"/>
      <use x="616.210938" xlink:href="#DejaVuSans-61"/>
      <use x="677.490234" xlink:href="#DejaVuSans-72"/>
     </g>
    </g>
    <g id="PathCollection_16">
     <path d="M 65.965625 142.038437 
C 66.761234 142.038437 67.524365 141.722339 68.086945 141.159758 
C 68.649526 140.597177 68.965625 139.834047 68.965625 139.038437 
C 68.965625 138.242828 68.649526 137.479698 68.086945 136.917117 
C 67.524365 136.354536 66.761234 136.038437 65.965625 136.038437 
C 65.170016 136.038437 64.406885 136.354536 63.844305 136.917117 
C 63.281724 137.479698 62.965625 138.242828 62.965625 139.038437 
C 62.965625 139.834047 63.281724 140.597177 63.844305 141.159758 
C 64.406885 141.722339 65.170016 142.038437 65.965625 142.038437 
z
" style="fill:#87ceeb;fill-opacity:0.8;"/>
    </g>
    <g id="text_23">
     <!-- defaults guided -->
     <g transform="translate(83.965625 141.663437)scale(0.1 -0.1)">
      <use xlink:href="#DejaVuSans-64"/>
      <use x="63.476562" xlink:href="#DejaVuSans-65"/>
      <use x="125" xlink:href="#DejaVuSans-66"/>
      <use x="160.205078" xlink:href="#DejaVuSans-61"/>
      <use x="221.484375" xlink:href="#DejaVuSans-75"/>
      <use x="284.863281" xlink:href="#DejaVuSans-6c"/>
      <use x="312.646484" xlink:href="#DejaVuSans-74"/>
      <use x="351.855469" xlink:href="#DejaVuSans-73"/>
      <use x="403.955078" xlink:href="#DejaVuSans-20"/>
      <use x="435.742188" xlink:href="#DejaVuSans-67"/>
      <use x="499.21875" xlink:href="#DejaVuSans-75"/>
      <use x="562.597656" xlink:href="#DejaVuSans-69"/>
      <use x="590.380859" xlink:href="#DejaVuSans-64"/>
      <use x="653.857422" xlink:href="#DejaVuSans-65"/>
      <use x="715.380859" xlink:href="#DejaVuSans-64"/>
     </g>
    </g>
   </g>
  </g>
 </g>
 <defs>
  <clipPath id="p8be47537e5">
   <rect height="266.112" width="357.12" x="46.965625" y="22.318125"/>
  </clipPath>
 </defs>
</svg>
